<svg xmlns="http://www.w3.org/2000/svg" xmlns:xlink="http://www.w3.org/1999/xlink" xmlns:lucid="lucid" width="2440" height="1623"><g transform="translate(-20 -78)" lucid:page-tab-id="HWEp-vi-RSFO"><path d="M0 0h2680.45v2909.3H0z" fill="#fff"/><path d="M40 100h360v199H40z" stroke="#333" stroke-width="2" fill="#fff"/><path d="M40 137.6h360M40 239.9h360" stroke="#333" stroke-width="2" fill="none"/><use xlink:href="#a" transform="matrix(1,0,0,1,48,108) translate(150.025 14.6)"/><use xlink:href="#b" transform="matrix(1,0,0,1,52,145.6) translate(78.75000000000001 25.5)"/><use xlink:href="#c" transform="matrix(1,0,0,1,52,145.6) translate(82.20000000000002 47.1)"/><use xlink:href="#d" transform="matrix(1,0,0,1,52,145.6) translate(140.075 68.7)"/><path d="M1040 100h360v199h-360z" stroke="#333" stroke-width="2" fill="#fff"/><path d="M1040 137.6h360m-360 102.3h360" stroke="#333" stroke-width="2" fill="none"/><use xlink:href="#e" transform="matrix(1,0,0,1,1048,108) translate(138.55 14.6)"/><use xlink:href="#f" transform="matrix(1,0,0,1,1052,145.6) translate(118.625 25.5)"/><use xlink:href="#g" transform="matrix(1,0,0,1,1052,145.6) translate(92.70000000000002 47.1)"/><use xlink:href="#h" transform="matrix(1,0,0,1,1052,145.6) translate(108.6 68.7)"/><path d="M240 340h360v263H240z" stroke="#333" stroke-width="2" fill="#fff"/><path d="M240 399.2h360" stroke="#333" stroke-width="2" fill="none"/><use xlink:href="#i" transform="matrix(1,0,0,1,248,348) translate(113.57499999999999 14.799999999999999)"/><use xlink:href="#j" transform="matrix(1,0,0,1,248,348) translate(134.625 36.4)"/><use xlink:href="#k" transform="matrix(1,0,0,1,252,407.2) translate(105.6 65.19999999999999)"/><use xlink:href="#l" transform="matrix(1,0,0,1,252,407.2) translate(97.60000000000001 86.8)"/><use xlink:href="#m" transform="matrix(1,0,0,1,252,407.2) translate(102.1 108.4)"/><use xlink:href="#n" transform="matrix(1,0,0,1,252,407.2) translate(104.44999999999999 130)"/><path d="M760 380h360v263H760z" stroke="#333" stroke-width="2" fill="#fff"/><path d="M760 439.2h360" stroke="#333" stroke-width="2" fill="none"/><use xlink:href="#o" transform="matrix(1,0,0,1,768,388) translate(128.5 14.799999999999999)"/><use xlink:href="#p" transform="matrix(1,0,0,1,768,388) translate(142.025 36.4)"/><use xlink:href="#q" transform="matrix(1,0,0,1,772,447.2) translate(111.125 65.19999999999999)"/><use xlink:href="#r" transform="matrix(1,0,0,1,772,447.2) translate(92.17500000000001 86.8)"/><use xlink:href="#s" transform="matrix(1,0,0,1,772,447.2) translate(119.625 108.4)"/><use xlink:href="#t" transform="matrix(1,0,0,1,772,447.2) translate(114.07499999999999 130)"/><path d="M960 860h360v329H960z" stroke="#333" stroke-width="2" fill="#fff"/><path d="M960 897.6h360m-360 210.3h360" stroke="#333" stroke-width="2" fill="none"/><use xlink:href="#u" transform="matrix(1,0,0,1,968,868) translate(136.575 14.6)"/><use xlink:href="#v" transform="matrix(1,0,0,1,972,905.6) translate(115.6 25.500000000000007)"/><use xlink:href="#w" transform="matrix(1,0,0,1,972,905.6) translate(86.67500000000001 47.10000000000001)"/><use xlink:href="#x" transform="matrix(1,0,0,1,972,905.6) translate(109.1 68.70000000000002)"/><use xlink:href="#y" transform="matrix(1,0,0,1,972,905.6) translate(109.05 90.30000000000003)"/><use xlink:href="#z" transform="matrix(1,0,0,1,972,905.6) translate(118.07499999999999 111.90000000000002)"/><use xlink:href="#A" transform="matrix(1,0,0,1,972,905.6) translate(107.1 133.5)"/><use xlink:href="#l" transform="matrix(1,0,0,1,972,905.6) translate(97.60000000000001 155.1)"/><use xlink:href="#B" transform="matrix(1,0,0,1,972,905.6) translate(105.6 176.70000000000002)"/><use xlink:href="#C" transform="matrix(1,0,0,1,972,1115.9) translate(119.55 25.299999999999997)"/><use xlink:href="#D" transform="matrix(1,0,0,1,972,1115.9) translate(107.1 46.9)"/><path d="M1540 860h360v264h-360z" stroke="#333" stroke-width="2" fill="#fff"/><path d="M1540 897.6h360m-360 145.5h360" stroke="#333" stroke-width="2" fill="none"/><use xlink:href="#E" transform="matrix(1,0,0,1,1548,868) translate(147.55 14.6)"/><use xlink:href="#v" transform="matrix(1,0,0,1,1552,905.6) translate(115.6 25.39999999999999)"/><use xlink:href="#y" transform="matrix(1,0,0,1,1552,905.6) translate(109.05 46.99999999999999)"/><use xlink:href="#F" transform="matrix(1,0,0,1,1552,905.6) translate(113.07499999999999 68.6)"/><use xlink:href="#l" transform="matrix(1,0,0,1,1552,905.6) translate(97.60000000000001 90.20000000000002)"/><use xlink:href="#G" transform="matrix(1,0,0,1,1552,905.6) translate(102.1 111.80000000000001)"/><use xlink:href="#k" transform="matrix(1,0,0,1,1552,1051.1) translate(105.6 25.299999999999997)"/><use xlink:href="#n" transform="matrix(1,0,0,1,1552,1051.1) translate(104.44999999999999 46.9)"/><path d="M1128.03 789.5l3.2.42 3 1.24 2.6 2 2 2.6 1.25 3 .42 3.2v56.54h-1v-56.47l-.4-3-1.14-2.77-1.83-2.4-2.4-1.82-2.75-1.14-3-.4H701.2v-1zm-707.13-8.52l1.14 2.76 1.83 2.4 2.4 1.82 2.75 1.14 3 .4H596.2v1H431.97l-3.2-.42-3-1.24-2.6-2-2-2.6-1.25-3-.42-3.2v-61.46h1v61.4zm-.4-86h-1v-74.6h1zM1140.5 859h-1v-.5h1zM424.64 619.88h-9.28l4.64-14.26z" fill="#333"/><path d="M425.32 620.38h-10.64L420 604zm-9.27-1h7.9L420 607.24z" fill="#333"/><use xlink:href="#H" transform="matrix(1,0,0,1,596.2022606119184,779.2) translate(0.005000000000002558 14.4)"/><use xlink:href="#I" transform="matrix(1,0,0,1,416.5,694.9790389988538) translate(0.004999999999999893 14.4)"/><path d="M1708.03 699.5l3.2.42 3 1.24 2.6 2 2 2.6 1.25 3 .42 3.2V858.5h-1V712.03l-.4-3-1.14-2.77-1.83-2.4-2.4-1.82-2.75-1.14-3-.4h-516v-1zm-1211.2-8.52l1.14 2.76 1.83 2.4 2.4 1.82 2.75 1.14 3.02.4h579v1H507.9l-3.2-.42-3-1.24-2.6-2-2-2.6-1.25-3-.42-3.2v-67.66h1v67.6zM1720.5 859h-1v-.5h1zM500.57 619.88h-9.27l4.63-14.26z" fill="#333"/><path d="M501.26 620.38H490.6l5.33-16.38zm-9.27-1h7.88l-3.95-12.14z" fill="#333"/><use xlink:href="#H" transform="matrix(1,0,0,1,1086.9666732791113,689.2) translate(0.005000000000002558 14.4)"/><path d="M1321.5 883.1h201.12" stroke="#333" fill="none"/><path d="M1321.5 883.6h-.5v-1h.5z" fill="#333"/><path d="M1537.38 883.1l-14.26 4.62v-9.27z" stroke="#333" fill="#333"/><path d="M1538.5 914.83h-201.12" stroke="#333" fill="none"/><path d="M1539 915.33h-.5v-1h.5z" fill="#333"/><path d="M1322.62 914.83l14.26-4.64v9.26z" stroke="#333" fill="#333"/><path d="M1200.4 775.76l1.24 3 .42 3.2v76.54h-1v-76.47l-.4-3-.47-1.15v-2.4zm-429.98-14.78l1.14 2.76 1.84 2.4 2.4 1.82 2.74 1.14 3.02.4h338.63v1H781.5l-3.22-.42-3-1.24-2.6-2-2-2.6-1.23-3-.42-3.2v-97.66h1v97.6zM1202.06 859h-1v-.5h1zM774.16 659.88h-9.27l4.63-14.26z" fill="#333"/><path d="M774.85 660.38H764.2l5.33-16.38zm-9.27-1h7.9l-3.95-12.14z" fill="#333"/><use xlink:href="#J" transform="matrix(1,0,0,1,1120.1943980969374,759.2) translate(0.005000000000002558 14.4)"/><path d="M400 603h240v60H400z" stroke="#000" stroke-opacity="0" stroke-width="2" fill="#fff" fill-opacity="0"/><use xlink:href="#I" transform="matrix(1,0,0,1,405,608) translate(111.5 28.6)"/><path d="M1783.54 751l3.2.42 3 1.24 2.6 2 2 2.6 1.25 3 .4 3.2v95.04h-1v-94.97l-.4-3-1.13-2.77-1.83-2.4-2.4-1.82-2.75-1.14-3.02-.4H1455.5v-1zm-747.14-8.52l1.15 2.76 1.83 2.4 2.4 1.82 2.75 1.14 3 .4h327.98v1H1047.5l-3.22-.42-3-1.24-2.6-2-2-2.6-1.23-3-.42-3.2v-79.16h1v79.1zM1796 859h-1v-.5h1zM1040.14 659.88h-9.27l4.64-14.26z" fill="#333"/><path d="M1040.83 660.38h-10.64l5.3-16.38zm-9.27-1h7.9l-3.95-12.14z" fill="#333"/><use xlink:href="#J" transform="matrix(1,0,0,1,1375.5088276135687,740.7) translate(0.005000000000002558 14.4)"/><path d="M1941.5 980.03l-.42 3.2-1.24 3-2 2.6-2.6 2-3 1.25-3.2.42h-27.54v-1h27.47l3-.4 2.77-1.14 2.4-1.83 1.82-2.4 1.14-2.75.4-3V489.9h1zm-607.93-652.06l.4 3 1.14 2.77 1.84 2.4 2.4 1.82 2.75 1.14 3 .4h583.93l3.2.42 3 1.24 2.6 2 2 2.6 1.25 3 .42 3.2v116.35h-1V352.04l-.4-3-1.14-2.77-1.83-2.4-2.4-1.82-2.75-1.14-3-.4h-583.94l-3.22-.42-3-1.24-2.6-2-2-2.6-1.23-3-.43-3.2v-11.66h1zM1901.5 992.5h-.5v-1h.5zM1337.7 315.88h-9.27l4.64-14.26z" fill="#333"/><path d="M1338.4 316.38h-10.65l5.32-16.38zm-9.28-1h7.9l-3.95-12.14z" fill="#333"/><use xlink:href="#J" transform="matrix(1,0,0,1,1901,468.3138682168997) translate(0.005000000000002558 14.4)"/><path d="M401.5 199.5h621.12" stroke="#333" fill="none"/><path d="M401.5 200h-.5v-1h.5z" fill="#333"/><path d="M1037.38 199.5l-14.26 4.64v-9.28z" stroke="#333" fill="#333"/><path d="M880 163h240v60H880z" stroke="#000" stroke-opacity="0" stroke-width="2" fill="#fff" fill-opacity="0"/><use xlink:href="#I" transform="matrix(1,0,0,1,885,168) translate(111.5 28.6)"/><path d="M960 1420h360v199H960z" stroke="#333" stroke-width="2" fill="#fff"/><path d="M960 1457.6h360m-360 102.3h360" stroke="#333" stroke-width="2" fill="none"/><use xlink:href="#K" transform="matrix(1,0,0,1,968,1428) translate(123.55 14.6)"/><use xlink:href="#L" transform="matrix(1,0,0,1,972,1465.6) translate(63.675000000000026 25.5)"/><use xlink:href="#M" transform="matrix(1,0,0,1,972,1465.6) translate(63.20000000000002 47.1)"/><use xlink:href="#N" transform="matrix(1,0,0,1,972,1465.6) translate(109.05 68.7)"/><path d="M1140.5 1402.62h-1v-99.97h1zm0-121.57h-1v-90.55h1zM1140.5 1190.5h-1v-.5h1zM1140 1417.38l-4.64-14.26h9.28z" fill="#333"/><path d="M1140 1419l-5.32-16.38h10.64zm-3.95-15.38l3.95 12.14 3.95-12.14z" fill="#333"/><use xlink:href="#J" transform="matrix(1,0,0,1,1100,1281.0521356502516) translate(0.005000000000002558 14.4)"/><path d="M1373.38 1272.5h-164.05l-3.02.4-2.74 1.14-2.4 1.83-1.82 2.4-1.15 2.75-.4 3v118.6h-1v-118.65l.42-3.2 1.24-3 2-2.6 2.6-2 3-1.25 3.2-.42h164.12zm347.12-12.47l-.42 3.2-1.24 3-2 2.6-2.6 2-3 1.25-3.2.42h-254.66v-1h254.6l3-.4 2.76-1.14 2.4-1.83 1.82-2.4 1.14-2.75.4-3V1125.5h1zM1720.5 1125.5h-1v-.5h1zM1197.3 1417.38l-4.64-14.26h9.27z" fill="#333"/><path d="M1197.3 1419l-5.33-16.38h10.65zm-3.95-15.38l3.95 12.14 3.95-12.14z" fill="#333"/><use xlink:href="#J" transform="matrix(1,0,0,1,1373.3750101714195,1261.2) translate(0.005000000000002558 14.4)"/><path d="M1349.03 389.5l3.2.42 3 1.24 2.6 2 2 2.6 1.25 3 .42 3.2v610.57l-.42 3.2-1.24 3-2 2.6-2.6 2-3 1.25-3.2.42h-27.54v-1h27.47l3-.4 2.77-1.14 2.4-1.83 1.82-2.4 1.14-2.75.4-3V402.02l-.4-3-1.14-2.77-1.83-2.4-2.4-1.82-2.75-1.14-3-.4h-41.37v-1zm-128.53-11.53l.4 3 1.14 2.77 1.83 2.4 2.4 1.82 1.34.56v1.08l-1.84-.76-2.6-2-2-2.6-1.24-3-.42-3.2v-61.66h1z" fill="#333"/><path d="M1321.5 1025h-.5v-1h.5zM1224.64 315.88h-9.28l4.64-14.26z" fill="#333"/><path d="M1225.32 316.38h-10.64L1220 300zm-9.27-1h7.9l-3.95-12.14z" fill="#333"/><use xlink:href="#J" transform="matrix(1,0,0,1,1227.605633802817,379.2) translate(0.005000000000002558 14.4)"/><path d="M1740 1300h360v242h-360z" stroke="#333" stroke-width="2" fill="#fff"/><path d="M1740 1337.6h360m-360 145.5h360" stroke="#333" stroke-width="2" fill="none"/><use xlink:href="#O" transform="matrix(1,0,0,1,1748,1308) translate(149.025 14.6)"/><use xlink:href="#P" transform="matrix(1,0,0,1,1752,1345.6) translate(116.07499999999999 25.39999999999999)"/><use xlink:href="#Q" transform="matrix(1,0,0,1,1752,1345.6) translate(81.12500000000001 46.99999999999999)"/><use xlink:href="#R" transform="matrix(1,0,0,1,1752,1345.6) translate(98.175 68.6)"/><use xlink:href="#S" transform="matrix(1,0,0,1,1752,1345.6) translate(110.57499999999999 90.20000000000002)"/><use xlink:href="#T" transform="matrix(1,0,0,1,1752,1345.6) translate(88.57500000000002 111.80000000000001)"/><path d="M1809.6 1212.04v86.46h-1V1208.74h1zm.06-70.66l-.04 45.75h-1l.04-45.75zM1809.6 1299h-1v-.5h1zM1813.8 1140.88h-9.27l4.63-14.26z" fill="#333"/><path d="M1814.5 1141.38h-10.66l5.32-16.38zm-9.28-1h7.9l-3.96-12.14z" fill="#333"/><use xlink:href="#J" transform="matrix(1,0,0,1,1769.164848244396,1187.1256877207175) translate(0.005000000000002558 14.4)"/><path d="M1722.62 1421.5h-11.6l-3 .4-2.76 1.14-2.4 1.83-1.82 2.4-1.14 2.75-.4 3v27l-.42 3.22-1.24 3-2 2.6-2.6 2-3 1.24-3.2.42h-145.07l-3.2-.42-3-1.24-2.6-2-2-2.6-1.25-3-.42-3.2v-17.25h1v17.17l.4 3 1.14 2.77 1.83 2.4 2.4 1.82 2.75 1.14 3 .4h144.95l3-.4 2.77-1.14 2.4-1.83 1.82-2.4 1.14-2.75.4-3v-27l.42-3.22 1.24-3 2-2.6 2.6-2 3-1.24 3.2-.42h11.66zm-389.38-340.44l3 1.24 2.6 2 2 2.6 1.24 3 .42 3.2v94.87l.4 3 1.14 2.77 1.83 2.4 2.4 1.82 2.75 1.14 3 .4h164l3.22.42 3 1.24 2.6 2 2 2.6 1.24 3 .42 3.2v209.23h-1v-209.17l-.4-3-1.14-2.77-1.83-2.4-2.4-1.82-2.75-1.14-3-.4h-164l-3.22-.42-3-1.24-2.6-2-2-2.6-1.24-3-.42-3.2v-94.87l-.4-3.02-1.14-2.75-1.83-2.4-2.4-1.83-2.75-1.14-3-.4h-8.48v-1h8.53z" fill="#333"/><path d="M1321.5 1081.63h-.5v-1h.5zM1737.38 1421l-14.26 4.64v-9.28z" fill="#333"/><path d="M1739 1421l-16.38 5.32v-10.64zm-15.38 3.95l12.14-3.95-12.14-3.95z" fill="#333"/><use xlink:href="#J" transform="matrix(1,0,0,1,1490,1421.1936752354393) translate(0.005000000000002558 14.4)"/><path d="M2080 401h360v177h-360z" stroke="#333" stroke-width="2" fill="#fff"/><path d="M2080 438.6h360m-360 80.7h360" stroke="#333" stroke-width="2" fill="none"/><use xlink:href="#U" transform="matrix(1,0,0,1,2088,409) translate(128.525 14.6)"/><use xlink:href="#m" transform="matrix(1,0,0,1,2092,446.6) translate(102.1 25.299999999999997)"/><use xlink:href="#V" transform="matrix(1,0,0,1,2092,446.6) translate(127.55 46.9)"/><path d="M2080 860h360v177h-360z" stroke="#333" stroke-width="2" fill="#fff"/><path d="M2080 897.6h360m-360 80.7h360" stroke="#333" stroke-width="2" fill="none"/><use xlink:href="#W" transform="matrix(1,0,0,1,2088,868) translate(139.575 14.6)"/><use xlink:href="#X" transform="matrix(1,0,0,1,2092,905.6) translate(120.14999999999999 25.299999999999997)"/><use xlink:href="#Y" transform="matrix(1,0,0,1,2092,905.6) translate(132.075 46.9)"/><path d="M2000.5 1266.03l-.42 3.2-1.24 3-2 2.6-2.6 2-3 1.25-3.2.42h-56l-3.02.4-2.76 1.14-2.4 1.83-1.82 2.4-1.14 2.75-.4 3v8.48h-1v-8.53l.42-3.2 1.24-3 2-2.6 2.6-2 3-1.25 3.2-.42h56l3.02-.4 2.76-1.14 2.4-1.83 1.82-2.4 1.14-2.75.4-3V1113.7h1zm0-173.93h-1V814.2h1zm62.12-602.1h-50.6l-3 .4-2.76 1.14-2.4 1.83-1.82 2.4-1.14 2.75-.4 3v291.1h-1V501.46l.42-3.2 1.24-3 2-2.6 2.6-2 3-1.25 3.2-.42h50.66z" fill="#333"/><path d="M1920.5 1299h-1v-.5h1zM2077.38 489.5l-14.26 4.64v-9.28z" fill="#333"/><path d="M2079 489.5l-16.38 5.32v-10.64zm-15.38 3.95l12.14-3.95-12.14-3.95z" fill="#333"/><g><use xlink:href="#J" transform="matrix(1,0,0,1,1960,792.6120214243206) translate(0.005000000000002558 14.4)"/></g><path d="M2240 1360.5h160v121h-160z" stroke="#333" stroke-width="2" fill="#fff"/><g><use xlink:href="#Z" transform="matrix(1,0,0,1,2248,1368.5) translate(43.525 56.1)"/></g><path d="M2118.3 1421.5h-16.8v-1h16.8zm104.32 0h-24.32v-1h24.32zM2101.5 1421.5h-.5v-1h.5zM2237.38 1421l-14.26 4.64v-9.28z" fill="#333"/><path d="M2239 1421l-16.38 5.32v-10.64zm-15.38 3.95l12.14-3.95-12.14-3.95z" fill="#333"/><g><use xlink:href="#J" transform="matrix(1,0,0,1,2118.3019242213845,1410.2) translate(0.005000000000002558 14.4)"/></g><path d="M2240 1560h160v121h-160z" stroke="#333" stroke-width="2" fill="#fff"/><g><use xlink:href="#aa" transform="matrix(1,0,0,1,2248,1568) translate(1.5999999999999943 56.1)"/></g><path d="M2200 1619h240v60h-240z" stroke="#000" stroke-opacity="0" stroke-width="2" fill="#fff" fill-opacity="0"/><g><use xlink:href="#ab" transform="matrix(1,0,0,1,2205,1624) translate(85.025 28.6)"/></g><path d="M2170.5 1608.47l.4 3 1.14 2.77 1.83 2.4 2.4 1.82 2.75 1.14 3 .4h40.6v1h-40.65l-3.2-.42-3-1.24-2.6-2-2-2.6-1.25-3-.42-3.2v-56.48h1zm-9.26-146.54l3 1.25 2.6 2 2 2.6 1.24 3 .42 3.2v56.48h-1v-56.42l-.4-3-1.14-2.77-1.83-2.4-2.4-1.82-2.75-1.14-3-.4h-56.48v-1h56.53z" fill="#333"/><path d="M2101.5 1462.5h-.5v-1h.5zM2237.38 1620.5l-14.26 4.64v-9.28z" fill="#333"/><path d="M2239 1620.5l-16.38 5.32v-10.64zm-15.38 3.95l12.14-3.95-12.14-3.95z" fill="#333"/><g><use xlink:href="#J" transform="matrix(1,0,0,1,2130,1530.4557528268201) translate(0.005000000000002558 14.4)"/></g><path d="M2037.8 1282.62h-1V1113.7h1zM2078.5 949h-29.17l-3.02.4-2.75 1.14-2.38 1.83-1.84 2.4-1.14 2.75-.4 3v131.58h-1V960.47l.4-3.2 1.26-3 2-2.6 2.6-2 3-1.25 3.2-.42h29.24zM2079 949h-.5v-1h.5zM2037.3 1297.38l-4.64-14.26h9.27z" fill="#333"/><path d="M2037.3 1299l-5.33-16.38h10.65zm-3.95-15.38l3.94 12.14 3.94-12.14z" fill="#333"/><g><use xlink:href="#J" transform="matrix(1,0,0,1,1997.2941876611783,1092.0970938305893) translate(0.005000000000002558 14.4)"/></g><path d="M2020 98h360v177h-360z" stroke="#333" stroke-width="2" fill="#fff"/><path d="M2020 135.6h360m-360 80.7h360" stroke="#333" stroke-width="2" fill="none"/><g><use xlink:href="#ac" transform="matrix(1,0,0,1,2028,106) translate(124.1 14.6)"/></g><g><use xlink:href="#X" transform="matrix(1,0,0,1,2032,143.6) translate(120.14999999999999 25.299999999999997)"/><use xlink:href="#ad" transform="matrix(1,0,0,1,2032,143.6) translate(128.625 46.9)"/></g><g><use xlink:href="#ae" transform="matrix(1,0,0,1,2032,224.3) translate(55.70000000000002 25.6)"/></g><path d="M2018.5 186.5h-601.12" stroke="#333" fill="none"/><path d="M2019 187h-.5v-1h.5z" fill="#333"/><path d="M1402.62 186.5l14.26-4.64v9.28z" stroke="#333" fill="#333"/><defs><path fill="#333" d="M30 0v-248h33v221h125V0H30" id="af"/><path fill="#333" d="M100-194c62-1 85 37 85 99 1 63-27 99-86 99S16-35 15-95c0-66 28-99 85-99zM99-20c44 1 53-31 53-75 0-43-8-75-51-75s-53 32-53 75 10 74 51 75" id="ag"/><path fill="#333" d="M177-190C167-65 218 103 67 71c-23-6-38-20-44-43l32-5c15 47 100 32 89-28v-30C133-14 115 1 83 1 29 1 15-40 15-95c0-56 16-97 71-98 29-1 48 16 59 35 1-10 0-23 2-32h30zM94-22c36 0 50-32 50-73 0-42-14-75-50-75-39 0-46 34-46 75s6 73 46 73" id="ah"/><path fill="#333" d="M24-231v-30h32v30H24zM24 0v-190h32V0H24" id="ai"/><path fill="#333" d="M117-194c89-4 53 116 60 194h-32v-121c0-31-8-49-39-48C34-167 62-67 57 0H25l-1-190h30c1 10-1 24 2 32 11-22 29-35 61-36" id="aj"/><g id="a"><use transform="matrix(0.05,0,0,0.05,0,0)" xlink:href="#af"/><use transform="matrix(0.05,0,0,0.05,10,0)" xlink:href="#ag"/><use transform="matrix(0.05,0,0,0.05,20,0)" xlink:href="#ah"/><use transform="matrix(0.05,0,0,0.05,30,0)" xlink:href="#ai"/><use transform="matrix(0.05,0,0,0.05,33.95,0)" xlink:href="#aj"/></g><path fill="#333" d="M135-143c-3-34-86-38-87 0 15 53 115 12 119 90S17 21 10-45l28-5c4 36 97 45 98 0-10-56-113-15-118-90-4-57 82-63 122-42 12 7 21 19 24 35" id="ak"/><path fill="#333" d="M106-169C34-169 62-67 57 0H25v-261h32l-1 103c12-21 28-36 61-36 89 0 53 116 60 194h-32v-121c2-32-8-49-39-48" id="al"/><path fill="#333" d="M206 0h-36l-40-164L89 0H53L-1-190h32L70-26l43-164h34l41 164 42-164h31" id="am"/><path fill="#333" d="M232-93c-1 65-40 97-104 97C67 4 28-28 28-90v-158h33c8 89-33 224 67 224 102 0 64-133 71-224h33v155" id="an"/><path fill="#333" d="M100-194c63 0 86 42 84 106H49c0 40 14 67 53 68 26 1 43-12 49-29l28 8c-11 28-37 45-77 45C44 4 14-33 15-96c1-61 26-98 85-98zm52 81c6-60-76-77-97-28-3 7-6 17-6 28h103" id="ao"/><path fill="#333" d="M114-163C36-179 61-72 57 0H25l-1-190h30c1 12-1 29 2 39 6-27 23-49 58-41v29" id="ap"/><path fill="#333" d="M190 0L58-211 59 0H30v-248h39L202-35l-2-213h31V0h-41" id="aq"/><path fill="#333" d="M141-36C126-15 110 5 73 4 37 3 15-17 15-53c-1-64 63-63 125-63 3-35-9-54-41-54-24 1-41 7-42 31l-33-3c5-37 33-52 76-52 45 0 72 20 72 64v82c-1 20 7 32 28 27v20c-31 9-61-2-59-35zM48-53c0 20 12 33 32 33 41-3 63-29 60-74-43 2-92-5-92 41" id="ar"/><path fill="#333" d="M210-169c-67 3-38 105-44 169h-31v-121c0-29-5-50-35-48C34-165 62-65 56 0H25l-1-190h30c1 10-1 24 2 32 10-44 99-50 107 0 11-21 27-35 58-36 85-2 47 119 55 194h-31v-121c0-29-5-49-35-48" id="as"/><path fill="#333" d="M63-220v92h138v28H63V0H30v-248h175v28H63" id="at"/><path fill="#333" d="M24 0v-261h32V0H24" id="au"/><path fill="#333" d="M85-194c31 0 48 13 60 33l-1-100h32l1 261h-30c-2-10 0-23-3-31C134-8 116 4 85 4 32 4 16-35 15-94c0-66 23-100 70-100zm9 24c-40 0-46 34-46 75 0 40 6 74 45 74 42 0 51-32 51-76 0-42-9-74-50-73" id="av"/><path fill="#333" d="M87 75C49 33 22-17 22-94c0-76 28-126 65-167h31c-38 41-64 92-64 168S80 34 118 75H87" id="aw"/><path fill="#333" d="M33-261c38 41 65 92 65 168S71 34 33 75H2C39 34 66-17 66-93S39-220 2-261h31" id="ax"/><g id="b"><use transform="matrix(0.05,0,0,0.05,0,0)" xlink:href="#ak"/><use transform="matrix(0.05,0,0,0.05,9,0)" xlink:href="#al"/><use transform="matrix(0.05,0,0,0.05,19,0)" xlink:href="#ag"/><use transform="matrix(0.05,0,0,0.05,29,0)" xlink:href="#am"/><use transform="matrix(0.05,0,0,0.05,41.95,0)" xlink:href="#an"/><use transform="matrix(0.05,0,0,0.05,54.900000000000006,0)" xlink:href="#ak"/><use transform="matrix(0.05,0,0,0.05,63.900000000000006,0)" xlink:href="#ao"/><use transform="matrix(0.05,0,0,0.05,73.9,0)" xlink:href="#ap"/><use transform="matrix(0.05,0,0,0.05,79.85000000000001,0)" xlink:href="#aq"/><use transform="matrix(0.05,0,0,0.05,92.80000000000001,0)" xlink:href="#ar"/><use transform="matrix(0.05,0,0,0.05,102.80000000000001,0)" xlink:href="#as"/><use transform="matrix(0.05,0,0,0.05,117.75,0)" xlink:href="#ao"/><use transform="matrix(0.05,0,0,0.05,127.75,0)" xlink:href="#at"/><use transform="matrix(0.05,0,0,0.05,138.70000000000002,0)" xlink:href="#ai"/><use transform="matrix(0.05,0,0,0.05,142.65,0)" xlink:href="#ao"/><use transform="matrix(0.05,0,0,0.05,152.65,0)" xlink:href="#au"/><use transform="matrix(0.05,0,0,0.05,156.6,0)" xlink:href="#av"/><use transform="matrix(0.05,0,0,0.05,166.6,0)" xlink:href="#aw"/><use transform="matrix(0.05,0,0,0.05,172.54999999999998,0)" xlink:href="#ax"/></g><path fill="#333" d="M30-248c87 1 191-15 191 75 0 78-77 80-158 76V0H30v-248zm33 125c57 0 124 11 124-50 0-59-68-47-124-48v98" id="ay"/><g id="c"><use transform="matrix(0.05,0,0,0.05,0,0)" xlink:href="#ak"/><use transform="matrix(0.05,0,0,0.05,9,0)" xlink:href="#al"/><use transform="matrix(0.05,0,0,0.05,19,0)" xlink:href="#ag"/><use transform="matrix(0.05,0,0,0.05,29,0)" xlink:href="#am"/><use transform="matrix(0.05,0,0,0.05,41.95,0)" xlink:href="#ay"/><use transform="matrix(0.05,0,0,0.05,53.95,0)" xlink:href="#ar"/><use transform="matrix(0.05,0,0,0.05,63.95,0)" xlink:href="#ak"/><use transform="matrix(0.05,0,0,0.05,72.95,0)" xlink:href="#ak"/><use transform="matrix(0.05,0,0,0.05,81.95,0)" xlink:href="#am"/><use transform="matrix(0.05,0,0,0.05,94.9,0)" xlink:href="#ag"/><use transform="matrix(0.05,0,0,0.05,104.9,0)" xlink:href="#ap"/><use transform="matrix(0.05,0,0,0.05,110.85000000000001,0)" xlink:href="#av"/><use transform="matrix(0.05,0,0,0.05,120.85000000000001,0)" xlink:href="#at"/><use transform="matrix(0.05,0,0,0.05,131.8,0)" xlink:href="#ai"/><use transform="matrix(0.05,0,0,0.05,135.75,0)" xlink:href="#ao"/><use transform="matrix(0.05,0,0,0.05,145.75,0)" xlink:href="#au"/><use transform="matrix(0.05,0,0,0.05,149.7,0)" xlink:href="#av"/><use transform="matrix(0.05,0,0,0.05,159.7,0)" xlink:href="#aw"/><use transform="matrix(0.05,0,0,0.05,165.64999999999998,0)" xlink:href="#ax"/></g><g id="d"><use transform="matrix(0.05,0,0,0.05,0,0)" xlink:href="#af"/><use transform="matrix(0.05,0,0,0.05,10,0)" xlink:href="#ag"/><use transform="matrix(0.05,0,0,0.05,20,0)" xlink:href="#ah"/><use transform="matrix(0.05,0,0,0.05,30,0)" xlink:href="#ai"/><use transform="matrix(0.05,0,0,0.05,33.95,0)" xlink:href="#aj"/><use transform="matrix(0.05,0,0,0.05,43.95,0)" xlink:href="#aw"/><use transform="matrix(0.05,0,0,0.05,49.900000000000006,0)" xlink:href="#ax"/></g><path fill="#333" d="M212-179c-10-28-35-45-73-45-59 0-87 40-87 99 0 60 29 101 89 101 43 0 62-24 78-52l27 14C228-24 195 4 139 4 59 4 22-46 18-125c-6-104 99-153 187-111 19 9 31 26 39 46" id="az"/><path fill="#333" d="M96-169c-40 0-48 33-48 73s9 75 48 75c24 0 41-14 43-38l32 2c-6 37-31 61-74 61-59 0-76-41-82-99-10-93 101-131 147-64 4 7 5 14 7 22l-32 3c-4-21-16-35-41-35" id="aA"/><path fill="#333" d="M143 0L79-87 56-68V0H24v-261h32v163l83-92h37l-77 82L181 0h-38" id="aB"/><g id="e"><use transform="matrix(0.05,0,0,0.05,0,0)" xlink:href="#az"/><use transform="matrix(0.05,0,0,0.05,12.950000000000001,0)" xlink:href="#al"/><use transform="matrix(0.05,0,0,0.05,22.950000000000003,0)" xlink:href="#ao"/><use transform="matrix(0.05,0,0,0.05,32.95,0)" xlink:href="#aA"/><use transform="matrix(0.05,0,0,0.05,41.95,0)" xlink:href="#aB"/><use transform="matrix(0.05,0,0,0.05,50.95,0)" xlink:href="#ao"/><use transform="matrix(0.05,0,0,0.05,60.95,0)" xlink:href="#ap"/></g><path fill="#333" d="M108 0H70L1-190h34L89-25l56-165h34" id="aC"/><path fill="#333" d="M101-234c-31-9-42 10-38 44h38v23H63V0H32v-167H5v-23h27c-7-52 17-82 69-68v24" id="aD"/><path fill="#333" d="M179-190L93 31C79 59 56 82 12 73V49c39 6 53-20 64-50L1-190h34L92-34l54-156h33" id="aE"/><g id="f"><use transform="matrix(0.05,0,0,0.05,0,0)" xlink:href="#aC"/><use transform="matrix(0.05,0,0,0.05,9,0)" xlink:href="#ao"/><use transform="matrix(0.05,0,0,0.05,19,0)" xlink:href="#ap"/><use transform="matrix(0.05,0,0,0.05,24.95,0)" xlink:href="#ai"/><use transform="matrix(0.05,0,0,0.05,28.899999999999995,0)" xlink:href="#aD"/><use transform="matrix(0.05,0,0,0.05,33.9,0)" xlink:href="#aE"/><use transform="matrix(0.05,0,0,0.05,42.9,0)" xlink:href="#af"/><use transform="matrix(0.05,0,0,0.05,52.900000000000006,0)" xlink:href="#ag"/><use transform="matrix(0.05,0,0,0.05,62.900000000000006,0)" xlink:href="#ah"/><use transform="matrix(0.05,0,0,0.05,72.9,0)" xlink:href="#ai"/><use transform="matrix(0.05,0,0,0.05,76.85000000000001,0)" xlink:href="#aj"/><use transform="matrix(0.05,0,0,0.05,86.85000000000001,0)" xlink:href="#aw"/><use transform="matrix(0.05,0,0,0.05,92.80000000000001,0)" xlink:href="#ax"/></g><path fill="#333" d="M233-177c-1 41-23 64-60 70L243 0h-38l-65-103H63V0H30v-248c88 3 205-21 203 71zM63-129c60-2 137 13 137-47 0-61-80-42-137-45v92" id="aF"/><path fill="#333" d="M59-47c-2 24 18 29 38 22v24C64 9 27 4 27-40v-127H5v-23h24l9-43h21v43h35v23H59v120" id="aG"/><g id="g"><use transform="matrix(0.05,0,0,0.05,0,0)" xlink:href="#aC"/><use transform="matrix(0.05,0,0,0.05,9,0)" xlink:href="#ao"/><use transform="matrix(0.05,0,0,0.05,19,0)" xlink:href="#ap"/><use transform="matrix(0.05,0,0,0.05,24.95,0)" xlink:href="#ai"/><use transform="matrix(0.05,0,0,0.05,28.899999999999995,0)" xlink:href="#aD"/><use transform="matrix(0.05,0,0,0.05,33.9,0)" xlink:href="#aE"/><use transform="matrix(0.05,0,0,0.05,42.9,0)" xlink:href="#aF"/><use transform="matrix(0.05,0,0,0.05,55.85,0)" xlink:href="#ao"/><use transform="matrix(0.05,0,0,0.05,65.85,0)" xlink:href="#ah"/><use transform="matrix(0.05,0,0,0.05,75.85,0)" xlink:href="#ai"/><use transform="matrix(0.05,0,0,0.05,79.8,0)" xlink:href="#ak"/><use transform="matrix(0.05,0,0,0.05,88.8,0)" xlink:href="#aG"/><use transform="matrix(0.05,0,0,0.05,93.8,0)" xlink:href="#ap"/><use transform="matrix(0.05,0,0,0.05,99.75,0)" xlink:href="#ar"/><use transform="matrix(0.05,0,0,0.05,109.75,0)" xlink:href="#aG"/><use transform="matrix(0.05,0,0,0.05,114.75,0)" xlink:href="#ai"/><use transform="matrix(0.05,0,0,0.05,118.7,0)" xlink:href="#ag"/><use transform="matrix(0.05,0,0,0.05,128.7,0)" xlink:href="#aj"/><use transform="matrix(0.05,0,0,0.05,138.7,0)" xlink:href="#aw"/><use transform="matrix(0.05,0,0,0.05,144.64999999999998,0)" xlink:href="#ax"/></g><path fill="#333" d="M33 0v-248h34V0H33" id="aH"/><g id="h"><use transform="matrix(0.05,0,0,0.05,0,0)" xlink:href="#ak"/><use transform="matrix(0.05,0,0,0.05,9,0)" xlink:href="#ao"/><use transform="matrix(0.05,0,0,0.05,19,0)" xlink:href="#aj"/><use transform="matrix(0.05,0,0,0.05,29,0)" xlink:href="#av"/><use transform="matrix(0.05,0,0,0.05,39,0)" xlink:href="#an"/><use transform="matrix(0.05,0,0,0.05,51.95,0)" xlink:href="#ak"/><use transform="matrix(0.05,0,0,0.05,60.95,0)" xlink:href="#ao"/><use transform="matrix(0.05,0,0,0.05,70.95,0)" xlink:href="#ap"/><use transform="matrix(0.05,0,0,0.05,76.9,0)" xlink:href="#aH"/><use transform="matrix(0.05,0,0,0.05,81.9,0)" xlink:href="#aj"/><use transform="matrix(0.05,0,0,0.05,91.9,0)" xlink:href="#aD"/><use transform="matrix(0.05,0,0,0.05,96.9,0)" xlink:href="#ag"/><use transform="matrix(0.05,0,0,0.05,106.9,0)" xlink:href="#aw"/><use transform="matrix(0.05,0,0,0.05,112.85000000000001,0)" xlink:href="#ax"/></g><path d="M15-91v-56l181-69v40L49-119l147 57v40" id="aI"/><path d="M25-224v-37h50v37H25zM25 0v-190h50V0H25" id="aJ"/><path d="M135-194c87-1 58 113 63 194h-50c-7-57 23-157-34-157-59 0-34 97-39 157H25l-1-190h47c2 12-1 28 3 38 12-26 28-41 61-42" id="aK"/><path d="M115-3C79 11 28 4 28-45v-112H4v-33h27l15-45h31v45h36v33H77v99c-1 23 16 31 38 25v30" id="aL"/><path d="M185-48c-13 30-37 53-82 52C43 2 14-33 14-96s30-98 90-98c62 0 83 45 84 108H66c0 31 8 55 39 56 18 0 30-7 34-22zm-45-69c5-46-57-63-70-21-2 6-4 13-4 21h74" id="aM"/><path d="M135-150c-39-12-60 13-60 57V0H25l-1-190h47c2 13-1 29 3 40 6-28 27-53 61-41v41" id="aN"/><path d="M121-226c-27-7-43 5-38 36h38v33H83V0H34v-157H6v-33h28c-9-59 32-81 87-68v32" id="aO"/><path d="M133-34C117-15 103 5 69 4 32 3 11-16 11-54c-1-60 55-63 116-61 1-26-3-47-28-47-18 1-26 9-28 27l-52-2c7-38 36-58 82-57s74 22 75 68l1 82c-1 14 12 18 25 15v27c-30 8-71 5-69-32zm-48 3c29 0 43-24 42-57-32 0-66-3-65 30 0 17 8 27 23 27" id="aP"/><path d="M190-63c-7 42-38 67-86 67-59 0-84-38-90-98-12-110 154-137 174-36l-49 2c-2-19-15-32-35-32-30 0-35 28-38 64-6 74 65 87 74 30" id="aQ"/><path d="M15-22v-40l146-57-146-57v-40l181 69v56" id="aR"/><g id="i"><use transform="matrix(0.05,0,0,0.05,0,0)" xlink:href="#aI"/><use transform="matrix(0.05,0,0,0.05,10.5,0)" xlink:href="#aI"/><use transform="matrix(0.05,0,0,0.05,21,0)" xlink:href="#aJ"/><use transform="matrix(0.05,0,0,0.05,26,0)" xlink:href="#aK"/><use transform="matrix(0.05,0,0,0.05,36.95,0)" xlink:href="#aL"/><use transform="matrix(0.05,0,0,0.05,42.900000000000006,0)" xlink:href="#aM"/><use transform="matrix(0.05,0,0,0.05,52.900000000000006,0)" xlink:href="#aN"/><use transform="matrix(0.05,0,0,0.05,59.900000000000006,0)" xlink:href="#aO"/><use transform="matrix(0.05,0,0,0.05,65.85000000000001,0)" xlink:href="#aP"/><use transform="matrix(0.05,0,0,0.05,75.85000000000001,0)" xlink:href="#aQ"/><use transform="matrix(0.05,0,0,0.05,85.85000000000001,0)" xlink:href="#aM"/><use transform="matrix(0.05,0,0,0.05,95.85000000000001,0)" xlink:href="#aR"/><use transform="matrix(0.05,0,0,0.05,106.35000000000001,0)" xlink:href="#aR"/></g><path d="M24 0v-248h52v208h133V0H24" id="aS"/><path d="M110-194c64 0 96 36 96 99 0 64-35 99-97 99-61 0-95-36-95-99 0-62 34-99 96-99zm-1 164c35 0 45-28 45-65 0-40-10-65-43-65-34 0-45 26-45 65 0 36 10 65 43 65" id="aT"/><g id="j"><use transform="matrix(0.05,0,0,0.05,0,0)" xlink:href="#aS"/><use transform="matrix(0.05,0,0,0.05,10.950000000000001,0)" xlink:href="#aT"/><use transform="matrix(0.05,0,0,0.05,21.900000000000002,0)" xlink:href="#aQ"/><use transform="matrix(0.05,0,0,0.05,31.900000000000002,0)" xlink:href="#aP"/><use transform="matrix(0.05,0,0,0.05,41.900000000000006,0)" xlink:href="#aL"/><use transform="matrix(0.05,0,0,0.05,47.85000000000001,0)" xlink:href="#aJ"/><use transform="matrix(0.05,0,0,0.05,52.85,0)" xlink:href="#aT"/><use transform="matrix(0.05,0,0,0.05,63.80000000000001,0)" xlink:href="#aK"/></g><g id="k"><use transform="matrix(0.05,0,0,0.05,0,0)" xlink:href="#ak"/><use transform="matrix(0.05,0,0,0.05,9,0)" xlink:href="#al"/><use transform="matrix(0.05,0,0,0.05,19,0)" xlink:href="#ar"/><use transform="matrix(0.05,0,0,0.05,29,0)" xlink:href="#ap"/><use transform="matrix(0.05,0,0,0.05,34.95,0)" xlink:href="#ao"/><use transform="matrix(0.05,0,0,0.05,44.95,0)" xlink:href="#af"/><use transform="matrix(0.05,0,0,0.05,54.95,0)" xlink:href="#ag"/><use transform="matrix(0.05,0,0,0.05,64.95,0)" xlink:href="#aA"/><use transform="matrix(0.05,0,0,0.05,73.95,0)" xlink:href="#ar"/><use transform="matrix(0.05,0,0,0.05,83.95,0)" xlink:href="#aG"/><use transform="matrix(0.05,0,0,0.05,88.95,0)" xlink:href="#ai"/><use transform="matrix(0.05,0,0,0.05,92.9,0)" xlink:href="#ag"/><use transform="matrix(0.05,0,0,0.05,102.9,0)" xlink:href="#aj"/><use transform="matrix(0.05,0,0,0.05,112.9,0)" xlink:href="#aw"/><use transform="matrix(0.05,0,0,0.05,118.85000000000001,0)" xlink:href="#ax"/></g><path fill="#333" d="M240 0l2-218c-23 76-54 145-80 218h-23L58-218 59 0H30v-248h44l77 211c21-75 51-140 76-211h43V0h-30" id="aU"/><path fill="#333" d="M84 4C-5 8 30-112 23-190h32v120c0 31 7 50 39 49 72-2 45-101 50-169h31l1 190h-30c-1-10 1-25-2-33-11 22-28 36-60 37" id="aV"/><path fill="#333" d="M115-194c55 1 70 41 70 98S169 2 115 4C84 4 66-9 55-30l1 105H24l-1-265h31l2 30c10-21 28-34 59-34zm-8 174c40 0 45-34 45-75s-6-73-45-74c-42 0-51 32-51 76 0 43 10 73 51 73" id="aW"/><g id="l"><use transform="matrix(0.05,0,0,0.05,0,0)" xlink:href="#ak"/><use transform="matrix(0.05,0,0,0.05,9,0)" xlink:href="#ao"/><use transform="matrix(0.05,0,0,0.05,19,0)" xlink:href="#aG"/><use transform="matrix(0.05,0,0,0.05,24,0)" xlink:href="#aU"/><use transform="matrix(0.05,0,0,0.05,38.95,0)" xlink:href="#ao"/><use transform="matrix(0.05,0,0,0.05,48.95,0)" xlink:href="#ao"/><use transform="matrix(0.05,0,0,0.05,58.95,0)" xlink:href="#aG"/><use transform="matrix(0.05,0,0,0.05,63.95,0)" xlink:href="#aV"/><use transform="matrix(0.05,0,0,0.05,73.95,0)" xlink:href="#aW"/><use transform="matrix(0.05,0,0,0.05,83.95,0)" xlink:href="#ay"/><use transform="matrix(0.05,0,0,0.05,95.95,0)" xlink:href="#au"/><use transform="matrix(0.05,0,0,0.05,99.9,0)" xlink:href="#ar"/><use transform="matrix(0.05,0,0,0.05,109.9,0)" xlink:href="#aA"/><use transform="matrix(0.05,0,0,0.05,118.9,0)" xlink:href="#ao"/><use transform="matrix(0.05,0,0,0.05,128.9,0)" xlink:href="#aw"/><use transform="matrix(0.05,0,0,0.05,134.85,0)" xlink:href="#ax"/></g><path fill="#333" d="M205 0l-28-72H64L36 0H1l101-248h38L239 0h-34zm-38-99l-47-123c-12 45-31 82-46 123h93" id="aX"/><g id="m"><use transform="matrix(0.05,0,0,0.05,0,0)" xlink:href="#ak"/><use transform="matrix(0.05,0,0,0.05,9,0)" xlink:href="#ao"/><use transform="matrix(0.05,0,0,0.05,19,0)" xlink:href="#aG"/><use transform="matrix(0.05,0,0,0.05,24,0)" xlink:href="#aX"/><use transform="matrix(0.05,0,0,0.05,36,0)" xlink:href="#aW"/><use transform="matrix(0.05,0,0,0.05,46,0)" xlink:href="#aW"/><use transform="matrix(0.05,0,0,0.05,56,0)" xlink:href="#ag"/><use transform="matrix(0.05,0,0,0.05,66,0)" xlink:href="#ai"/><use transform="matrix(0.05,0,0,0.05,69.95,0)" xlink:href="#aj"/><use transform="matrix(0.05,0,0,0.05,79.95,0)" xlink:href="#as"/><use transform="matrix(0.05,0,0,0.05,94.9,0)" xlink:href="#ao"/><use transform="matrix(0.05,0,0,0.05,104.9,0)" xlink:href="#aj"/><use transform="matrix(0.05,0,0,0.05,114.9,0)" xlink:href="#aG"/><use transform="matrix(0.05,0,0,0.05,119.9,0)" xlink:href="#aw"/><use transform="matrix(0.05,0,0,0.05,125.85000000000001,0)" xlink:href="#ax"/></g><path fill="#333" d="M127-220V0H93v-220H8v-28h204v28h-85" id="aY"/><g id="n"><use transform="matrix(0.05,0,0,0.05,0,0)" xlink:href="#aV"/><use transform="matrix(0.05,0,0,0.05,10,0)" xlink:href="#aW"/><use transform="matrix(0.05,0,0,0.05,20,0)" xlink:href="#av"/><use transform="matrix(0.05,0,0,0.05,30,0)" xlink:href="#ar"/><use transform="matrix(0.05,0,0,0.05,40,0)" xlink:href="#aG"/><use transform="matrix(0.05,0,0,0.05,45,0)" xlink:href="#ao"/><use transform="matrix(0.05,0,0,0.05,55,0)" xlink:href="#aY"/><use transform="matrix(0.05,0,0,0.05,65.3,0)" xlink:href="#ap"/><use transform="matrix(0.05,0,0,0.05,71.25,0)" xlink:href="#ar"/><use transform="matrix(0.05,0,0,0.05,81.25,0)" xlink:href="#aA"/><use transform="matrix(0.05,0,0,0.05,90.25,0)" xlink:href="#aB"/><use transform="matrix(0.05,0,0,0.05,99.25,0)" xlink:href="#ao"/><use transform="matrix(0.05,0,0,0.05,109.25,0)" xlink:href="#ap"/><use transform="matrix(0.05,0,0,0.05,115.2,0)" xlink:href="#aw"/><use transform="matrix(0.05,0,0,0.05,121.15,0)" xlink:href="#ax"/></g><path d="M25 0v-261h50V0H25" id="aZ"/><path d="M137-138c1-29-70-34-71-4 15 46 118 7 119 86 1 83-164 76-172 9l43-7c4 19 20 25 44 25 33 8 57-30 24-41C81-84 22-81 20-136c-2-80 154-74 161-7" id="ba"/><g id="o"><use transform="matrix(0.05,0,0,0.05,0,0)" xlink:href="#aI"/><use transform="matrix(0.05,0,0,0.05,10.5,0)" xlink:href="#aI"/><use transform="matrix(0.05,0,0,0.05,21,0)" xlink:href="#aQ"/><use transform="matrix(0.05,0,0,0.05,31,0)" xlink:href="#aZ"/><use transform="matrix(0.05,0,0,0.05,36,0)" xlink:href="#aP"/><use transform="matrix(0.05,0,0,0.05,46,0)" xlink:href="#ba"/><use transform="matrix(0.05,0,0,0.05,56,0)" xlink:href="#ba"/><use transform="matrix(0.05,0,0,0.05,66,0)" xlink:href="#aR"/><use transform="matrix(0.05,0,0,0.05,76.5,0)" xlink:href="#aR"/></g><path d="M169-182c-1-43-94-46-97-3 18 66 151 10 154 114 3 95-165 93-204 36-6-8-10-19-12-30l50-8c3 46 112 56 116 5-17-69-150-10-154-114-4-87 153-88 188-35 5 8 8 18 10 28" id="bb"/><path d="M85 4C-2 5 27-109 22-190h50c7 57-23 150 33 157 60-5 35-97 40-157h50l1 190h-47c-2-12 1-28-3-38-12 25-28 42-61 42" id="bc"/><path d="M128 0H69L1-190h53L99-40l48-150h52" id="bd"/><path d="M123 10C108 53 80 86 19 72V37c35 8 53-11 59-39L3-190h52l48 148c12-52 28-100 44-148h51" id="be"/><g id="p"><use transform="matrix(0.05,0,0,0.05,0,0)" xlink:href="#bb"/><use transform="matrix(0.05,0,0,0.05,12,0)" xlink:href="#bc"/><use transform="matrix(0.05,0,0,0.05,22.950000000000003,0)" xlink:href="#aN"/><use transform="matrix(0.05,0,0,0.05,29.950000000000003,0)" xlink:href="#bd"/><use transform="matrix(0.05,0,0,0.05,39.95,0)" xlink:href="#aM"/><use transform="matrix(0.05,0,0,0.05,49.95,0)" xlink:href="#be"/></g><g id="q"><use transform="matrix(0.05,0,0,0.05,0,0)" xlink:href="#ah"/><use transform="matrix(0.05,0,0,0.05,10,0)" xlink:href="#ao"/><use transform="matrix(0.05,0,0,0.05,20,0)" xlink:href="#aG"/><use transform="matrix(0.05,0,0,0.05,25,0)" xlink:href="#an"/><use transform="matrix(0.05,0,0,0.05,37.95,0)" xlink:href="#ak"/><use transform="matrix(0.05,0,0,0.05,46.95,0)" xlink:href="#ao"/><use transform="matrix(0.05,0,0,0.05,56.95,0)" xlink:href="#ap"/><use transform="matrix(0.05,0,0,0.05,62.900000000000006,0)" xlink:href="#aY"/><use transform="matrix(0.05,0,0,0.05,72.85000000000001,0)" xlink:href="#aE"/><use transform="matrix(0.05,0,0,0.05,81.85000000000001,0)" xlink:href="#aW"/><use transform="matrix(0.05,0,0,0.05,91.85000000000001,0)" xlink:href="#ao"/><use transform="matrix(0.05,0,0,0.05,101.85000000000001,0)" xlink:href="#aw"/><use transform="matrix(0.05,0,0,0.05,107.80000000000001,0)" xlink:href="#ax"/></g><path fill="#333" d="M185-189c-5-48-123-54-124 2 14 75 158 14 163 119 3 78-121 87-175 55-17-10-28-26-33-46l33-7c5 56 141 63 141-1 0-78-155-14-162-118-5-82 145-84 179-34 5 7 8 16 11 25" id="bf"/><g id="r"><use transform="matrix(0.05,0,0,0.05,0,0)" xlink:href="#ak"/><use transform="matrix(0.05,0,0,0.05,9,0)" xlink:href="#al"/><use transform="matrix(0.05,0,0,0.05,19,0)" xlink:href="#ag"/><use transform="matrix(0.05,0,0,0.05,29,0)" xlink:href="#am"/><use transform="matrix(0.05,0,0,0.05,41.95,0)" xlink:href="#bf"/><use transform="matrix(0.05,0,0,0.05,53.95,0)" xlink:href="#aV"/><use transform="matrix(0.05,0,0,0.05,63.95,0)" xlink:href="#ap"/><use transform="matrix(0.05,0,0,0.05,69.9,0)" xlink:href="#aC"/><use transform="matrix(0.05,0,0,0.05,78.9,0)" xlink:href="#ao"/><use transform="matrix(0.05,0,0,0.05,88.9,0)" xlink:href="#aE"/><use transform="matrix(0.05,0,0,0.05,97.9,0)" xlink:href="#at"/><use transform="matrix(0.05,0,0,0.05,108.85000000000001,0)" xlink:href="#ag"/><use transform="matrix(0.05,0,0,0.05,118.85000000000001,0)" xlink:href="#ap"/><use transform="matrix(0.05,0,0,0.05,124.80000000000001,0)" xlink:href="#as"/><use transform="matrix(0.05,0,0,0.05,139.75,0)" xlink:href="#aw"/><use transform="matrix(0.05,0,0,0.05,145.7,0)" xlink:href="#ax"/></g><g id="s"><use transform="matrix(0.05,0,0,0.05,0,0)" xlink:href="#ah"/><use transform="matrix(0.05,0,0,0.05,10,0)" xlink:href="#ai"/><use transform="matrix(0.05,0,0,0.05,13.949999999999998,0)" xlink:href="#aC"/><use transform="matrix(0.05,0,0,0.05,22.95,0)" xlink:href="#ao"/><use transform="matrix(0.05,0,0,0.05,32.95,0)" xlink:href="#aF"/><use transform="matrix(0.05,0,0,0.05,45.900000000000006,0)" xlink:href="#ar"/><use transform="matrix(0.05,0,0,0.05,55.900000000000006,0)" xlink:href="#aG"/><use transform="matrix(0.05,0,0,0.05,60.900000000000006,0)" xlink:href="#ai"/><use transform="matrix(0.05,0,0,0.05,64.85000000000001,0)" xlink:href="#aj"/><use transform="matrix(0.05,0,0,0.05,74.85000000000001,0)" xlink:href="#ah"/><use transform="matrix(0.05,0,0,0.05,84.85000000000001,0)" xlink:href="#aw"/><use transform="matrix(0.05,0,0,0.05,90.80000000000001,0)" xlink:href="#ax"/></g><g id="t"><use transform="matrix(0.05,0,0,0.05,0,0)" xlink:href="#ak"/><use transform="matrix(0.05,0,0,0.05,9,0)" xlink:href="#aV"/><use transform="matrix(0.05,0,0,0.05,19,0)" xlink:href="#ah"/><use transform="matrix(0.05,0,0,0.05,29,0)" xlink:href="#ah"/><use transform="matrix(0.05,0,0,0.05,39,0)" xlink:href="#ao"/><use transform="matrix(0.05,0,0,0.05,49,0)" xlink:href="#ak"/><use transform="matrix(0.05,0,0,0.05,58,0)" xlink:href="#aG"/><use transform="matrix(0.05,0,0,0.05,63,0)" xlink:href="#ai"/><use transform="matrix(0.05,0,0,0.05,66.95,0)" xlink:href="#ag"/><use transform="matrix(0.05,0,0,0.05,76.95,0)" xlink:href="#aj"/><use transform="matrix(0.05,0,0,0.05,86.95,0)" xlink:href="#ak"/><use transform="matrix(0.05,0,0,0.05,95.95,0)" xlink:href="#aw"/><use transform="matrix(0.05,0,0,0.05,101.9,0)" xlink:href="#ax"/></g><g id="u"><use transform="matrix(0.05,0,0,0.05,0,0)" xlink:href="#aF"/><use transform="matrix(0.05,0,0,0.05,12.950000000000001,0)" xlink:href="#ao"/><use transform="matrix(0.05,0,0,0.05,22.950000000000003,0)" xlink:href="#aA"/><use transform="matrix(0.05,0,0,0.05,31.950000000000003,0)" xlink:href="#ao"/><use transform="matrix(0.05,0,0,0.05,41.95,0)" xlink:href="#ai"/><use transform="matrix(0.05,0,0,0.05,45.900000000000006,0)" xlink:href="#aC"/><use transform="matrix(0.05,0,0,0.05,54.900000000000006,0)" xlink:href="#ao"/><use transform="matrix(0.05,0,0,0.05,64.9,0)" xlink:href="#ap"/></g><g id="v"><use transform="matrix(0.05,0,0,0.05,0,0)" xlink:href="#ah"/><use transform="matrix(0.05,0,0,0.05,10,0)" xlink:href="#ao"/><use transform="matrix(0.05,0,0,0.05,20,0)" xlink:href="#aG"/><use transform="matrix(0.05,0,0,0.05,25,0)" xlink:href="#an"/><use transform="matrix(0.05,0,0,0.05,37.95,0)" xlink:href="#ak"/><use transform="matrix(0.05,0,0,0.05,46.95,0)" xlink:href="#ao"/><use transform="matrix(0.05,0,0,0.05,56.95,0)" xlink:href="#ap"/><use transform="matrix(0.05,0,0,0.05,62.900000000000006,0)" xlink:href="#aH"/><use transform="matrix(0.05,0,0,0.05,67.9,0)" xlink:href="#aj"/><use transform="matrix(0.05,0,0,0.05,77.9,0)" xlink:href="#aD"/><use transform="matrix(0.05,0,0,0.05,82.9,0)" xlink:href="#ag"/><use transform="matrix(0.05,0,0,0.05,92.9,0)" xlink:href="#aw"/><use transform="matrix(0.05,0,0,0.05,98.85000000000001,0)" xlink:href="#ax"/></g><path fill="#333" d="M145-31C134-9 116 4 85 4 32 4 16-35 15-94c0-59 17-99 70-100 32-1 48 14 60 33 0-11-1-24 2-32h30l-1 268h-32zM93-21c41 0 51-33 51-76s-8-73-50-73c-40 0-46 35-46 75s5 74 45 74" id="bg"/><g id="w"><use transform="matrix(0.05,0,0,0.05,0,0)" xlink:href="#ak"/><use transform="matrix(0.05,0,0,0.05,9,0)" xlink:href="#al"/><use transform="matrix(0.05,0,0,0.05,19,0)" xlink:href="#ag"/><use transform="matrix(0.05,0,0,0.05,29,0)" xlink:href="#am"/><use transform="matrix(0.05,0,0,0.05,41.95,0)" xlink:href="#aF"/><use transform="matrix(0.05,0,0,0.05,54.900000000000006,0)" xlink:href="#ao"/><use transform="matrix(0.05,0,0,0.05,64.9,0)" xlink:href="#bg"/><use transform="matrix(0.05,0,0,0.05,74.9,0)" xlink:href="#aV"/><use transform="matrix(0.05,0,0,0.05,84.9,0)" xlink:href="#ao"/><use transform="matrix(0.05,0,0,0.05,94.9,0)" xlink:href="#ak"/><use transform="matrix(0.05,0,0,0.05,103.9,0)" xlink:href="#aG"/><use transform="matrix(0.05,0,0,0.05,108.9,0)" xlink:href="#at"/><use transform="matrix(0.05,0,0,0.05,119.85000000000001,0)" xlink:href="#ag"/><use transform="matrix(0.05,0,0,0.05,129.85000000000002,0)" xlink:href="#ap"/><use transform="matrix(0.05,0,0,0.05,135.8,0)" xlink:href="#as"/><use transform="matrix(0.05,0,0,0.05,150.75,0)" xlink:href="#aw"/><use transform="matrix(0.05,0,0,0.05,156.7,0)" xlink:href="#ax"/></g><path fill="#333" d="M160-131c35 5 61 23 61 61C221 17 115-2 30 0v-248c76 3 177-17 177 60 0 33-19 50-47 57zm-97-11c50-1 110 9 110-42 0-47-63-36-110-37v79zm0 115c55-2 124 14 124-45 0-56-70-42-124-44v89" id="bh"/><g id="x"><use transform="matrix(0.05,0,0,0.05,0,0)" xlink:href="#ap"/><use transform="matrix(0.05,0,0,0.05,5.95,0)" xlink:href="#ao"/><use transform="matrix(0.05,0,0,0.05,15.949999999999998,0)" xlink:href="#bg"/><use transform="matrix(0.05,0,0,0.05,25.950000000000003,0)" xlink:href="#aV"/><use transform="matrix(0.05,0,0,0.05,35.95,0)" xlink:href="#ao"/><use transform="matrix(0.05,0,0,0.05,45.95,0)" xlink:href="#ak"/><use transform="matrix(0.05,0,0,0.05,54.95,0)" xlink:href="#aG"/><use transform="matrix(0.05,0,0,0.05,59.95,0)" xlink:href="#bh"/><use transform="matrix(0.05,0,0,0.05,71.95,0)" xlink:href="#au"/><use transform="matrix(0.05,0,0,0.05,75.9,0)" xlink:href="#ag"/><use transform="matrix(0.05,0,0,0.05,85.9,0)" xlink:href="#ag"/><use transform="matrix(0.05,0,0,0.05,95.9,0)" xlink:href="#av"/><use transform="matrix(0.05,0,0,0.05,105.9,0)" xlink:href="#aw"/><use transform="matrix(0.05,0,0,0.05,111.85000000000001,0)" xlink:href="#ax"/></g><g id="y"><use transform="matrix(0.05,0,0,0.05,0,0)" xlink:href="#aV"/><use transform="matrix(0.05,0,0,0.05,10,0)" xlink:href="#aW"/><use transform="matrix(0.05,0,0,0.05,20,0)" xlink:href="#av"/><use transform="matrix(0.05,0,0,0.05,30,0)" xlink:href="#ar"/><use transform="matrix(0.05,0,0,0.05,40,0)" xlink:href="#aG"/><use transform="matrix(0.05,0,0,0.05,45,0)" xlink:href="#ao"/><use transform="matrix(0.05,0,0,0.05,55,0)" xlink:href="#bf"/><use transform="matrix(0.05,0,0,0.05,67,0)" xlink:href="#aG"/><use transform="matrix(0.05,0,0,0.05,72,0)" xlink:href="#ar"/><use transform="matrix(0.05,0,0,0.05,82,0)" xlink:href="#aG"/><use transform="matrix(0.05,0,0,0.05,87,0)" xlink:href="#aV"/><use transform="matrix(0.05,0,0,0.05,97,0)" xlink:href="#ak"/><use transform="matrix(0.05,0,0,0.05,106,0)" xlink:href="#aw"/><use transform="matrix(0.05,0,0,0.05,111.95,0)" xlink:href="#ax"/></g><g id="z"><use transform="matrix(0.05,0,0,0.05,0,0)" xlink:href="#aA"/><use transform="matrix(0.05,0,0,0.05,9,0)" xlink:href="#al"/><use transform="matrix(0.05,0,0,0.05,19,0)" xlink:href="#ar"/><use transform="matrix(0.05,0,0,0.05,29,0)" xlink:href="#ah"/><use transform="matrix(0.05,0,0,0.05,39,0)" xlink:href="#ao"/><use transform="matrix(0.05,0,0,0.05,49,0)" xlink:href="#aY"/><use transform="matrix(0.05,0,0,0.05,58.95,0)" xlink:href="#aE"/><use transform="matrix(0.05,0,0,0.05,67.95,0)" xlink:href="#aW"/><use transform="matrix(0.05,0,0,0.05,77.95,0)" xlink:href="#ao"/><use transform="matrix(0.05,0,0,0.05,87.95,0)" xlink:href="#aw"/><use transform="matrix(0.05,0,0,0.05,93.9,0)" xlink:href="#ax"/></g><g id="A"><use transform="matrix(0.05,0,0,0.05,0,0)" xlink:href="#ak"/><use transform="matrix(0.05,0,0,0.05,9,0)" xlink:href="#ao"/><use transform="matrix(0.05,0,0,0.05,19,0)" xlink:href="#aG"/><use transform="matrix(0.05,0,0,0.05,24,0)" xlink:href="#aX"/><use transform="matrix(0.05,0,0,0.05,36,0)" xlink:href="#aW"/><use transform="matrix(0.05,0,0,0.05,46,0)" xlink:href="#aW"/><use transform="matrix(0.05,0,0,0.05,56,0)" xlink:href="#ai"/><use transform="matrix(0.05,0,0,0.05,59.95,0)" xlink:href="#aj"/><use transform="matrix(0.05,0,0,0.05,69.95,0)" xlink:href="#as"/><use transform="matrix(0.05,0,0,0.05,84.9,0)" xlink:href="#ao"/><use transform="matrix(0.05,0,0,0.05,94.9,0)" xlink:href="#aj"/><use transform="matrix(0.05,0,0,0.05,104.9,0)" xlink:href="#aG"/><use transform="matrix(0.05,0,0,0.05,109.9,0)" xlink:href="#aw"/><use transform="matrix(0.05,0,0,0.05,115.85000000000001,0)" xlink:href="#ax"/></g><g id="B"><use transform="matrix(0.05,0,0,0.05,0,0)" xlink:href="#ak"/><use transform="matrix(0.05,0,0,0.05,9,0)" xlink:href="#al"/><use transform="matrix(0.05,0,0,0.05,19,0)" xlink:href="#ar"/><use transform="matrix(0.05,0,0,0.05,29,0)" xlink:href="#ap"/><use transform="matrix(0.05,0,0,0.05,34.95,0)" xlink:href="#ao"/><use transform="matrix(0.05,0,0,0.05,44.95,0)" xlink:href="#af"/><use transform="matrix(0.05,0,0,0.05,54.95,0)" xlink:href="#ag"/><use transform="matrix(0.05,0,0,0.05,64.95,0)" xlink:href="#aA"/><use transform="matrix(0.05,0,0,0.05,73.95,0)" xlink:href="#ar"/><use transform="matrix(0.05,0,0,0.05,83.95,0)" xlink:href="#aG"/><use transform="matrix(0.05,0,0,0.05,88.95,0)" xlink:href="#ai"/><use transform="matrix(0.05,0,0,0.05,92.9,0)" xlink:href="#ag"/><use transform="matrix(0.05,0,0,0.05,102.9,0)" xlink:href="#aj"/><use transform="matrix(0.05,0,0,0.05,112.9,0)" xlink:href="#aw"/><use transform="matrix(0.05,0,0,0.05,118.85000000000001,0)" xlink:href="#ax"/></g><g id="C"><use transform="matrix(0.05,0,0,0.05,0,0)" xlink:href="#aV"/><use transform="matrix(0.05,0,0,0.05,10,0)" xlink:href="#aW"/><use transform="matrix(0.05,0,0,0.05,20,0)" xlink:href="#av"/><use transform="matrix(0.05,0,0,0.05,30,0)" xlink:href="#ar"/><use transform="matrix(0.05,0,0,0.05,40,0)" xlink:href="#aG"/><use transform="matrix(0.05,0,0,0.05,45,0)" xlink:href="#ao"/><use transform="matrix(0.05,0,0,0.05,55,0)" xlink:href="#aH"/><use transform="matrix(0.05,0,0,0.05,60,0)" xlink:href="#aj"/><use transform="matrix(0.05,0,0,0.05,70,0)" xlink:href="#aD"/><use transform="matrix(0.05,0,0,0.05,75,0)" xlink:href="#ag"/><use transform="matrix(0.05,0,0,0.05,85,0)" xlink:href="#aw"/><use transform="matrix(0.05,0,0,0.05,90.95,0)" xlink:href="#ax"/></g><g id="D"><use transform="matrix(0.05,0,0,0.05,0,0)" xlink:href="#aV"/><use transform="matrix(0.05,0,0,0.05,10,0)" xlink:href="#aW"/><use transform="matrix(0.05,0,0,0.05,20,0)" xlink:href="#av"/><use transform="matrix(0.05,0,0,0.05,30,0)" xlink:href="#ar"/><use transform="matrix(0.05,0,0,0.05,40,0)" xlink:href="#aG"/><use transform="matrix(0.05,0,0,0.05,45,0)" xlink:href="#ao"/><use transform="matrix(0.05,0,0,0.05,55,0)" xlink:href="#aG"/><use transform="matrix(0.05,0,0,0.05,60,0)" xlink:href="#ap"/><use transform="matrix(0.05,0,0,0.05,65.95,0)" xlink:href="#ar"/><use transform="matrix(0.05,0,0,0.05,75.95,0)" xlink:href="#aA"/><use transform="matrix(0.05,0,0,0.05,84.95,0)" xlink:href="#aB"/><use transform="matrix(0.05,0,0,0.05,93.95,0)" xlink:href="#ao"/><use transform="matrix(0.05,0,0,0.05,103.95,0)" xlink:href="#ap"/><use transform="matrix(0.05,0,0,0.05,109.9,0)" xlink:href="#aw"/><use transform="matrix(0.05,0,0,0.05,115.85000000000001,0)" xlink:href="#ax"/></g><path fill="#333" d="M30-248c118-7 216 8 213 122C240-48 200 0 122 0H30v-248zM63-27c89 8 146-16 146-99s-60-101-146-95v194" id="bi"/><g id="E"><use transform="matrix(0.05,0,0,0.05,0,0)" xlink:href="#bi"/><use transform="matrix(0.05,0,0,0.05,12.950000000000001,0)" xlink:href="#ag"/><use transform="matrix(0.05,0,0,0.05,22.950000000000003,0)" xlink:href="#aj"/><use transform="matrix(0.05,0,0,0.05,32.95,0)" xlink:href="#ag"/><use transform="matrix(0.05,0,0,0.05,42.95,0)" xlink:href="#ap"/></g><g id="F"><use transform="matrix(0.05,0,0,0.05,0,0)" xlink:href="#aA"/><use transform="matrix(0.05,0,0,0.05,9,0)" xlink:href="#al"/><use transform="matrix(0.05,0,0,0.05,19,0)" xlink:href="#ar"/><use transform="matrix(0.05,0,0,0.05,29,0)" xlink:href="#aj"/><use transform="matrix(0.05,0,0,0.05,39,0)" xlink:href="#ah"/><use transform="matrix(0.05,0,0,0.05,49,0)" xlink:href="#ao"/><use transform="matrix(0.05,0,0,0.05,59,0)" xlink:href="#aY"/><use transform="matrix(0.05,0,0,0.05,68.95,0)" xlink:href="#aE"/><use transform="matrix(0.05,0,0,0.05,77.95,0)" xlink:href="#aW"/><use transform="matrix(0.05,0,0,0.05,87.95,0)" xlink:href="#ao"/><use transform="matrix(0.05,0,0,0.05,97.95,0)" xlink:href="#aw"/><use transform="matrix(0.05,0,0,0.05,103.9,0)" xlink:href="#ax"/></g><g id="G"><use transform="matrix(0.05,0,0,0.05,0,0)" xlink:href="#ak"/><use transform="matrix(0.05,0,0,0.05,9,0)" xlink:href="#ao"/><use transform="matrix(0.05,0,0,0.05,19,0)" xlink:href="#aG"/><use transform="matrix(0.05,0,0,0.05,24,0)" xlink:href="#aX"/><use transform="matrix(0.05,0,0,0.05,36,0)" xlink:href="#aW"/><use transform="matrix(0.05,0,0,0.05,46,0)" xlink:href="#aW"/><use transform="matrix(0.05,0,0,0.05,56,0)" xlink:href="#ag"/><use transform="matrix(0.05,0,0,0.05,66,0)" xlink:href="#ai"/><use transform="matrix(0.05,0,0,0.05,69.95,0)" xlink:href="#aj"/><use transform="matrix(0.05,0,0,0.05,79.95,0)" xlink:href="#as"/><use transform="matrix(0.05,0,0,0.05,94.9,0)" xlink:href="#ao"/><use transform="matrix(0.05,0,0,0.05,104.9,0)" xlink:href="#aj"/><use transform="matrix(0.05,0,0,0.05,114.9,0)" xlink:href="#aG"/><use transform="matrix(0.05,0,0,0.05,119.9,0)" xlink:href="#aw"/><use transform="matrix(0.05,0,0,0.05,125.85000000000001,0)" xlink:href="#ax"/></g><path fill="#333" d="M18-100v-36l175-74v27L42-118l151 64v27" id="bj"/><path fill="#333" d="M141 0L90-78 38 0H4l68-98-65-92h35l48 74 47-74h35l-64 92 68 98h-35" id="bk"/><path fill="#333" d="M18-27v-27l151-64-151-65v-27l175 74v36" id="bl"/><g id="H"><use transform="matrix(0.05,0,0,0.05,0,0)" xlink:href="#bj"/><use transform="matrix(0.05,0,0,0.05,10.5,0)" xlink:href="#bj"/><use transform="matrix(0.05,0,0,0.05,21,0)" xlink:href="#ao"/><use transform="matrix(0.05,0,0,0.05,31,0)" xlink:href="#bk"/><use transform="matrix(0.05,0,0,0.05,40,0)" xlink:href="#aG"/><use transform="matrix(0.05,0,0,0.05,45,0)" xlink:href="#ao"/><use transform="matrix(0.05,0,0,0.05,55,0)" xlink:href="#aj"/><use transform="matrix(0.05,0,0,0.05,65,0)" xlink:href="#av"/><use transform="matrix(0.05,0,0,0.05,75,0)" xlink:href="#ak"/><use transform="matrix(0.05,0,0,0.05,84,0)" xlink:href="#bl"/><use transform="matrix(0.05,0,0,0.05,94.5,0)" xlink:href="#bl"/></g><path fill="#333" d="M80-196l47-18 7 23-49 13 32 44-20 13-27-46-27 45-21-12 33-44-49-13 8-23 47 19-2-53h23" id="bm"/><use transform="matrix(0.05,0,0,0.05,0,0)" xlink:href="#bm" id="I"/><g id="J"><use transform="matrix(0.05,0,0,0.05,0,0)" xlink:href="#bj"/><use transform="matrix(0.05,0,0,0.05,10.5,0)" xlink:href="#bj"/><use transform="matrix(0.05,0,0,0.05,21,0)" xlink:href="#aV"/><use transform="matrix(0.05,0,0,0.05,31,0)" xlink:href="#ak"/><use transform="matrix(0.05,0,0,0.05,40,0)" xlink:href="#ao"/><use transform="matrix(0.05,0,0,0.05,50,0)" xlink:href="#ak"/><use transform="matrix(0.05,0,0,0.05,59,0)" xlink:href="#bl"/><use transform="matrix(0.05,0,0,0.05,69.5,0)" xlink:href="#bl"/></g><g id="K"><use transform="matrix(0.05,0,0,0.05,0,0)" xlink:href="#an"/><use transform="matrix(0.05,0,0,0.05,12.950000000000001,0)" xlink:href="#aW"/><use transform="matrix(0.05,0,0,0.05,22.950000000000003,0)" xlink:href="#av"/><use transform="matrix(0.05,0,0,0.05,32.95,0)" xlink:href="#ar"/><use transform="matrix(0.05,0,0,0.05,42.95,0)" xlink:href="#aG"/><use transform="matrix(0.05,0,0,0.05,47.95,0)" xlink:href="#ao"/><use transform="matrix(0.05,0,0,0.05,57.95,0)" xlink:href="#aY"/><use transform="matrix(0.05,0,0,0.05,67.9,0)" xlink:href="#aE"/><use transform="matrix(0.05,0,0,0.05,76.9,0)" xlink:href="#aW"/><use transform="matrix(0.05,0,0,0.05,86.9,0)" xlink:href="#ao"/></g><g id="L"><use transform="matrix(0.05,0,0,0.05,0,0)" xlink:href="#aA"/><use transform="matrix(0.05,0,0,0.05,9,0)" xlink:href="#al"/><use transform="matrix(0.05,0,0,0.05,19,0)" xlink:href="#ar"/><use transform="matrix(0.05,0,0,0.05,29,0)" xlink:href="#aj"/><use transform="matrix(0.05,0,0,0.05,39,0)" xlink:href="#ah"/><use transform="matrix(0.05,0,0,0.05,49,0)" xlink:href="#ao"/><use transform="matrix(0.05,0,0,0.05,59,0)" xlink:href="#aF"/><use transform="matrix(0.05,0,0,0.05,71.95,0)" xlink:href="#ao"/><use transform="matrix(0.05,0,0,0.05,81.95,0)" xlink:href="#aA"/><use transform="matrix(0.05,0,0,0.05,90.95,0)" xlink:href="#ao"/><use transform="matrix(0.05,0,0,0.05,100.95,0)" xlink:href="#ai"/><use transform="matrix(0.05,0,0,0.05,104.9,0)" xlink:href="#aC"/><use transform="matrix(0.05,0,0,0.05,113.9,0)" xlink:href="#ao"/><use transform="matrix(0.05,0,0,0.05,123.9,0)" xlink:href="#ap"/><use transform="matrix(0.05,0,0,0.05,129.85,0)" xlink:href="#aY"/><use transform="matrix(0.05,0,0,0.05,138.79999999999998,0)" xlink:href="#ag"/><use transform="matrix(0.05,0,0,0.05,148.79999999999998,0)" xlink:href="#bi"/><use transform="matrix(0.05,0,0,0.05,161.74999999999997,0)" xlink:href="#ag"/><use transform="matrix(0.05,0,0,0.05,171.74999999999997,0)" xlink:href="#aj"/><use transform="matrix(0.05,0,0,0.05,181.74999999999997,0)" xlink:href="#ag"/><use transform="matrix(0.05,0,0,0.05,191.74999999999997,0)" xlink:href="#aG"/><use transform="matrix(0.05,0,0,0.05,196.74999999999997,0)" xlink:href="#aw"/><use transform="matrix(0.05,0,0,0.05,202.69999999999996,0)" xlink:href="#ax"/></g><g id="M"><use transform="matrix(0.05,0,0,0.05,0,0)" xlink:href="#aA"/><use transform="matrix(0.05,0,0,0.05,9,0)" xlink:href="#al"/><use transform="matrix(0.05,0,0,0.05,19,0)" xlink:href="#ar"/><use transform="matrix(0.05,0,0,0.05,29,0)" xlink:href="#aj"/><use transform="matrix(0.05,0,0,0.05,39,0)" xlink:href="#ah"/><use transform="matrix(0.05,0,0,0.05,49,0)" xlink:href="#ao"/><use transform="matrix(0.05,0,0,0.05,59,0)" xlink:href="#bi"/><use transform="matrix(0.05,0,0,0.05,71.95,0)" xlink:href="#ag"/><use transform="matrix(0.05,0,0,0.05,81.95,0)" xlink:href="#aj"/><use transform="matrix(0.05,0,0,0.05,91.95,0)" xlink:href="#ag"/><use transform="matrix(0.05,0,0,0.05,101.95,0)" xlink:href="#ap"/><use transform="matrix(0.05,0,0,0.05,107.9,0)" xlink:href="#aY"/><use transform="matrix(0.05,0,0,0.05,116.85000000000001,0)" xlink:href="#ag"/><use transform="matrix(0.05,0,0,0.05,126.85000000000001,0)" xlink:href="#aF"/><use transform="matrix(0.05,0,0,0.05,139.8,0)" xlink:href="#ao"/><use transform="matrix(0.05,0,0,0.05,149.8,0)" xlink:href="#aA"/><use transform="matrix(0.05,0,0,0.05,158.8,0)" xlink:href="#ao"/><use transform="matrix(0.05,0,0,0.05,168.8,0)" xlink:href="#ai"/><use transform="matrix(0.05,0,0,0.05,172.75,0)" xlink:href="#aC"/><use transform="matrix(0.05,0,0,0.05,181.75,0)" xlink:href="#ao"/><use transform="matrix(0.05,0,0,0.05,191.75,0)" xlink:href="#ap"/><use transform="matrix(0.05,0,0,0.05,197.7,0)" xlink:href="#aw"/><use transform="matrix(0.05,0,0,0.05,203.64999999999998,0)" xlink:href="#ax"/></g><g id="N"><use transform="matrix(0.05,0,0,0.05,0,0)" xlink:href="#aV"/><use transform="matrix(0.05,0,0,0.05,10,0)" xlink:href="#aW"/><use transform="matrix(0.05,0,0,0.05,20,0)" xlink:href="#av"/><use transform="matrix(0.05,0,0,0.05,30,0)" xlink:href="#ar"/><use transform="matrix(0.05,0,0,0.05,40,0)" xlink:href="#aG"/><use transform="matrix(0.05,0,0,0.05,45,0)" xlink:href="#ao"/><use transform="matrix(0.05,0,0,0.05,55,0)" xlink:href="#bf"/><use transform="matrix(0.05,0,0,0.05,67,0)" xlink:href="#aG"/><use transform="matrix(0.05,0,0,0.05,72,0)" xlink:href="#ar"/><use transform="matrix(0.05,0,0,0.05,82,0)" xlink:href="#aG"/><use transform="matrix(0.05,0,0,0.05,87,0)" xlink:href="#aV"/><use transform="matrix(0.05,0,0,0.05,97,0)" xlink:href="#ak"/><use transform="matrix(0.05,0,0,0.05,106,0)" xlink:href="#aw"/><use transform="matrix(0.05,0,0,0.05,111.95,0)" xlink:href="#ax"/></g><g id="O"><use transform="matrix(0.05,0,0,0.05,0,0)" xlink:href="#bh"/><use transform="matrix(0.05,0,0,0.05,12,0)" xlink:href="#au"/><use transform="matrix(0.05,0,0,0.05,15.949999999999998,0)" xlink:href="#ag"/><use transform="matrix(0.05,0,0,0.05,25.950000000000003,0)" xlink:href="#ag"/><use transform="matrix(0.05,0,0,0.05,35.95,0)" xlink:href="#av"/></g><g id="P"><use transform="matrix(0.05,0,0,0.05,0,0)" xlink:href="#ah"/><use transform="matrix(0.05,0,0,0.05,10,0)" xlink:href="#ao"/><use transform="matrix(0.05,0,0,0.05,20,0)" xlink:href="#aG"/><use transform="matrix(0.05,0,0,0.05,25,0)" xlink:href="#aF"/><use transform="matrix(0.05,0,0,0.05,37.95,0)" xlink:href="#ao"/><use transform="matrix(0.05,0,0,0.05,47.95,0)" xlink:href="#bg"/><use transform="matrix(0.05,0,0,0.05,57.95,0)" xlink:href="#aV"/><use transform="matrix(0.05,0,0,0.05,67.95,0)" xlink:href="#ao"/><use transform="matrix(0.05,0,0,0.05,77.95,0)" xlink:href="#ak"/><use transform="matrix(0.05,0,0,0.05,86.95,0)" xlink:href="#aG"/><use transform="matrix(0.05,0,0,0.05,91.95,0)" xlink:href="#aw"/><use transform="matrix(0.05,0,0,0.05,97.9,0)" xlink:href="#ax"/></g><g id="Q"><use transform="matrix(0.05,0,0,0.05,0,0)" xlink:href="#as"/><use transform="matrix(0.05,0,0,0.05,14.950000000000001,0)" xlink:href="#ar"/><use transform="matrix(0.05,0,0,0.05,24.950000000000003,0)" xlink:href="#aG"/><use transform="matrix(0.05,0,0,0.05,29.950000000000003,0)" xlink:href="#aA"/><use transform="matrix(0.05,0,0,0.05,38.95,0)" xlink:href="#al"/><use transform="matrix(0.05,0,0,0.05,48.95,0)" xlink:href="#aF"/><use transform="matrix(0.05,0,0,0.05,61.900000000000006,0)" xlink:href="#ao"/><use transform="matrix(0.05,0,0,0.05,71.9,0)" xlink:href="#bg"/><use transform="matrix(0.05,0,0,0.05,81.9,0)" xlink:href="#aV"/><use transform="matrix(0.05,0,0,0.05,91.9,0)" xlink:href="#ao"/><use transform="matrix(0.05,0,0,0.05,101.9,0)" xlink:href="#ak"/><use transform="matrix(0.05,0,0,0.05,110.9,0)" xlink:href="#aG"/><use transform="matrix(0.05,0,0,0.05,115.9,0)" xlink:href="#bh"/><use transform="matrix(0.05,0,0,0.05,127.9,0)" xlink:href="#au"/><use transform="matrix(0.05,0,0,0.05,131.85,0)" xlink:href="#ag"/><use transform="matrix(0.05,0,0,0.05,141.85,0)" xlink:href="#ag"/><use transform="matrix(0.05,0,0,0.05,151.85,0)" xlink:href="#av"/><use transform="matrix(0.05,0,0,0.05,161.85,0)" xlink:href="#aw"/><use transform="matrix(0.05,0,0,0.05,167.79999999999998,0)" xlink:href="#ax"/></g><g id="R"><use transform="matrix(0.05,0,0,0.05,0,0)" xlink:href="#ap"/><use transform="matrix(0.05,0,0,0.05,5.95,0)" xlink:href="#ao"/><use transform="matrix(0.05,0,0,0.05,15.949999999999998,0)" xlink:href="#aA"/><use transform="matrix(0.05,0,0,0.05,24.95,0)" xlink:href="#ag"/><use transform="matrix(0.05,0,0,0.05,34.95,0)" xlink:href="#as"/><use transform="matrix(0.05,0,0,0.05,49.900000000000006,0)" xlink:href="#as"/><use transform="matrix(0.05,0,0,0.05,64.85000000000001,0)" xlink:href="#ao"/><use transform="matrix(0.05,0,0,0.05,74.85000000000001,0)" xlink:href="#aj"/><use transform="matrix(0.05,0,0,0.05,84.85000000000001,0)" xlink:href="#aG"/><use transform="matrix(0.05,0,0,0.05,89.85000000000001,0)" xlink:href="#an"/><use transform="matrix(0.05,0,0,0.05,102.80000000000001,0)" xlink:href="#ak"/><use transform="matrix(0.05,0,0,0.05,111.80000000000001,0)" xlink:href="#ao"/><use transform="matrix(0.05,0,0,0.05,121.80000000000001,0)" xlink:href="#ap"/><use transform="matrix(0.05,0,0,0.05,127.75,0)" xlink:href="#aw"/><use transform="matrix(0.05,0,0,0.05,133.70000000000002,0)" xlink:href="#ax"/></g><g id="S"><use transform="matrix(0.05,0,0,0.05,0,0)" xlink:href="#ah"/><use transform="matrix(0.05,0,0,0.05,10,0)" xlink:href="#ao"/><use transform="matrix(0.05,0,0,0.05,20,0)" xlink:href="#aG"/><use transform="matrix(0.05,0,0,0.05,25,0)" xlink:href="#bi"/><use transform="matrix(0.05,0,0,0.05,37.95,0)" xlink:href="#ag"/><use transform="matrix(0.05,0,0,0.05,47.95,0)" xlink:href="#aj"/><use transform="matrix(0.05,0,0,0.05,57.95,0)" xlink:href="#ag"/><use transform="matrix(0.05,0,0,0.05,67.95,0)" xlink:href="#aG"/><use transform="matrix(0.05,0,0,0.05,72.95,0)" xlink:href="#aH"/><use transform="matrix(0.05,0,0,0.05,77.95,0)" xlink:href="#aj"/><use transform="matrix(0.05,0,0,0.05,87.95,0)" xlink:href="#aD"/><use transform="matrix(0.05,0,0,0.05,92.95,0)" xlink:href="#ag"/><use transform="matrix(0.05,0,0,0.05,102.95,0)" xlink:href="#aw"/><use transform="matrix(0.05,0,0,0.05,108.9,0)" xlink:href="#ax"/></g><g id="T"><use transform="matrix(0.05,0,0,0.05,0,0)" xlink:href="#ah"/><use transform="matrix(0.05,0,0,0.05,10,0)" xlink:href="#ao"/><use transform="matrix(0.05,0,0,0.05,20,0)" xlink:href="#aG"/><use transform="matrix(0.05,0,0,0.05,25,0)" xlink:href="#bh"/><use transform="matrix(0.05,0,0,0.05,37,0)" xlink:href="#au"/><use transform="matrix(0.05,0,0,0.05,40.95,0)" xlink:href="#ag"/><use transform="matrix(0.05,0,0,0.05,50.95,0)" xlink:href="#ag"/><use transform="matrix(0.05,0,0,0.05,60.95,0)" xlink:href="#av"/><use transform="matrix(0.05,0,0,0.05,70.95,0)" xlink:href="#bh"/><use transform="matrix(0.05,0,0,0.05,82.95,0)" xlink:href="#ar"/><use transform="matrix(0.05,0,0,0.05,92.95,0)" xlink:href="#aj"/><use transform="matrix(0.05,0,0,0.05,102.95,0)" xlink:href="#aB"/><use transform="matrix(0.05,0,0,0.05,111.95,0)" xlink:href="#aH"/><use transform="matrix(0.05,0,0,0.05,116.95,0)" xlink:href="#aj"/><use transform="matrix(0.05,0,0,0.05,126.95,0)" xlink:href="#av"/><use transform="matrix(0.05,0,0,0.05,136.95,0)" xlink:href="#ag"/><use transform="matrix(0.05,0,0,0.05,146.95,0)" xlink:href="#aw"/><use transform="matrix(0.05,0,0,0.05,152.89999999999998,0)" xlink:href="#ax"/></g><g id="U"><use transform="matrix(0.05,0,0,0.05,0,0)" xlink:href="#bh"/><use transform="matrix(0.05,0,0,0.05,12,0)" xlink:href="#au"/><use transform="matrix(0.05,0,0,0.05,15.949999999999998,0)" xlink:href="#ag"/><use transform="matrix(0.05,0,0,0.05,25.950000000000003,0)" xlink:href="#ag"/><use transform="matrix(0.05,0,0,0.05,35.95,0)" xlink:href="#av"/><use transform="matrix(0.05,0,0,0.05,45.95,0)" xlink:href="#bh"/><use transform="matrix(0.05,0,0,0.05,57.95,0)" xlink:href="#ar"/><use transform="matrix(0.05,0,0,0.05,67.95,0)" xlink:href="#aj"/><use transform="matrix(0.05,0,0,0.05,77.95,0)" xlink:href="#aB"/></g><g id="V"><use transform="matrix(0.05,0,0,0.05,0,0)" xlink:href="#ak"/><use transform="matrix(0.05,0,0,0.05,9,0)" xlink:href="#ao"/><use transform="matrix(0.05,0,0,0.05,19,0)" xlink:href="#aj"/><use transform="matrix(0.05,0,0,0.05,29,0)" xlink:href="#av"/><use transform="matrix(0.05,0,0,0.05,39,0)" xlink:href="#aH"/><use transform="matrix(0.05,0,0,0.05,44,0)" xlink:href="#aj"/><use transform="matrix(0.05,0,0,0.05,54,0)" xlink:href="#aD"/><use transform="matrix(0.05,0,0,0.05,59,0)" xlink:href="#ag"/><use transform="matrix(0.05,0,0,0.05,69,0)" xlink:href="#aw"/><use transform="matrix(0.05,0,0,0.05,74.95,0)" xlink:href="#ax"/></g><path fill="#333" d="M197 0v-115H63V0H30v-248h33v105h134v-105h34V0h-34" id="bn"/><g id="W"><use transform="matrix(0.05,0,0,0.05,0,0)" xlink:href="#bn"/><use transform="matrix(0.05,0,0,0.05,12.950000000000001,0)" xlink:href="#ag"/><use transform="matrix(0.05,0,0,0.05,22.950000000000003,0)" xlink:href="#ak"/><use transform="matrix(0.05,0,0,0.05,31.950000000000003,0)" xlink:href="#aW"/><use transform="matrix(0.05,0,0,0.05,41.95,0)" xlink:href="#ai"/><use transform="matrix(0.05,0,0,0.05,45.900000000000006,0)" xlink:href="#aG"/><use transform="matrix(0.05,0,0,0.05,50.900000000000006,0)" xlink:href="#ar"/><use transform="matrix(0.05,0,0,0.05,60.900000000000006,0)" xlink:href="#au"/></g><g id="X"><use transform="matrix(0.05,0,0,0.05,0,0)" xlink:href="#ak"/><use transform="matrix(0.05,0,0,0.05,9,0)" xlink:href="#al"/><use transform="matrix(0.05,0,0,0.05,19,0)" xlink:href="#ag"/><use transform="matrix(0.05,0,0,0.05,29,0)" xlink:href="#am"/><use transform="matrix(0.05,0,0,0.05,41.95,0)" xlink:href="#at"/><use transform="matrix(0.05,0,0,0.05,52.900000000000006,0)" xlink:href="#ag"/><use transform="matrix(0.05,0,0,0.05,62.900000000000006,0)" xlink:href="#ap"/><use transform="matrix(0.05,0,0,0.05,68.85000000000001,0)" xlink:href="#as"/><use transform="matrix(0.05,0,0,0.05,83.80000000000001,0)" xlink:href="#aw"/><use transform="matrix(0.05,0,0,0.05,89.75000000000001,0)" xlink:href="#ax"/></g><g id="Y"><use transform="matrix(0.05,0,0,0.05,0,0)" xlink:href="#ap"/><use transform="matrix(0.05,0,0,0.05,5.95,0)" xlink:href="#ao"/><use transform="matrix(0.05,0,0,0.05,15.949999999999998,0)" xlink:href="#bg"/><use transform="matrix(0.05,0,0,0.05,25.950000000000003,0)" xlink:href="#aV"/><use transform="matrix(0.05,0,0,0.05,35.95,0)" xlink:href="#ao"/><use transform="matrix(0.05,0,0,0.05,45.95,0)" xlink:href="#ak"/><use transform="matrix(0.05,0,0,0.05,54.95,0)" xlink:href="#aG"/><use transform="matrix(0.05,0,0,0.05,59.95,0)" xlink:href="#aw"/><use transform="matrix(0.05,0,0,0.05,65.9,0)" xlink:href="#ax"/></g><g id="Z"><use transform="matrix(0.05,0,0,0.05,0,0)" xlink:href="#bf"/><use transform="matrix(0.05,0,0,0.05,12,0)" xlink:href="#ao"/><use transform="matrix(0.05,0,0,0.05,22,0)" xlink:href="#ar"/><use transform="matrix(0.05,0,0,0.05,32,0)" xlink:href="#ap"/><use transform="matrix(0.05,0,0,0.05,37.95,0)" xlink:href="#aA"/><use transform="matrix(0.05,0,0,0.05,46.95,0)" xlink:href="#al"/></g><g id="aa"><use transform="matrix(0.05,0,0,0.05,0,0)" xlink:href="#aF"/><use transform="matrix(0.05,0,0,0.05,12.950000000000001,0)" xlink:href="#ao"/><use transform="matrix(0.05,0,0,0.05,22.950000000000003,0)" xlink:href="#aA"/><use transform="matrix(0.05,0,0,0.05,31.950000000000003,0)" xlink:href="#ag"/><use transform="matrix(0.05,0,0,0.05,41.95,0)" xlink:href="#as"/><use transform="matrix(0.05,0,0,0.05,56.900000000000006,0)" xlink:href="#as"/><use transform="matrix(0.05,0,0,0.05,71.85000000000001,0)" xlink:href="#ao"/><use transform="matrix(0.05,0,0,0.05,81.85000000000001,0)" xlink:href="#aj"/><use transform="matrix(0.05,0,0,0.05,91.85000000000001,0)" xlink:href="#av"/><use transform="matrix(0.05,0,0,0.05,101.85000000000001,0)" xlink:href="#ar"/><use transform="matrix(0.05,0,0,0.05,111.85000000000001,0)" xlink:href="#aG"/><use transform="matrix(0.05,0,0,0.05,116.85000000000001,0)" xlink:href="#ai"/><use transform="matrix(0.05,0,0,0.05,120.80000000000001,0)" xlink:href="#ag"/><use transform="matrix(0.05,0,0,0.05,130.8,0)" xlink:href="#aj"/></g><g id="ab"><use transform="matrix(0.05,0,0,0.05,0,0)" xlink:href="#bf"/><use transform="matrix(0.05,0,0,0.05,12,0)" xlink:href="#aE"/><use transform="matrix(0.05,0,0,0.05,21,0)" xlink:href="#ak"/><use transform="matrix(0.05,0,0,0.05,30,0)" xlink:href="#aG"/><use transform="matrix(0.05,0,0,0.05,35,0)" xlink:href="#ao"/><use transform="matrix(0.05,0,0,0.05,45,0)" xlink:href="#as"/></g><g id="ac"><use transform="matrix(0.05,0,0,0.05,0,0)" xlink:href="#aF"/><use transform="matrix(0.05,0,0,0.05,12.950000000000001,0)" xlink:href="#ao"/><use transform="matrix(0.05,0,0,0.05,22.950000000000003,0)" xlink:href="#ah"/><use transform="matrix(0.05,0,0,0.05,32.95,0)" xlink:href="#ai"/><use transform="matrix(0.05,0,0,0.05,36.900000000000006,0)" xlink:href="#ak"/><use transform="matrix(0.05,0,0,0.05,45.900000000000006,0)" xlink:href="#aG"/><use transform="matrix(0.05,0,0,0.05,50.900000000000006,0)" xlink:href="#ap"/><use transform="matrix(0.05,0,0,0.05,56.85,0)" xlink:href="#ar"/><use transform="matrix(0.05,0,0,0.05,66.85000000000001,0)" xlink:href="#aG"/><use transform="matrix(0.05,0,0,0.05,71.85000000000001,0)" xlink:href="#ai"/><use transform="matrix(0.05,0,0,0.05,75.80000000000001,0)" xlink:href="#ag"/><use transform="matrix(0.05,0,0,0.05,85.80000000000001,0)" xlink:href="#aj"/></g><g id="ad"><use transform="matrix(0.05,0,0,0.05,0,0)" xlink:href="#aF"/><use transform="matrix(0.05,0,0,0.05,12.950000000000001,0)" xlink:href="#ao"/><use transform="matrix(0.05,0,0,0.05,22.950000000000003,0)" xlink:href="#ah"/><use transform="matrix(0.05,0,0,0.05,32.95,0)" xlink:href="#ai"/><use transform="matrix(0.05,0,0,0.05,36.900000000000006,0)" xlink:href="#ak"/><use transform="matrix(0.05,0,0,0.05,45.900000000000006,0)" xlink:href="#aG"/><use transform="matrix(0.05,0,0,0.05,50.900000000000006,0)" xlink:href="#ao"/><use transform="matrix(0.05,0,0,0.05,60.900000000000006,0)" xlink:href="#ap"/><use transform="matrix(0.05,0,0,0.05,66.85000000000001,0)" xlink:href="#aw"/><use transform="matrix(0.05,0,0,0.05,72.80000000000001,0)" xlink:href="#ax"/></g><path fill="#333" d="M266 0h-40l-56-210L115 0H75L2-248h35L96-30l15-64 43-154h32l59 218 59-218h35" id="bo"/><path fill="#333" d="M140-251c81 0 123 46 123 126C263-46 219 4 140 4 59 4 17-45 17-125s42-126 123-126zm0 227c63 0 89-41 89-101s-29-99-89-99c-61 0-89 39-89 99S79-25 140-24" id="bp"/><g id="ae"><use transform="matrix(0.05,0,0,0.05,0,0)" xlink:href="#aF"/><use transform="matrix(0.05,0,0,0.05,12.950000000000001,0)" xlink:href="#ao"/><use transform="matrix(0.05,0,0,0.05,22.950000000000003,0)" xlink:href="#ah"/><use transform="matrix(0.05,0,0,0.05,32.95,0)" xlink:href="#ai"/><use transform="matrix(0.05,0,0,0.05,36.900000000000006,0)" xlink:href="#ak"/><use transform="matrix(0.05,0,0,0.05,45.900000000000006,0)" xlink:href="#aG"/><use transform="matrix(0.05,0,0,0.05,50.900000000000006,0)" xlink:href="#ao"/><use transform="matrix(0.05,0,0,0.05,60.900000000000006,0)" xlink:href="#ap"/><use transform="matrix(0.05,0,0,0.05,66.85000000000001,0)" xlink:href="#bo"/><use transform="matrix(0.05,0,0,0.05,83.80000000000001,0)" xlink:href="#ai"/><use transform="matrix(0.05,0,0,0.05,87.75000000000001,0)" xlink:href="#aG"/><use transform="matrix(0.05,0,0,0.05,92.75000000000001,0)" xlink:href="#al"/><use transform="matrix(0.05,0,0,0.05,102.75,0)" xlink:href="#bp"/><use transform="matrix(0.05,0,0,0.05,116.75,0)" xlink:href="#aG"/><use transform="matrix(0.05,0,0,0.05,121.75,0)" xlink:href="#al"/><use transform="matrix(0.05,0,0,0.05,131.75,0)" xlink:href="#ao"/><use transform="matrix(0.05,0,0,0.05,141.75,0)" xlink:href="#ap"/><use transform="matrix(0.05,0,0,0.05,147.7,0)" xlink:href="#aX"/><use transform="matrix(0.05,0,0,0.05,159.7,0)" xlink:href="#aA"/><use transform="matrix(0.05,0,0,0.05,168.7,0)" xlink:href="#aA"/><use transform="matrix(0.05,0,0,0.05,177.7,0)" xlink:href="#ag"/><use transform="matrix(0.05,0,0,0.05,187.7,0)" xlink:href="#aV"/><use transform="matrix(0.05,0,0,0.05,197.7,0)" xlink:href="#aj"/><use transform="matrix(0.05,0,0,0.05,207.69999999999996,0)" xlink:href="#aG"/><use transform="matrix(0.05,0,0,0.05,212.69999999999996,0)" xlink:href="#aw"/><use transform="matrix(0.05,0,0,0.05,218.64999999999998,0)" xlink:href="#ax"/></g></defs></g></svg>