<svg xmlns="http://www.w3.org/2000/svg" xmlns:xlink="http://www.w3.org/1999/xlink" xmlns:lucid="lucid" width="2507" height="1701.8"><g transform="translate(-20 -65)" lucid:page-tab-id="HWEp-vi-RSFO"><path d="M0 0h2680.45v2909.3H0z" fill="#fff"/><path d="M40 100h360v199H40z" stroke="#333" stroke-width="2" fill="#fff"/><path d="M40 137.6h360M40 196.7h360" stroke="#333" stroke-width="2" fill="none"/><use xlink:href="#a" transform="matrix(1,0,0,1,48,108) translate(150.025 14.6)"/><use xlink:href="#b" transform="matrix(1,0,0,1,52,204.7) translate(78.75000000000001 25.5)"/><use xlink:href="#c" transform="matrix(1,0,0,1,52,204.7) translate(82.20000000000002 47.1)"/><use xlink:href="#d" transform="matrix(1,0,0,1,52,204.7) translate(140.075 68.7)"/><path d="M1220 98h360v199h-360z" stroke="#333" stroke-width="2" fill="#fff"/><path d="M1220 135.6h360m-360 59.1h360" stroke="#333" stroke-width="2" fill="none"/><use xlink:href="#e" transform="matrix(1,0,0,1,1228,106) translate(138.55 14.6)"/><use xlink:href="#f" transform="matrix(1,0,0,1,1232,202.7) translate(118.625 25.5)"/><use xlink:href="#g" transform="matrix(1,0,0,1,1232,202.7) translate(92.70000000000002 47.1)"/><use xlink:href="#h" transform="matrix(1,0,0,1,1232,202.7) translate(108.6 68.7)"/><path d="M240 340h360v263H240z" stroke="#333" stroke-width="2" fill="#fff"/><path d="M240 399.2h360" stroke="#333" stroke-width="2" fill="none"/><use xlink:href="#i" transform="matrix(1,0,0,1,248,348) translate(113.57499999999999 14.799999999999999)"/><use xlink:href="#j" transform="matrix(1,0,0,1,248,348) translate(134.625 36.4)"/><use xlink:href="#k" transform="matrix(1,0,0,1,252,407.2) translate(105.6 65.19999999999999)"/><use xlink:href="#l" transform="matrix(1,0,0,1,252,407.2) translate(97.60000000000001 86.8)"/><use xlink:href="#m" transform="matrix(1,0,0,1,252,407.2) translate(102.1 108.4)"/><use xlink:href="#n" transform="matrix(1,0,0,1,252,407.2) translate(104.44999999999999 130)"/><path d="M960 860h360v415H960z" stroke="#333" stroke-width="2" fill="#fff"/><path d="M960 897.6h360M960 999.9h360" stroke="#333" stroke-width="2" fill="none"/><use xlink:href="#o" transform="matrix(1,0,0,1,968,868) translate(136.575 14.6)"/><use xlink:href="#p" transform="matrix(1,0,0,1,972,905.6) translate(150.775 25.5)"/><use xlink:href="#q" transform="matrix(1,0,0,1,972,905.6) translate(138.3 47.1)"/><use xlink:href="#r" transform="matrix(1,0,0,1,972,905.6) translate(148.775 68.7)"/><use xlink:href="#s" transform="matrix(1,0,0,1,972,1007.9) translate(115.6 25.600000000000016)"/><use xlink:href="#t" transform="matrix(1,0,0,1,972,1007.9) translate(86.67500000000001 47.20000000000002)"/><use xlink:href="#u" transform="matrix(1,0,0,1,972,1007.9) translate(109.1 68.80000000000003)"/><use xlink:href="#v" transform="matrix(1,0,0,1,972,1007.9) translate(109.07499999999999 90.40000000000003)"/><use xlink:href="#w" transform="matrix(1,0,0,1,972,1007.9) translate(109.05 112.00000000000003)"/><use xlink:href="#x" transform="matrix(1,0,0,1,972,1007.9) translate(118.07499999999999 133.60000000000002)"/><use xlink:href="#y" transform="matrix(1,0,0,1,972,1007.9) translate(102.1 155.20000000000002)"/><use xlink:href="#z" transform="matrix(1,0,0,1,972,1007.9) translate(97.60000000000001 176.8)"/><use xlink:href="#A" transform="matrix(1,0,0,1,972,1007.9) translate(105.6 198.4)"/><use xlink:href="#B" transform="matrix(1,0,0,1,972,1007.9) translate(119.55 220)"/><use xlink:href="#C" transform="matrix(1,0,0,1,972,1007.9) translate(107.1 241.6)"/><path d="M1540 860h360v307h-360z" stroke="#333" stroke-width="2" fill="#fff"/><path d="M1540 897.6h360m-360 80.7h360" stroke="#333" stroke-width="2" fill="none"/><use xlink:href="#D" transform="matrix(1,0,0,1,1548,868) translate(147.55 14.6)"/><use xlink:href="#E" transform="matrix(1,0,0,1,1552,905.6) translate(153.275 25.299999999999997)"/><use xlink:href="#F" transform="matrix(1,0,0,1,1552,905.6) translate(140.8 46.9)"/><use xlink:href="#s" transform="matrix(1,0,0,1,1552,986.3000000000001) translate(115.6 25.300000000000004)"/><use xlink:href="#w" transform="matrix(1,0,0,1,1552,986.3000000000001) translate(109.05 46.900000000000006)"/><use xlink:href="#G" transform="matrix(1,0,0,1,1552,986.3000000000001) translate(113.07499999999999 68.50000000000001)"/><use xlink:href="#z" transform="matrix(1,0,0,1,1552,986.3000000000001) translate(97.60000000000001 90.10000000000002)"/><use xlink:href="#y" transform="matrix(1,0,0,1,1552,986.3000000000001) translate(102.1 111.70000000000002)"/><use xlink:href="#A" transform="matrix(1,0,0,1,1552,986.3000000000001) translate(105.6 133.3)"/><use xlink:href="#n" transform="matrix(1,0,0,1,1552,986.3000000000001) translate(104.44999999999999 154.9)"/><path d="M1128.03 809.5l3.2.42 3 1.24 2.6 2 2 2.6 1.25 3 .42 3.2v36.54h-1v-36.47l-.4-3-1.14-2.77-1.83-2.4-2.4-1.82-2.75-1.14-3-.4H681.2v-1zm-707.13-8.52l1.14 2.76 1.83 2.4 2.4 1.82 2.75 1.14 3 .4H576.2v1H431.97l-3.2-.42-3-1.24-2.6-2-2-2.6-1.25-3-.42-3.2V620.37h1v177.6zM1140.5 859h-1v-.5h1zM424.64 619.88h-9.28l4.64-14.26z" fill="#333"/><path d="M425.32 620.38h-10.64L420 604zm-9.27-1h7.9L420 607.24z" fill="#333"/><use xlink:href="#H" transform="matrix(1,0,0,1,576.2022606119184,799.2) translate(0.005000000000002558 14.4)"/><path d="M1708.03 719.5l3.2.42 3 1.24 2.6 2 2 2.6 1.25 3 .42 3.2V858.5h-1V732.03l-.4-3-1.14-2.77-1.83-2.4-2.4-1.82-2.75-1.14-3-.4h-536v-1zm-1211.2-8.52l1.14 2.76 1.83 2.4 2.4 1.82 2.75 1.14 3.02.4h559v1H507.9l-3.2-.42-3-1.24-2.6-2-2-2.6-1.25-3-.42-3.2v-87.66h1v87.6zM1720.5 859h-1v-.5h1zM500.57 619.88h-9.27l4.63-14.26z" fill="#333"/><path d="M501.26 620.38H490.6l5.33-16.38zm-9.27-1h7.88l-3.95-12.14z" fill="#333"/><use xlink:href="#H" transform="matrix(1,0,0,1,1066.9666732791113,709.2) translate(0.005000000000002558 14.4)"/><path d="M1189.5 769.5l3.23.42 3 1.24 2.6 2 2 2.6 1.23 3 .42 3.2v76.54h-1v-76.47l-.4-3-1.14-2.77-1.83-2.4-2.38-1.82-2.75-1.14-3.02-.4h-23.88v-1zM860.1 593.24l-1.24 3-2 2.6-2.6 2-3 1.24-3.2.42h-36l-3.02.4-2.76 1.14-2.4 1.83-1.82 2.4-1.14 2.75-.4 3v13.95l.4 3 1.14 2.77 1.83 2.4 2.4 1.82 2.75 1.14 3 .4h76l3.22.42 3 1.24 2.6 2 2 2.6 1.24 3 .42 3.2v106l.4 3.02 1.14 2.76 1.83 2.4 2.4 1.82 2.75 1.14 3 .4h173.55v1h-173.6l-3.2-.42-3-1.24-2.6-2-2-2.6-1.25-3-.42-3.2v-106l-.4-3.02-1.14-2.76-1.83-2.4-2.4-1.82-2.75-1.14-3-.4h-76l-3.22-.42-3-1.24-2.6-2-2-2.6-1.24-3-.42-3.2v-14.07l.42-3.2 1.24-3 2-2.6 2.6-2 3-1.25 3.2-.42h36l3.02-.4 2.76-1.14 2.4-1.83 1.82-2.4 1.14-2.75.4-3v-71.6h1v71.65zM1201.98 859h-1v-.5h1zM864.64 517.88h-9.28l4.64-14.26z" fill="#333"/><path d="M865.32 518.38h-10.64L860 502zm-9.27-1h7.9L860 505.24z" fill="#333"/><use xlink:href="#I" transform="matrix(1,0,0,1,1085.5736682584106,759.2) translate(0.005000000000002558 14.4)"/><path d="M401.5 199.5H809c.55 0 1-.45 1-1s.45-1 1-1h391.62" stroke="#333" fill="none"/><path d="M401.5 200h-.5v-1h.5z" fill="#333"/><path d="M1217.38 197.5l-14.26 4.64v-9.28z" stroke="#333" fill="#333"/><path d="M960 1420h360v242H960z" stroke="#333" stroke-width="2" fill="#fff"/><path d="M960 1457.6h360m-360 102.3h360" stroke="#333" stroke-width="2" fill="none"/><use xlink:href="#J" transform="matrix(1,0,0,1,968,1428) translate(123.55 14.6)"/><use xlink:href="#E" transform="matrix(1,0,0,1,972,1465.6) translate(153.275 25.5)"/><use xlink:href="#K" transform="matrix(1,0,0,1,972,1465.6) translate(140.8 47.1)"/><use xlink:href="#r" transform="matrix(1,0,0,1,972,1465.6) translate(148.775 68.7)"/><use xlink:href="#L" transform="matrix(1,0,0,1,972,1567.8999999999999) translate(63.20000000000003 25.5)"/><use xlink:href="#M" transform="matrix(1,0,0,1,972,1567.8999999999999) translate(63.20000000000002 47.1)"/><use xlink:href="#N" transform="matrix(1,0,0,1,972,1567.8999999999999) translate(109.05 68.7)"/><path d="M1140.5 1402.62h-1v-52.22h1zm0-73.82h-1v-52.3h1zM1140.5 1276.5h-1v-.5h1zM1140 1417.38l-4.64-14.26h9.28z" fill="#333"/><path d="M1140 1419l-5.32-16.38h10.64zm-3.95-15.38l3.95 12.14 3.95-12.14z" fill="#333"/><use xlink:href="#I" transform="matrix(1,0,0,1,1100,1328.8019886374932) translate(0.005000000000002558 14.4)"/><path d="M1375.7 1294h-166.47l-3.02.4-2.74 1.14-2.4 1.83-1.83 2.4-1.14 2.75-.4 3v97.1h-1v-97.15l.42-3.2 1.24-3 2-2.6 2.6-2 3-1.25 3.2-.42h166.54zm344.8-12.47l-.42 3.2-1.24 3-2 2.6-2.6 2-3 1.25-3.2.42H1455.7v-1h252.27l3-.4 2.77-1.14 2.4-1.83 1.82-2.4 1.14-2.75.4-3V1168.5h1zM1720.5 1168.5h-1v-.5h1zM1197.2 1417.38l-4.64-14.26h9.27z" fill="#333"/><path d="M1197.2 1419l-5.33-16.38h10.65zm-3.95-15.38l3.95 12.14 3.94-12.14z" fill="#333"/><use xlink:href="#I" transform="matrix(1,0,0,1,1375.7024577832042,1282.7) translate(0.005000000000002558 14.4)"/><path d="M1660 1400h360v307h-360z" stroke="#333" stroke-width="2" fill="#fff"/><path d="M1660 1437.6h360m-360 102.3h360" stroke="#333" stroke-width="2" fill="none"/><use xlink:href="#O" transform="matrix(1,0,0,1,1668,1408) translate(149.025 14.6)"/><use xlink:href="#E" transform="matrix(1,0,0,1,1672,1445.6) translate(153.275 25.5)"/><use xlink:href="#P" transform="matrix(1,0,0,1,1672,1445.6) translate(135.775 47.1)"/><use xlink:href="#F" transform="matrix(1,0,0,1,1672,1445.6) translate(140.8 68.7)"/><use xlink:href="#Q" transform="matrix(1,0,0,1,1672,1547.8999999999999) translate(116.07499999999999 25.6)"/><use xlink:href="#R" transform="matrix(1,0,0,1,1672,1547.8999999999999) translate(81.12500000000001 47.2)"/><use xlink:href="#S" transform="matrix(1,0,0,1,1672,1547.8999999999999) translate(98.175 68.80000000000001)"/><use xlink:href="#T" transform="matrix(1,0,0,1,1672,1547.8999999999999) translate(110.57499999999999 90.40000000000002)"/><use xlink:href="#U" transform="matrix(1,0,0,1,1672,1547.8999999999999) translate(88.57500000000002 112.00000000000001)"/><use xlink:href="#V" transform="matrix(1,0,0,1,1672,1547.8999999999999) translate(102.075 133.6)"/><path d="M1490.5 1541.47l.4 3 1.14 2.77 1.83 2.4 2.4 1.82 2.75 1.14 3 .4h140.6v1h-140.65l-3.2-.42-3-1.24-2.6-2-2-2.6-1.25-3-.42-3.2v-70.8h1zm-9.26-402.6l3 1.23 2.6 2 2 2.6 1.24 3 .42 3.2v298.23h-1v-298.16l-.4-3-1.14-2.77-1.83-2.4-2.4-1.82-2.75-1.15-3-.4H1321.5v-1h156.53zM1321.5 1139.44h-.5v-1h.5zM1657.38 1553.5l-14.26 4.64v-9.28z" fill="#333"/><path d="M1659 1553.5l-16.38 5.32v-10.64zm-15.38 3.95l12.14-3.95-12.14-3.95z" fill="#333"/><use xlink:href="#I" transform="matrix(1,0,0,1,1450,1449.1320278943658) translate(0.005000000000002558 14.4)"/><path d="M2080 360h360v199h-360z" stroke="#333" stroke-width="2" fill="#fff"/><path d="M2080 397.6h360m-360 80.7h360" stroke="#333" stroke-width="2" fill="none"/><use xlink:href="#W" transform="matrix(1,0,0,1,2088,368) translate(128.525 14.6)"/><use xlink:href="#E" transform="matrix(1,0,0,1,2092,405.6) translate(153.275 25.299999999999997)"/><use xlink:href="#X" transform="matrix(1,0,0,1,2092,405.6) translate(135.775 46.9)"/><use xlink:href="#y" transform="matrix(1,0,0,1,2092,486.3) translate(102.1 25.299999999999997)"/><use xlink:href="#Y" transform="matrix(1,0,0,1,2092,486.3) translate(127.55 46.9)"/><path d="M2080 860h360v242h-360z" stroke="#333" stroke-width="2" fill="#fff"/><path d="M2080 897.6h360m-360 80.7h360" stroke="#333" stroke-width="2" fill="none"/><use xlink:href="#Z" transform="matrix(1,0,0,1,2088,868) translate(139.575 14.6)"/><use xlink:href="#E" transform="matrix(1,0,0,1,2092,905.6) translate(153.275 25.299999999999997)"/><use xlink:href="#aa" transform="matrix(1,0,0,1,2092,905.6) translate(142.775 46.9)"/><use xlink:href="#ab" transform="matrix(1,0,0,1,2092,986.3000000000001) translate(128.075 25.19999999999999)"/><use xlink:href="#ac" transform="matrix(1,0,0,1,2092,986.3000000000001) translate(120.14999999999999 46.79999999999999)"/><use xlink:href="#ad" transform="matrix(1,0,0,1,2092,986.3000000000001) translate(132.075 68.39999999999999)"/><use xlink:href="#ae" transform="matrix(1,0,0,1,2092,986.3000000000001) translate(109.07499999999999 90)"/><path d="M2240 1360.5h160v121h-160z" stroke="#333" stroke-width="2" fill="#fff"/><use xlink:href="#af" transform="matrix(1,0,0,1,2248,1368.5) translate(43.525 56.1)"/><path d="M2130.5 1541.53l-.42 3.2-1.24 3-2 2.6-2.6 2-3 1.25-3.2.42h-96.54v-1h96.47l3-.4 2.77-1.14 2.4-1.83 1.82-2.4 1.14-2.75.4-3v-13.72h1zm92.12-120.03h-80.6l-3 .4-2.76 1.14-2.4 1.83-1.82 2.4-1.14 2.75-.4 3v73.14h-1v-73.2l.42-3.2 1.24-3 2-2.6 2.6-2 3-1.24 3.2-.42h80.66zM2021.5 1554h-.5v-1h.5zM2237.38 1421l-14.26 4.64v-9.28z" fill="#333"/><path d="M2239 1421l-16.38 5.32v-10.64zm-15.38 3.95l12.14-3.95-12.14-3.95z" fill="#333"/><use xlink:href="#I" transform="matrix(1,0,0,1,2090,1506.161417104382) translate(0.005000000000002558 14.4)"/><path d="M2240 1560h160v121h-160z" stroke="#333" stroke-width="2" fill="#fff"/><use xlink:href="#ag" transform="matrix(1,0,0,1,2248,1568) translate(1.5999999999999943 56.1)"/><path d="M2200 1619h240v60h-240z" stroke="#000" stroke-opacity="0" stroke-width="2" fill="#fff" fill-opacity="0"/><use xlink:href="#ah" transform="matrix(1,0,0,1,2205,1624) translate(85.025 28.6)"/><path d="M2222.62 1620v1H2170v-1zm-201.12-13.97v-1h68.5v1zM2021.5 1606.03h-.5v-1h.5zM2237.38 1620.5l-14.26 4.64v-9.28z" fill="#333"/><path d="M2239 1620.5l-16.38 5.32v-10.64zm-15.38 3.95l12.14-3.95-12.14-3.95z" fill="#333"/><use xlink:href="#I" transform="matrix(1,0,0,1,2090,1602.213496354685) translate(0.005000000000002558 14.4)"/><path d="M1957.6 1382.62h-1v-242.77h1zm120.9-401.12h-109.38l-3 .4-2.77 1.14-2.4 1.83-1.82 2.4L1958 990l-.4 3v125.23h-1V992.97l.4-3.2 1.25-3 2-2.6 2.6-2 3-1.25 3.2-.42h109.45zM2079 981.5h-.5v-1h.5zM1957.1 1397.38l-4.64-14.26h9.27z" fill="#333"/><path d="M1957.1 1399l-5.33-16.38h10.64zm-3.96-15.38l3.95 12.14 3.94-12.14z" fill="#333"/><use xlink:href="#I" transform="matrix(1,0,0,1,1917.090628036092,1118.2453140180462) translate(0.005000000000002558 14.4)"/><path d="M2040 85h360v199h-360z" stroke="#333" stroke-width="2" fill="#fff"/><path d="M2040 122.6h360m-360 59.1h360" stroke="#333" stroke-width="2" fill="none"/><use xlink:href="#ai" transform="matrix(1,0,0,1,2048,93) translate(124.1 14.6)"/><use xlink:href="#ac" transform="matrix(1,0,0,1,2052,189.7) translate(120.14999999999999 25.5)"/><use xlink:href="#aj" transform="matrix(1,0,0,1,2052,189.7) translate(128.625 47.1)"/><use xlink:href="#ak" transform="matrix(1,0,0,1,2052,189.7) translate(55.70000000000002 68.7)"/><path d="M2038.5 184.5h-441.12" stroke="#333" fill="none"/><path d="M2039 185h-.5v-1h.5z" fill="#333"/><path d="M1582.62 184.5l14.26-4.64v9.28z" stroke="#333" fill="#333"/><path d="M1486.46 427.1h-244.43l-3 .38-2.77 1.14-2.4 1.84-1.82 2.4-1.14 2.74-.4 3.02v387.35l.4 3 1.14 2.77 1.83 2.4 2.4 1.82 2.75 1.14 3 .4h7.1v-6.53l.42-3.2 1.24-3 2-2.6 2.6-2 3-1.25 3.2-.42h18.64l3.27.56 2.84 1.56 2.2 2.37 1.32 2.97.32 2.54-.56 3.32-1.56 2.85-2.37 2.18-3 1.33-2.5.32h-30.1v20h-1v-20h-7.13l-3.2-.42-3-1.24-2.6-2-2-2.6-1.25-3-.42-3.2v-387.5l.42-3.2 1.24-3 2-2.6 2.6-2 3-1.23 3.2-.4h244.5zm-224.8 392.4l-3.03.4-2.75 1.14-2.4 1.83-1.83 2.4-1.14 2.75-.4 3v6.48h30.04l2.3-.3 2.7-1.2 2.12-1.96 1.4-2.56.5-3-.28-2.24-1.2-2.7-1.96-2.12-2.56-1.4-3.03-.52zm800.96-392.4h-496.16v-1h496.16zM1250.1 859h-1v-.5h1zM2077.38 426.6l-14.26 4.62v-9.27z" fill="#333"/><path d="M2079 426.6l-16.38 5.3v-10.64zm-15.38 3.93l12.14-3.94-12.14-3.96z" fill="#333"/><use xlink:href="#I" transform="matrix(1,0,0,1,1486.4581350885655,415.78758743276893) translate(0.005000000000002558 14.4)"/><path d="M860.5 592.03l-.42 3.2-1.24 3-2 2.6-2.6 2-3 1.25-3.2.42h-36l-3.02.4-2.76 1.14-2.4 1.83-1.82 2.4-1.14 2.75-.4 3v1121.95l.4 3 1.14 2.77 1.83 2.4 2.4 1.82 2.75 1.14 3 .4h856.35v1h-856.4l-3.2-.42-3-1.24-2.6-2-2-2.6-1.25-3-.42-3.2V615.96l.42-3.2 1.24-3 2-2.6 2.6-2 3-1.25 3.2-.42h36l3.02-.4 2.76-1.14 2.4-1.83 1.82-2.4 1.14-2.75.4-3v-73.6h1zm1460 1146l-.42 3.2-1.24 3-2 2.6-2.6 2-3 1.25-3.2.42h-559.67v-1h559.6l3-.4 2.77-1.14 2.4-1.83 1.82-2.4 1.14-2.75.4-3v-58.48h1z" fill="#333"/><path d="M2320.5 1679.5h-1v-.5h1zM864.64 517.88h-9.28l4.64-14.26z" fill="#333"/><path d="M865.32 518.38h-10.64L860 502zm-9.27-1h7.9L860 505.24z" fill="#333"/><use xlink:href="#I" transform="matrix(1,0,0,1,1668.3704073861863,1739.2) translate(0.005000000000002558 14.4)"/><path d="M1400 520h300v155h-300z" stroke="#333" stroke-width="2" fill="#fff"/><path d="M1400 557.6h300m-300 48.1h300" stroke="#333" stroke-width="2" fill="none"/><use xlink:href="#al" transform="matrix(1,0,0,1,1408,528) translate(123.05 14.6)"/><use xlink:href="#F" transform="matrix(1,0,0,1,1412,565.6) translate(110.8 20.1)"/><use xlink:href="#s" transform="matrix(1,0,0,1,1412,613.7) translate(85.6 19.799999999999997)"/><use xlink:href="#am" transform="matrix(1,0,0,1,1412,613.7) translate(81.125 41.4)"/><path d="M1293.88 858.5h-1V686.24h1zm88.74-260.5h-77.2l-3.03.4-2.76 1.14-2.4 1.83-1.83 2.4-1.13 2.75-.4 3v55.12h-1v-55.17l.43-3.2 1.24-3 2-2.6 2.6-2 3-1.25 3.2-.42h77.28zM1293.88 859h-1v-.5h1zM1397.38 597.5l-14.26 4.64v-9.28z" fill="#333"/><path d="M1399 597.5l-16.38 5.32v-10.64zm-15.38 3.95l12.14-3.95-12.14-3.95z" fill="#333"/><g><use xlink:href="#H" transform="matrix(1,0,0,1,1240.875875623501,664.6379378117506) translate(0.005000000000002558 14.4)"/></g><path d="M1847.98 858.5h-1V665.8h1zm-9.25-261.08l3 1.24 2.6 2 2 2.6 1.23 3 .42 3.2v34.75h-1v-34.67l-.4-3-1.13-2.77-1.84-2.4-2.38-1.82-2.75-1.14-3.02-.4h-118.07v-1h118.14zM1847.98 859h-1v-.5h1zM1716.88 602.14l-14.26-4.64 14.26-4.64z" fill="#333"/><path d="M1717.38 602.82L1701 597.5l16.38-5.32zm-13.14-5.32l12.14 3.95v-7.9z" fill="#333"/><g><use xlink:href="#H" transform="matrix(1,0,0,1,1794.9835821888225,644.2082089055888) translate(0.005000000000002558 14.4)"/></g><path d="M2320.5 1359h-1v-116.95h1zm-.1-138.55h-1v-101.07h1zM2320.5 1359.5h-1v-.5h1zM2324.53 1118.88h-9.27l4.63-14.26z" fill="#333"/><path d="M2325.22 1119.38h-10.65l5.32-16.38zm-9.27-1h7.9l-3.96-12.14z" fill="#333"/><g><use xlink:href="#I" transform="matrix(1,0,0,1,2279.946959417787,1220.45) translate(0.005000000000002558 14.4)"/></g><path d="M2260.22 1263.25l3.22.42 3 1.24 2.6 2 2 2.6 1.23 3 .42 3.22V1359h-1v-83.22l-.4-3-1.14-2.77-1.84-2.38-2.4-1.83-2.74-1.15-3.02-.4h-85.95v-1zm-397.46-8.52l1.14 2.76 1.83 2.38 2.4 1.83 2.75 1.15 3 .4h220.33v1h-220.37l-3.2-.42-3-1.24-2.6-2-2-2.6-1.25-3-.42-3.22v-67.4h1v67.34zM2272.7 1359.5h-1v-.5h1zM1866.5 1183.88h-9.27l4.63-14.26z" fill="#333"/><path d="M1867.18 1184.38h-10.64l5.32-16.38zm-9.27-1h7.9l-3.94-12.14z" fill="#333"/><g><use xlink:href="#I" transform="matrix(1,0,0,1,2094.2051745756544,1252.95) translate(0.005000000000002558 14.4)"/></g><path d="M2481.5 1409.03l-.42 3.2-1.24 3-2 2.6-2.6 2-3 1.25-3.2.42h-67.54v-1h67.47l3-.4 2.77-1.14 2.4-1.83 1.82-2.4 1.14-2.75.4-3V1167h1zm-9.26-949.6l3 1.23 2.6 2 2 2.6 1.24 3 .42 3.2v673.96h-1v-673.9l-.4-3-1.14-2.76-1.83-2.4-2.4-1.82-2.75-1.14-3-.4h-11.6v-1h11.65zM2401.5 1421.5h-.5v-1h.5zM2456.88 464.14l-14.26-4.64 14.26-4.64z" fill="#333"/><path d="M2457.38 464.82L2441 459.5l16.38-5.32zm-13.14-5.32l12.14 3.95v-7.9z" fill="#333"/><g><use xlink:href="#I" transform="matrix(1,0,0,1,2441,1145.4163398875326) translate(0.005000000000002558 14.4)"/></g><path d="M680 280h360v221H680z" stroke="#333" stroke-width="2" fill="#fff"/><path d="M680 317.6h360m-360 59.1h360" stroke="#333" stroke-width="2" fill="none"/><g><use xlink:href="#an" transform="matrix(1,0,0,1,688,288) translate(144.025 14.6)"/></g><g><use xlink:href="#ao" transform="matrix(1,0,0,1,692,384.70000000000005) translate(111.125 25.19999999999999)"/><use xlink:href="#ap" transform="matrix(1,0,0,1,692,384.70000000000005) translate(92.17500000000001 46.79999999999999)"/><use xlink:href="#aq" transform="matrix(1,0,0,1,692,384.70000000000005) translate(119.625 68.39999999999999)"/><use xlink:href="#ar" transform="matrix(1,0,0,1,692,384.70000000000005) translate(114.07499999999999 90)"/></g><path d="M1774.07 353.7l3 1.24 2.6 2 2 2.6 1.23 3 .42 3.2V858.5h-1V365.8l-.4-3-1.14-2.76-1.83-2.4-2.4-1.82-2.75-1.14-3-.4h-486.9v-1h486.95zm-716.7.58v-1h146.53v1zM1783.32 859h-1v-.5h1zM1056.88 358.42l-14.26-4.64 14.26-4.64z" fill="#333"/><path d="M1057.38 359.1l-16.38-5.32 16.38-5.32zm-13.14-5.32l12.14 3.95v-7.9z" fill="#333"/><g><use xlink:href="#I" transform="matrix(1,0,0,1,1203.901310609797,342.98007328655945) translate(0.005000000000002558 14.4)"/></g><path d="M1550.5 518.5h-1v-81.1h1zm-12.47-139l3.2.42 3 1.24 2.6 2 2 2.6 1.25 3 .42 3.2v23.83h-1v-23.77l-.4-3-1.14-2.77-1.83-2.4-2.4-1.82-2.75-1.14-3-.4h-29.87v-1zm-137.13-8.52l1.14 2.76 1.83 2.4 2.4 1.82 2.75 1.14 3 .4h16.1v1h-16.15l-3.2-.42-3-1.24-2.6-2-2-2.6-1.25-3-.42-3.2v-53.66h1v53.6zM1550.5 519h-1v-.5h1zM1404.64 313.88h-9.28l4.64-14.26z" fill="#333"/><path d="M1405.32 314.38h-10.64L1400 298zm-9.27-1h7.9l-3.95-12.14z" fill="#333"/><g><use xlink:href="#I" transform="matrix(1,0,0,1,1428.1063510004014,369.2) translate(0.005000000000002558 14.4)"/></g><path d="M1321.5 919.62h201.12" stroke="#333" fill="none"/><path d="M1321.5 920.12h-.5v-1h.5z" fill="#333"/><path d="M1537.38 919.62l-14.26 4.63v-9.27z" stroke="#333" fill="#333"/><path d="M1538.5 948.4h-201.12" stroke="#333" fill="none"/><path d="M1539 948.9h-.5v-1h.5z" fill="#333"/><path d="M1322.62 948.4l14.26-4.63v9.27z" stroke="#333" fill="#333"/><defs><path fill="#333" d="M30 0v-248h33v221h125V0H30" id="as"/><path fill="#333" d="M100-194c62-1 85 37 85 99 1 63-27 99-86 99S16-35 15-95c0-66 28-99 85-99zM99-20c44 1 53-31 53-75 0-43-8-75-51-75s-53 32-53 75 10 74 51 75" id="at"/><path fill="#333" d="M177-190C167-65 218 103 67 71c-23-6-38-20-44-43l32-5c15 47 100 32 89-28v-30C133-14 115 1 83 1 29 1 15-40 15-95c0-56 16-97 71-98 29-1 48 16 59 35 1-10 0-23 2-32h30zM94-22c36 0 50-32 50-73 0-42-14-75-50-75-39 0-46 34-46 75s6 73 46 73" id="au"/><path fill="#333" d="M24-231v-30h32v30H24zM24 0v-190h32V0H24" id="av"/><path fill="#333" d="M117-194c89-4 53 116 60 194h-32v-121c0-31-8-49-39-48C34-167 62-67 57 0H25l-1-190h30c1 10-1 24 2 32 11-22 29-35 61-36" id="aw"/><g id="a"><use transform="matrix(0.05,0,0,0.05,0,0)" xlink:href="#as"/><use transform="matrix(0.05,0,0,0.05,10,0)" xlink:href="#at"/><use transform="matrix(0.05,0,0,0.05,20,0)" xlink:href="#au"/><use transform="matrix(0.05,0,0,0.05,30,0)" xlink:href="#av"/><use transform="matrix(0.05,0,0,0.05,33.95,0)" xlink:href="#aw"/></g><path fill="#333" d="M135-143c-3-34-86-38-87 0 15 53 115 12 119 90S17 21 10-45l28-5c4 36 97 45 98 0-10-56-113-15-118-90-4-57 82-63 122-42 12 7 21 19 24 35" id="ax"/><path fill="#333" d="M106-169C34-169 62-67 57 0H25v-261h32l-1 103c12-21 28-36 61-36 89 0 53 116 60 194h-32v-121c2-32-8-49-39-48" id="ay"/><path fill="#333" d="M206 0h-36l-40-164L89 0H53L-1-190h32L70-26l43-164h34l41 164 42-164h31" id="az"/><path fill="#333" d="M232-93c-1 65-40 97-104 97C67 4 28-28 28-90v-158h33c8 89-33 224 67 224 102 0 64-133 71-224h33v155" id="aA"/><path fill="#333" d="M100-194c63 0 86 42 84 106H49c0 40 14 67 53 68 26 1 43-12 49-29l28 8c-11 28-37 45-77 45C44 4 14-33 15-96c1-61 26-98 85-98zm52 81c6-60-76-77-97-28-3 7-6 17-6 28h103" id="aB"/><path fill="#333" d="M114-163C36-179 61-72 57 0H25l-1-190h30c1 12-1 29 2 39 6-27 23-49 58-41v29" id="aC"/><path fill="#333" d="M190 0L58-211 59 0H30v-248h39L202-35l-2-213h31V0h-41" id="aD"/><path fill="#333" d="M141-36C126-15 110 5 73 4 37 3 15-17 15-53c-1-64 63-63 125-63 3-35-9-54-41-54-24 1-41 7-42 31l-33-3c5-37 33-52 76-52 45 0 72 20 72 64v82c-1 20 7 32 28 27v20c-31 9-61-2-59-35zM48-53c0 20 12 33 32 33 41-3 63-29 60-74-43 2-92-5-92 41" id="aE"/><path fill="#333" d="M210-169c-67 3-38 105-44 169h-31v-121c0-29-5-50-35-48C34-165 62-65 56 0H25l-1-190h30c1 10-1 24 2 32 10-44 99-50 107 0 11-21 27-35 58-36 85-2 47 119 55 194h-31v-121c0-29-5-49-35-48" id="aF"/><path fill="#333" d="M63-220v92h138v28H63V0H30v-248h175v28H63" id="aG"/><path fill="#333" d="M24 0v-261h32V0H24" id="aH"/><path fill="#333" d="M85-194c31 0 48 13 60 33l-1-100h32l1 261h-30c-2-10 0-23-3-31C134-8 116 4 85 4 32 4 16-35 15-94c0-66 23-100 70-100zm9 24c-40 0-46 34-46 75 0 40 6 74 45 74 42 0 51-32 51-76 0-42-9-74-50-73" id="aI"/><path fill="#333" d="M87 75C49 33 22-17 22-94c0-76 28-126 65-167h31c-38 41-64 92-64 168S80 34 118 75H87" id="aJ"/><path fill="#333" d="M33-261c38 41 65 92 65 168S71 34 33 75H2C39 34 66-17 66-93S39-220 2-261h31" id="aK"/><g id="b"><use transform="matrix(0.05,0,0,0.05,0,0)" xlink:href="#ax"/><use transform="matrix(0.05,0,0,0.05,9,0)" xlink:href="#ay"/><use transform="matrix(0.05,0,0,0.05,19,0)" xlink:href="#at"/><use transform="matrix(0.05,0,0,0.05,29,0)" xlink:href="#az"/><use transform="matrix(0.05,0,0,0.05,41.95,0)" xlink:href="#aA"/><use transform="matrix(0.05,0,0,0.05,54.900000000000006,0)" xlink:href="#ax"/><use transform="matrix(0.05,0,0,0.05,63.900000000000006,0)" xlink:href="#aB"/><use transform="matrix(0.05,0,0,0.05,73.9,0)" xlink:href="#aC"/><use transform="matrix(0.05,0,0,0.05,79.85000000000001,0)" xlink:href="#aD"/><use transform="matrix(0.05,0,0,0.05,92.80000000000001,0)" xlink:href="#aE"/><use transform="matrix(0.05,0,0,0.05,102.80000000000001,0)" xlink:href="#aF"/><use transform="matrix(0.05,0,0,0.05,117.75,0)" xlink:href="#aB"/><use transform="matrix(0.05,0,0,0.05,127.75,0)" xlink:href="#aG"/><use transform="matrix(0.05,0,0,0.05,138.70000000000002,0)" xlink:href="#av"/><use transform="matrix(0.05,0,0,0.05,142.65,0)" xlink:href="#aB"/><use transform="matrix(0.05,0,0,0.05,152.65,0)" xlink:href="#aH"/><use transform="matrix(0.05,0,0,0.05,156.6,0)" xlink:href="#aI"/><use transform="matrix(0.05,0,0,0.05,166.6,0)" xlink:href="#aJ"/><use transform="matrix(0.05,0,0,0.05,172.54999999999998,0)" xlink:href="#aK"/></g><path fill="#333" d="M30-248c87 1 191-15 191 75 0 78-77 80-158 76V0H30v-248zm33 125c57 0 124 11 124-50 0-59-68-47-124-48v98" id="aL"/><g id="c"><use transform="matrix(0.05,0,0,0.05,0,0)" xlink:href="#ax"/><use transform="matrix(0.05,0,0,0.05,9,0)" xlink:href="#ay"/><use transform="matrix(0.05,0,0,0.05,19,0)" xlink:href="#at"/><use transform="matrix(0.05,0,0,0.05,29,0)" xlink:href="#az"/><use transform="matrix(0.05,0,0,0.05,41.95,0)" xlink:href="#aL"/><use transform="matrix(0.05,0,0,0.05,53.95,0)" xlink:href="#aE"/><use transform="matrix(0.05,0,0,0.05,63.95,0)" xlink:href="#ax"/><use transform="matrix(0.05,0,0,0.05,72.95,0)" xlink:href="#ax"/><use transform="matrix(0.05,0,0,0.05,81.95,0)" xlink:href="#az"/><use transform="matrix(0.05,0,0,0.05,94.9,0)" xlink:href="#at"/><use transform="matrix(0.05,0,0,0.05,104.9,0)" xlink:href="#aC"/><use transform="matrix(0.05,0,0,0.05,110.85000000000001,0)" xlink:href="#aI"/><use transform="matrix(0.05,0,0,0.05,120.85000000000001,0)" xlink:href="#aG"/><use transform="matrix(0.05,0,0,0.05,131.8,0)" xlink:href="#av"/><use transform="matrix(0.05,0,0,0.05,135.75,0)" xlink:href="#aB"/><use transform="matrix(0.05,0,0,0.05,145.75,0)" xlink:href="#aH"/><use transform="matrix(0.05,0,0,0.05,149.7,0)" xlink:href="#aI"/><use transform="matrix(0.05,0,0,0.05,159.7,0)" xlink:href="#aJ"/><use transform="matrix(0.05,0,0,0.05,165.64999999999998,0)" xlink:href="#aK"/></g><g id="d"><use transform="matrix(0.05,0,0,0.05,0,0)" xlink:href="#as"/><use transform="matrix(0.05,0,0,0.05,10,0)" xlink:href="#at"/><use transform="matrix(0.05,0,0,0.05,20,0)" xlink:href="#au"/><use transform="matrix(0.05,0,0,0.05,30,0)" xlink:href="#av"/><use transform="matrix(0.05,0,0,0.05,33.95,0)" xlink:href="#aw"/><use transform="matrix(0.05,0,0,0.05,43.95,0)" xlink:href="#aJ"/><use transform="matrix(0.05,0,0,0.05,49.900000000000006,0)" xlink:href="#aK"/></g><path fill="#333" d="M212-179c-10-28-35-45-73-45-59 0-87 40-87 99 0 60 29 101 89 101 43 0 62-24 78-52l27 14C228-24 195 4 139 4 59 4 22-46 18-125c-6-104 99-153 187-111 19 9 31 26 39 46" id="aM"/><path fill="#333" d="M96-169c-40 0-48 33-48 73s9 75 48 75c24 0 41-14 43-38l32 2c-6 37-31 61-74 61-59 0-76-41-82-99-10-93 101-131 147-64 4 7 5 14 7 22l-32 3c-4-21-16-35-41-35" id="aN"/><path fill="#333" d="M143 0L79-87 56-68V0H24v-261h32v163l83-92h37l-77 82L181 0h-38" id="aO"/><g id="e"><use transform="matrix(0.05,0,0,0.05,0,0)" xlink:href="#aM"/><use transform="matrix(0.05,0,0,0.05,12.950000000000001,0)" xlink:href="#ay"/><use transform="matrix(0.05,0,0,0.05,22.950000000000003,0)" xlink:href="#aB"/><use transform="matrix(0.05,0,0,0.05,32.95,0)" xlink:href="#aN"/><use transform="matrix(0.05,0,0,0.05,41.95,0)" xlink:href="#aO"/><use transform="matrix(0.05,0,0,0.05,50.95,0)" xlink:href="#aB"/><use transform="matrix(0.05,0,0,0.05,60.95,0)" xlink:href="#aC"/></g><path fill="#333" d="M108 0H70L1-190h34L89-25l56-165h34" id="aP"/><path fill="#333" d="M101-234c-31-9-42 10-38 44h38v23H63V0H32v-167H5v-23h27c-7-52 17-82 69-68v24" id="aQ"/><path fill="#333" d="M179-190L93 31C79 59 56 82 12 73V49c39 6 53-20 64-50L1-190h34L92-34l54-156h33" id="aR"/><g id="f"><use transform="matrix(0.05,0,0,0.05,0,0)" xlink:href="#aP"/><use transform="matrix(0.05,0,0,0.05,9,0)" xlink:href="#aB"/><use transform="matrix(0.05,0,0,0.05,19,0)" xlink:href="#aC"/><use transform="matrix(0.05,0,0,0.05,24.95,0)" xlink:href="#av"/><use transform="matrix(0.05,0,0,0.05,28.899999999999995,0)" xlink:href="#aQ"/><use transform="matrix(0.05,0,0,0.05,33.9,0)" xlink:href="#aR"/><use transform="matrix(0.05,0,0,0.05,42.9,0)" xlink:href="#as"/><use transform="matrix(0.05,0,0,0.05,52.900000000000006,0)" xlink:href="#at"/><use transform="matrix(0.05,0,0,0.05,62.900000000000006,0)" xlink:href="#au"/><use transform="matrix(0.05,0,0,0.05,72.9,0)" xlink:href="#av"/><use transform="matrix(0.05,0,0,0.05,76.85000000000001,0)" xlink:href="#aw"/><use transform="matrix(0.05,0,0,0.05,86.85000000000001,0)" xlink:href="#aJ"/><use transform="matrix(0.05,0,0,0.05,92.80000000000001,0)" xlink:href="#aK"/></g><path fill="#333" d="M233-177c-1 41-23 64-60 70L243 0h-38l-65-103H63V0H30v-248c88 3 205-21 203 71zM63-129c60-2 137 13 137-47 0-61-80-42-137-45v92" id="aS"/><path fill="#333" d="M59-47c-2 24 18 29 38 22v24C64 9 27 4 27-40v-127H5v-23h24l9-43h21v43h35v23H59v120" id="aT"/><g id="g"><use transform="matrix(0.05,0,0,0.05,0,0)" xlink:href="#aP"/><use transform="matrix(0.05,0,0,0.05,9,0)" xlink:href="#aB"/><use transform="matrix(0.05,0,0,0.05,19,0)" xlink:href="#aC"/><use transform="matrix(0.05,0,0,0.05,24.95,0)" xlink:href="#av"/><use transform="matrix(0.05,0,0,0.05,28.899999999999995,0)" xlink:href="#aQ"/><use transform="matrix(0.05,0,0,0.05,33.9,0)" xlink:href="#aR"/><use transform="matrix(0.05,0,0,0.05,42.9,0)" xlink:href="#aS"/><use transform="matrix(0.05,0,0,0.05,55.85,0)" xlink:href="#aB"/><use transform="matrix(0.05,0,0,0.05,65.85,0)" xlink:href="#au"/><use transform="matrix(0.05,0,0,0.05,75.85,0)" xlink:href="#av"/><use transform="matrix(0.05,0,0,0.05,79.8,0)" xlink:href="#ax"/><use transform="matrix(0.05,0,0,0.05,88.8,0)" xlink:href="#aT"/><use transform="matrix(0.05,0,0,0.05,93.8,0)" xlink:href="#aC"/><use transform="matrix(0.05,0,0,0.05,99.75,0)" xlink:href="#aE"/><use transform="matrix(0.05,0,0,0.05,109.75,0)" xlink:href="#aT"/><use transform="matrix(0.05,0,0,0.05,114.75,0)" xlink:href="#av"/><use transform="matrix(0.05,0,0,0.05,118.7,0)" xlink:href="#at"/><use transform="matrix(0.05,0,0,0.05,128.7,0)" xlink:href="#aw"/><use transform="matrix(0.05,0,0,0.05,138.7,0)" xlink:href="#aJ"/><use transform="matrix(0.05,0,0,0.05,144.64999999999998,0)" xlink:href="#aK"/></g><path fill="#333" d="M33 0v-248h34V0H33" id="aU"/><g id="h"><use transform="matrix(0.05,0,0,0.05,0,0)" xlink:href="#ax"/><use transform="matrix(0.05,0,0,0.05,9,0)" xlink:href="#aB"/><use transform="matrix(0.05,0,0,0.05,19,0)" xlink:href="#aw"/><use transform="matrix(0.05,0,0,0.05,29,0)" xlink:href="#aI"/><use transform="matrix(0.05,0,0,0.05,39,0)" xlink:href="#aA"/><use transform="matrix(0.05,0,0,0.05,51.95,0)" xlink:href="#ax"/><use transform="matrix(0.05,0,0,0.05,60.95,0)" xlink:href="#aB"/><use transform="matrix(0.05,0,0,0.05,70.95,0)" xlink:href="#aC"/><use transform="matrix(0.05,0,0,0.05,76.9,0)" xlink:href="#aU"/><use transform="matrix(0.05,0,0,0.05,81.9,0)" xlink:href="#aw"/><use transform="matrix(0.05,0,0,0.05,91.9,0)" xlink:href="#aQ"/><use transform="matrix(0.05,0,0,0.05,96.9,0)" xlink:href="#at"/><use transform="matrix(0.05,0,0,0.05,106.9,0)" xlink:href="#aJ"/><use transform="matrix(0.05,0,0,0.05,112.85000000000001,0)" xlink:href="#aK"/></g><path d="M15-91v-56l181-69v40L49-119l147 57v40" id="aV"/><path d="M25-224v-37h50v37H25zM25 0v-190h50V0H25" id="aW"/><path d="M135-194c87-1 58 113 63 194h-50c-7-57 23-157-34-157-59 0-34 97-39 157H25l-1-190h47c2 12-1 28 3 38 12-26 28-41 61-42" id="aX"/><path d="M115-3C79 11 28 4 28-45v-112H4v-33h27l15-45h31v45h36v33H77v99c-1 23 16 31 38 25v30" id="aY"/><path d="M185-48c-13 30-37 53-82 52C43 2 14-33 14-96s30-98 90-98c62 0 83 45 84 108H66c0 31 8 55 39 56 18 0 30-7 34-22zm-45-69c5-46-57-63-70-21-2 6-4 13-4 21h74" id="aZ"/><path d="M135-150c-39-12-60 13-60 57V0H25l-1-190h47c2 13-1 29 3 40 6-28 27-53 61-41v41" id="ba"/><path d="M121-226c-27-7-43 5-38 36h38v33H83V0H34v-157H6v-33h28c-9-59 32-81 87-68v32" id="bb"/><path d="M133-34C117-15 103 5 69 4 32 3 11-16 11-54c-1-60 55-63 116-61 1-26-3-47-28-47-18 1-26 9-28 27l-52-2c7-38 36-58 82-57s74 22 75 68l1 82c-1 14 12 18 25 15v27c-30 8-71 5-69-32zm-48 3c29 0 43-24 42-57-32 0-66-3-65 30 0 17 8 27 23 27" id="bc"/><path d="M190-63c-7 42-38 67-86 67-59 0-84-38-90-98-12-110 154-137 174-36l-49 2c-2-19-15-32-35-32-30 0-35 28-38 64-6 74 65 87 74 30" id="bd"/><path d="M15-22v-40l146-57-146-57v-40l181 69v56" id="be"/><g id="i"><use transform="matrix(0.05,0,0,0.05,0,0)" xlink:href="#aV"/><use transform="matrix(0.05,0,0,0.05,10.5,0)" xlink:href="#aV"/><use transform="matrix(0.05,0,0,0.05,21,0)" xlink:href="#aW"/><use transform="matrix(0.05,0,0,0.05,26,0)" xlink:href="#aX"/><use transform="matrix(0.05,0,0,0.05,36.95,0)" xlink:href="#aY"/><use transform="matrix(0.05,0,0,0.05,42.900000000000006,0)" xlink:href="#aZ"/><use transform="matrix(0.05,0,0,0.05,52.900000000000006,0)" xlink:href="#ba"/><use transform="matrix(0.05,0,0,0.05,59.900000000000006,0)" xlink:href="#bb"/><use transform="matrix(0.05,0,0,0.05,65.85000000000001,0)" xlink:href="#bc"/><use transform="matrix(0.05,0,0,0.05,75.85000000000001,0)" xlink:href="#bd"/><use transform="matrix(0.05,0,0,0.05,85.85000000000001,0)" xlink:href="#aZ"/><use transform="matrix(0.05,0,0,0.05,95.85000000000001,0)" xlink:href="#be"/><use transform="matrix(0.05,0,0,0.05,106.35000000000001,0)" xlink:href="#be"/></g><path d="M24 0v-248h52v208h133V0H24" id="bf"/><path d="M110-194c64 0 96 36 96 99 0 64-35 99-97 99-61 0-95-36-95-99 0-62 34-99 96-99zm-1 164c35 0 45-28 45-65 0-40-10-65-43-65-34 0-45 26-45 65 0 36 10 65 43 65" id="bg"/><g id="j"><use transform="matrix(0.05,0,0,0.05,0,0)" xlink:href="#bf"/><use transform="matrix(0.05,0,0,0.05,10.950000000000001,0)" xlink:href="#bg"/><use transform="matrix(0.05,0,0,0.05,21.900000000000002,0)" xlink:href="#bd"/><use transform="matrix(0.05,0,0,0.05,31.900000000000002,0)" xlink:href="#bc"/><use transform="matrix(0.05,0,0,0.05,41.900000000000006,0)" xlink:href="#aY"/><use transform="matrix(0.05,0,0,0.05,47.85000000000001,0)" xlink:href="#aW"/><use transform="matrix(0.05,0,0,0.05,52.85,0)" xlink:href="#bg"/><use transform="matrix(0.05,0,0,0.05,63.80000000000001,0)" xlink:href="#aX"/></g><g id="k"><use transform="matrix(0.05,0,0,0.05,0,0)" xlink:href="#ax"/><use transform="matrix(0.05,0,0,0.05,9,0)" xlink:href="#ay"/><use transform="matrix(0.05,0,0,0.05,19,0)" xlink:href="#aE"/><use transform="matrix(0.05,0,0,0.05,29,0)" xlink:href="#aC"/><use transform="matrix(0.05,0,0,0.05,34.95,0)" xlink:href="#aB"/><use transform="matrix(0.05,0,0,0.05,44.95,0)" xlink:href="#as"/><use transform="matrix(0.05,0,0,0.05,54.95,0)" xlink:href="#at"/><use transform="matrix(0.05,0,0,0.05,64.95,0)" xlink:href="#aN"/><use transform="matrix(0.05,0,0,0.05,73.95,0)" xlink:href="#aE"/><use transform="matrix(0.05,0,0,0.05,83.95,0)" xlink:href="#aT"/><use transform="matrix(0.05,0,0,0.05,88.95,0)" xlink:href="#av"/><use transform="matrix(0.05,0,0,0.05,92.9,0)" xlink:href="#at"/><use transform="matrix(0.05,0,0,0.05,102.9,0)" xlink:href="#aw"/><use transform="matrix(0.05,0,0,0.05,112.9,0)" xlink:href="#aJ"/><use transform="matrix(0.05,0,0,0.05,118.85000000000001,0)" xlink:href="#aK"/></g><path fill="#333" d="M240 0l2-218c-23 76-54 145-80 218h-23L58-218 59 0H30v-248h44l77 211c21-75 51-140 76-211h43V0h-30" id="bh"/><path fill="#333" d="M84 4C-5 8 30-112 23-190h32v120c0 31 7 50 39 49 72-2 45-101 50-169h31l1 190h-30c-1-10 1-25-2-33-11 22-28 36-60 37" id="bi"/><path fill="#333" d="M115-194c55 1 70 41 70 98S169 2 115 4C84 4 66-9 55-30l1 105H24l-1-265h31l2 30c10-21 28-34 59-34zm-8 174c40 0 45-34 45-75s-6-73-45-74c-42 0-51 32-51 76 0 43 10 73 51 73" id="bj"/><g id="l"><use transform="matrix(0.05,0,0,0.05,0,0)" xlink:href="#ax"/><use transform="matrix(0.05,0,0,0.05,9,0)" xlink:href="#aB"/><use transform="matrix(0.05,0,0,0.05,19,0)" xlink:href="#aT"/><use transform="matrix(0.05,0,0,0.05,24,0)" xlink:href="#bh"/><use transform="matrix(0.05,0,0,0.05,38.95,0)" xlink:href="#aB"/><use transform="matrix(0.05,0,0,0.05,48.95,0)" xlink:href="#aB"/><use transform="matrix(0.05,0,0,0.05,58.95,0)" xlink:href="#aT"/><use transform="matrix(0.05,0,0,0.05,63.95,0)" xlink:href="#bi"/><use transform="matrix(0.05,0,0,0.05,73.95,0)" xlink:href="#bj"/><use transform="matrix(0.05,0,0,0.05,83.95,0)" xlink:href="#aL"/><use transform="matrix(0.05,0,0,0.05,95.95,0)" xlink:href="#aH"/><use transform="matrix(0.05,0,0,0.05,99.9,0)" xlink:href="#aE"/><use transform="matrix(0.05,0,0,0.05,109.9,0)" xlink:href="#aN"/><use transform="matrix(0.05,0,0,0.05,118.9,0)" xlink:href="#aB"/><use transform="matrix(0.05,0,0,0.05,128.9,0)" xlink:href="#aJ"/><use transform="matrix(0.05,0,0,0.05,134.85,0)" xlink:href="#aK"/></g><path fill="#333" d="M205 0l-28-72H64L36 0H1l101-248h38L239 0h-34zm-38-99l-47-123c-12 45-31 82-46 123h93" id="bk"/><g id="m"><use transform="matrix(0.05,0,0,0.05,0,0)" xlink:href="#ax"/><use transform="matrix(0.05,0,0,0.05,9,0)" xlink:href="#aB"/><use transform="matrix(0.05,0,0,0.05,19,0)" xlink:href="#aT"/><use transform="matrix(0.05,0,0,0.05,24,0)" xlink:href="#bk"/><use transform="matrix(0.05,0,0,0.05,36,0)" xlink:href="#bj"/><use transform="matrix(0.05,0,0,0.05,46,0)" xlink:href="#bj"/><use transform="matrix(0.05,0,0,0.05,56,0)" xlink:href="#at"/><use transform="matrix(0.05,0,0,0.05,66,0)" xlink:href="#av"/><use transform="matrix(0.05,0,0,0.05,69.95,0)" xlink:href="#aw"/><use transform="matrix(0.05,0,0,0.05,79.95,0)" xlink:href="#aF"/><use transform="matrix(0.05,0,0,0.05,94.9,0)" xlink:href="#aB"/><use transform="matrix(0.05,0,0,0.05,104.9,0)" xlink:href="#aw"/><use transform="matrix(0.05,0,0,0.05,114.9,0)" xlink:href="#aT"/><use transform="matrix(0.05,0,0,0.05,119.9,0)" xlink:href="#aJ"/><use transform="matrix(0.05,0,0,0.05,125.85000000000001,0)" xlink:href="#aK"/></g><path fill="#333" d="M127-220V0H93v-220H8v-28h204v28h-85" id="bl"/><g id="n"><use transform="matrix(0.05,0,0,0.05,0,0)" xlink:href="#bi"/><use transform="matrix(0.05,0,0,0.05,10,0)" xlink:href="#bj"/><use transform="matrix(0.05,0,0,0.05,20,0)" xlink:href="#aI"/><use transform="matrix(0.05,0,0,0.05,30,0)" xlink:href="#aE"/><use transform="matrix(0.05,0,0,0.05,40,0)" xlink:href="#aT"/><use transform="matrix(0.05,0,0,0.05,45,0)" xlink:href="#aB"/><use transform="matrix(0.05,0,0,0.05,55,0)" xlink:href="#bl"/><use transform="matrix(0.05,0,0,0.05,65.3,0)" xlink:href="#aC"/><use transform="matrix(0.05,0,0,0.05,71.25,0)" xlink:href="#aE"/><use transform="matrix(0.05,0,0,0.05,81.25,0)" xlink:href="#aN"/><use transform="matrix(0.05,0,0,0.05,90.25,0)" xlink:href="#aO"/><use transform="matrix(0.05,0,0,0.05,99.25,0)" xlink:href="#aB"/><use transform="matrix(0.05,0,0,0.05,109.25,0)" xlink:href="#aC"/><use transform="matrix(0.05,0,0,0.05,115.2,0)" xlink:href="#aJ"/><use transform="matrix(0.05,0,0,0.05,121.15,0)" xlink:href="#aK"/></g><g id="o"><use transform="matrix(0.05,0,0,0.05,0,0)" xlink:href="#aS"/><use transform="matrix(0.05,0,0,0.05,12.950000000000001,0)" xlink:href="#aB"/><use transform="matrix(0.05,0,0,0.05,22.950000000000003,0)" xlink:href="#aN"/><use transform="matrix(0.05,0,0,0.05,31.950000000000003,0)" xlink:href="#aB"/><use transform="matrix(0.05,0,0,0.05,41.95,0)" xlink:href="#av"/><use transform="matrix(0.05,0,0,0.05,45.900000000000006,0)" xlink:href="#aP"/><use transform="matrix(0.05,0,0,0.05,54.900000000000006,0)" xlink:href="#aB"/><use transform="matrix(0.05,0,0,0.05,64.9,0)" xlink:href="#aC"/></g><path fill="#333" d="M118-107v75H92v-75H18v-26h74v-75h26v75h74v26h-74" id="bm"/><path fill="#333" d="M33-154v-36h34v36H33zM33 0v-36h34V0H33" id="bn"/><g id="p"><use transform="matrix(0.05,0,0,0.05,0,0)" xlink:href="#bm"/><use transform="matrix(0.05,0,0,0.05,10.5,0)" xlink:href="#av"/><use transform="matrix(0.05,0,0,0.05,14.449999999999998,0)" xlink:href="#aw"/><use transform="matrix(0.05,0,0,0.05,24.45,0)" xlink:href="#aT"/><use transform="matrix(0.05,0,0,0.05,29.450000000000003,0)" xlink:href="#bn"/></g><g id="q"><use transform="matrix(0.05,0,0,0.05,0,0)" xlink:href="#bm"/><use transform="matrix(0.05,0,0,0.05,10.5,0)" xlink:href="#ax"/><use transform="matrix(0.05,0,0,0.05,19.5,0)" xlink:href="#aT"/><use transform="matrix(0.05,0,0,0.05,24.5,0)" xlink:href="#aT"/><use transform="matrix(0.05,0,0,0.05,29.5,0)" xlink:href="#aC"/><use transform="matrix(0.05,0,0,0.05,35.45,0)" xlink:href="#av"/><use transform="matrix(0.05,0,0,0.05,39.400000000000006,0)" xlink:href="#aw"/><use transform="matrix(0.05,0,0,0.05,49.400000000000006,0)" xlink:href="#au"/></g><g id="r"><use transform="matrix(0.05,0,0,0.05,0,0)" xlink:href="#bm"/><use transform="matrix(0.05,0,0,0.05,10.5,0)" xlink:href="#as"/><use transform="matrix(0.05,0,0,0.05,20.5,0)" xlink:href="#av"/><use transform="matrix(0.05,0,0,0.05,24.45,0)" xlink:href="#ax"/><use transform="matrix(0.05,0,0,0.05,33.45,0)" xlink:href="#aT"/></g><g id="s"><use transform="matrix(0.05,0,0,0.05,0,0)" xlink:href="#au"/><use transform="matrix(0.05,0,0,0.05,10,0)" xlink:href="#aB"/><use transform="matrix(0.05,0,0,0.05,20,0)" xlink:href="#aT"/><use transform="matrix(0.05,0,0,0.05,25,0)" xlink:href="#aA"/><use transform="matrix(0.05,0,0,0.05,37.95,0)" xlink:href="#ax"/><use transform="matrix(0.05,0,0,0.05,46.95,0)" xlink:href="#aB"/><use transform="matrix(0.05,0,0,0.05,56.95,0)" xlink:href="#aC"/><use transform="matrix(0.05,0,0,0.05,62.900000000000006,0)" xlink:href="#aU"/><use transform="matrix(0.05,0,0,0.05,67.9,0)" xlink:href="#aw"/><use transform="matrix(0.05,0,0,0.05,77.9,0)" xlink:href="#aQ"/><use transform="matrix(0.05,0,0,0.05,82.9,0)" xlink:href="#at"/><use transform="matrix(0.05,0,0,0.05,92.9,0)" xlink:href="#aJ"/><use transform="matrix(0.05,0,0,0.05,98.85000000000001,0)" xlink:href="#aK"/></g><path fill="#333" d="M145-31C134-9 116 4 85 4 32 4 16-35 15-94c0-59 17-99 70-100 32-1 48 14 60 33 0-11-1-24 2-32h30l-1 268h-32zM93-21c41 0 51-33 51-76s-8-73-50-73c-40 0-46 35-46 75s5 74 45 74" id="bo"/><g id="t"><use transform="matrix(0.05,0,0,0.05,0,0)" xlink:href="#ax"/><use transform="matrix(0.05,0,0,0.05,9,0)" xlink:href="#ay"/><use transform="matrix(0.05,0,0,0.05,19,0)" xlink:href="#at"/><use transform="matrix(0.05,0,0,0.05,29,0)" xlink:href="#az"/><use transform="matrix(0.05,0,0,0.05,41.95,0)" xlink:href="#aS"/><use transform="matrix(0.05,0,0,0.05,54.900000000000006,0)" xlink:href="#aB"/><use transform="matrix(0.05,0,0,0.05,64.9,0)" xlink:href="#bo"/><use transform="matrix(0.05,0,0,0.05,74.9,0)" xlink:href="#bi"/><use transform="matrix(0.05,0,0,0.05,84.9,0)" xlink:href="#aB"/><use transform="matrix(0.05,0,0,0.05,94.9,0)" xlink:href="#ax"/><use transform="matrix(0.05,0,0,0.05,103.9,0)" xlink:href="#aT"/><use transform="matrix(0.05,0,0,0.05,108.9,0)" xlink:href="#aG"/><use transform="matrix(0.05,0,0,0.05,119.85000000000001,0)" xlink:href="#at"/><use transform="matrix(0.05,0,0,0.05,129.85000000000002,0)" xlink:href="#aC"/><use transform="matrix(0.05,0,0,0.05,135.8,0)" xlink:href="#aF"/><use transform="matrix(0.05,0,0,0.05,150.75,0)" xlink:href="#aJ"/><use transform="matrix(0.05,0,0,0.05,156.7,0)" xlink:href="#aK"/></g><path fill="#333" d="M160-131c35 5 61 23 61 61C221 17 115-2 30 0v-248c76 3 177-17 177 60 0 33-19 50-47 57zm-97-11c50-1 110 9 110-42 0-47-63-36-110-37v79zm0 115c55-2 124 14 124-45 0-56-70-42-124-44v89" id="bp"/><g id="u"><use transform="matrix(0.05,0,0,0.05,0,0)" xlink:href="#aC"/><use transform="matrix(0.05,0,0,0.05,5.95,0)" xlink:href="#aB"/><use transform="matrix(0.05,0,0,0.05,15.949999999999998,0)" xlink:href="#bo"/><use transform="matrix(0.05,0,0,0.05,25.950000000000003,0)" xlink:href="#bi"/><use transform="matrix(0.05,0,0,0.05,35.95,0)" xlink:href="#aB"/><use transform="matrix(0.05,0,0,0.05,45.95,0)" xlink:href="#ax"/><use transform="matrix(0.05,0,0,0.05,54.95,0)" xlink:href="#aT"/><use transform="matrix(0.05,0,0,0.05,59.95,0)" xlink:href="#bp"/><use transform="matrix(0.05,0,0,0.05,71.95,0)" xlink:href="#aH"/><use transform="matrix(0.05,0,0,0.05,75.9,0)" xlink:href="#at"/><use transform="matrix(0.05,0,0,0.05,85.9,0)" xlink:href="#at"/><use transform="matrix(0.05,0,0,0.05,95.9,0)" xlink:href="#aI"/><use transform="matrix(0.05,0,0,0.05,105.9,0)" xlink:href="#aJ"/><use transform="matrix(0.05,0,0,0.05,111.85000000000001,0)" xlink:href="#aK"/></g><g id="v"><use transform="matrix(0.05,0,0,0.05,0,0)" xlink:href="#au"/><use transform="matrix(0.05,0,0,0.05,10,0)" xlink:href="#aB"/><use transform="matrix(0.05,0,0,0.05,20,0)" xlink:href="#aT"/><use transform="matrix(0.05,0,0,0.05,25,0)" xlink:href="#aS"/><use transform="matrix(0.05,0,0,0.05,37.95,0)" xlink:href="#aB"/><use transform="matrix(0.05,0,0,0.05,47.95,0)" xlink:href="#ax"/><use transform="matrix(0.05,0,0,0.05,56.95,0)" xlink:href="#bj"/><use transform="matrix(0.05,0,0,0.05,66.95,0)" xlink:href="#at"/><use transform="matrix(0.05,0,0,0.05,76.95,0)" xlink:href="#aw"/><use transform="matrix(0.05,0,0,0.05,86.95,0)" xlink:href="#ax"/><use transform="matrix(0.05,0,0,0.05,95.95,0)" xlink:href="#aB"/><use transform="matrix(0.05,0,0,0.05,105.95,0)" xlink:href="#aJ"/><use transform="matrix(0.05,0,0,0.05,111.9,0)" xlink:href="#aK"/></g><path fill="#333" d="M185-189c-5-48-123-54-124 2 14 75 158 14 163 119 3 78-121 87-175 55-17-10-28-26-33-46l33-7c5 56 141 63 141-1 0-78-155-14-162-118-5-82 145-84 179-34 5 7 8 16 11 25" id="bq"/><g id="w"><use transform="matrix(0.05,0,0,0.05,0,0)" xlink:href="#bi"/><use transform="matrix(0.05,0,0,0.05,10,0)" xlink:href="#bj"/><use transform="matrix(0.05,0,0,0.05,20,0)" xlink:href="#aI"/><use transform="matrix(0.05,0,0,0.05,30,0)" xlink:href="#aE"/><use transform="matrix(0.05,0,0,0.05,40,0)" xlink:href="#aT"/><use transform="matrix(0.05,0,0,0.05,45,0)" xlink:href="#aB"/><use transform="matrix(0.05,0,0,0.05,55,0)" xlink:href="#bq"/><use transform="matrix(0.05,0,0,0.05,67,0)" xlink:href="#aT"/><use transform="matrix(0.05,0,0,0.05,72,0)" xlink:href="#aE"/><use transform="matrix(0.05,0,0,0.05,82,0)" xlink:href="#aT"/><use transform="matrix(0.05,0,0,0.05,87,0)" xlink:href="#bi"/><use transform="matrix(0.05,0,0,0.05,97,0)" xlink:href="#ax"/><use transform="matrix(0.05,0,0,0.05,106,0)" xlink:href="#aJ"/><use transform="matrix(0.05,0,0,0.05,111.95,0)" xlink:href="#aK"/></g><g id="x"><use transform="matrix(0.05,0,0,0.05,0,0)" xlink:href="#aN"/><use transform="matrix(0.05,0,0,0.05,9,0)" xlink:href="#ay"/><use transform="matrix(0.05,0,0,0.05,19,0)" xlink:href="#aE"/><use transform="matrix(0.05,0,0,0.05,29,0)" xlink:href="#au"/><use transform="matrix(0.05,0,0,0.05,39,0)" xlink:href="#aB"/><use transform="matrix(0.05,0,0,0.05,49,0)" xlink:href="#bl"/><use transform="matrix(0.05,0,0,0.05,58.95,0)" xlink:href="#aR"/><use transform="matrix(0.05,0,0,0.05,67.95,0)" xlink:href="#bj"/><use transform="matrix(0.05,0,0,0.05,77.95,0)" xlink:href="#aB"/><use transform="matrix(0.05,0,0,0.05,87.95,0)" xlink:href="#aJ"/><use transform="matrix(0.05,0,0,0.05,93.9,0)" xlink:href="#aK"/></g><g id="y"><use transform="matrix(0.05,0,0,0.05,0,0)" xlink:href="#ax"/><use transform="matrix(0.05,0,0,0.05,9,0)" xlink:href="#aB"/><use transform="matrix(0.05,0,0,0.05,19,0)" xlink:href="#aT"/><use transform="matrix(0.05,0,0,0.05,24,0)" xlink:href="#bk"/><use transform="matrix(0.05,0,0,0.05,36,0)" xlink:href="#bj"/><use transform="matrix(0.05,0,0,0.05,46,0)" xlink:href="#bj"/><use transform="matrix(0.05,0,0,0.05,56,0)" xlink:href="#at"/><use transform="matrix(0.05,0,0,0.05,66,0)" xlink:href="#av"/><use transform="matrix(0.05,0,0,0.05,69.95,0)" xlink:href="#aw"/><use transform="matrix(0.05,0,0,0.05,79.95,0)" xlink:href="#aF"/><use transform="matrix(0.05,0,0,0.05,94.9,0)" xlink:href="#aB"/><use transform="matrix(0.05,0,0,0.05,104.9,0)" xlink:href="#aw"/><use transform="matrix(0.05,0,0,0.05,114.9,0)" xlink:href="#aT"/><use transform="matrix(0.05,0,0,0.05,119.9,0)" xlink:href="#aJ"/><use transform="matrix(0.05,0,0,0.05,125.85000000000001,0)" xlink:href="#aK"/></g><g id="z"><use transform="matrix(0.05,0,0,0.05,0,0)" xlink:href="#ax"/><use transform="matrix(0.05,0,0,0.05,9,0)" xlink:href="#aB"/><use transform="matrix(0.05,0,0,0.05,19,0)" xlink:href="#aT"/><use transform="matrix(0.05,0,0,0.05,24,0)" xlink:href="#bh"/><use transform="matrix(0.05,0,0,0.05,38.95,0)" xlink:href="#aB"/><use transform="matrix(0.05,0,0,0.05,48.95,0)" xlink:href="#aB"/><use transform="matrix(0.05,0,0,0.05,58.95,0)" xlink:href="#aT"/><use transform="matrix(0.05,0,0,0.05,63.95,0)" xlink:href="#bi"/><use transform="matrix(0.05,0,0,0.05,73.95,0)" xlink:href="#bj"/><use transform="matrix(0.05,0,0,0.05,83.95,0)" xlink:href="#aL"/><use transform="matrix(0.05,0,0,0.05,95.95,0)" xlink:href="#aH"/><use transform="matrix(0.05,0,0,0.05,99.9,0)" xlink:href="#aE"/><use transform="matrix(0.05,0,0,0.05,109.9,0)" xlink:href="#aN"/><use transform="matrix(0.05,0,0,0.05,118.9,0)" xlink:href="#aB"/><use transform="matrix(0.05,0,0,0.05,128.9,0)" xlink:href="#aJ"/><use transform="matrix(0.05,0,0,0.05,134.85,0)" xlink:href="#aK"/></g><g id="A"><use transform="matrix(0.05,0,0,0.05,0,0)" xlink:href="#ax"/><use transform="matrix(0.05,0,0,0.05,9,0)" xlink:href="#ay"/><use transform="matrix(0.05,0,0,0.05,19,0)" xlink:href="#aE"/><use transform="matrix(0.05,0,0,0.05,29,0)" xlink:href="#aC"/><use transform="matrix(0.05,0,0,0.05,34.95,0)" xlink:href="#aB"/><use transform="matrix(0.05,0,0,0.05,44.95,0)" xlink:href="#as"/><use transform="matrix(0.05,0,0,0.05,54.95,0)" xlink:href="#at"/><use transform="matrix(0.05,0,0,0.05,64.95,0)" xlink:href="#aN"/><use transform="matrix(0.05,0,0,0.05,73.95,0)" xlink:href="#aE"/><use transform="matrix(0.05,0,0,0.05,83.95,0)" xlink:href="#aT"/><use transform="matrix(0.05,0,0,0.05,88.95,0)" xlink:href="#av"/><use transform="matrix(0.05,0,0,0.05,92.9,0)" xlink:href="#at"/><use transform="matrix(0.05,0,0,0.05,102.9,0)" xlink:href="#aw"/><use transform="matrix(0.05,0,0,0.05,112.9,0)" xlink:href="#aJ"/><use transform="matrix(0.05,0,0,0.05,118.85000000000001,0)" xlink:href="#aK"/></g><g id="B"><use transform="matrix(0.05,0,0,0.05,0,0)" xlink:href="#bi"/><use transform="matrix(0.05,0,0,0.05,10,0)" xlink:href="#bj"/><use transform="matrix(0.05,0,0,0.05,20,0)" xlink:href="#aI"/><use transform="matrix(0.05,0,0,0.05,30,0)" xlink:href="#aE"/><use transform="matrix(0.05,0,0,0.05,40,0)" xlink:href="#aT"/><use transform="matrix(0.05,0,0,0.05,45,0)" xlink:href="#aB"/><use transform="matrix(0.05,0,0,0.05,55,0)" xlink:href="#aU"/><use transform="matrix(0.05,0,0,0.05,60,0)" xlink:href="#aw"/><use transform="matrix(0.05,0,0,0.05,70,0)" xlink:href="#aQ"/><use transform="matrix(0.05,0,0,0.05,75,0)" xlink:href="#at"/><use transform="matrix(0.05,0,0,0.05,85,0)" xlink:href="#aJ"/><use transform="matrix(0.05,0,0,0.05,90.95,0)" xlink:href="#aK"/></g><g id="C"><use transform="matrix(0.05,0,0,0.05,0,0)" xlink:href="#bi"/><use transform="matrix(0.05,0,0,0.05,10,0)" xlink:href="#bj"/><use transform="matrix(0.05,0,0,0.05,20,0)" xlink:href="#aI"/><use transform="matrix(0.05,0,0,0.05,30,0)" xlink:href="#aE"/><use transform="matrix(0.05,0,0,0.05,40,0)" xlink:href="#aT"/><use transform="matrix(0.05,0,0,0.05,45,0)" xlink:href="#aB"/><use transform="matrix(0.05,0,0,0.05,55,0)" xlink:href="#aT"/><use transform="matrix(0.05,0,0,0.05,60,0)" xlink:href="#aC"/><use transform="matrix(0.05,0,0,0.05,65.95,0)" xlink:href="#aE"/><use transform="matrix(0.05,0,0,0.05,75.95,0)" xlink:href="#aN"/><use transform="matrix(0.05,0,0,0.05,84.95,0)" xlink:href="#aO"/><use transform="matrix(0.05,0,0,0.05,93.95,0)" xlink:href="#aB"/><use transform="matrix(0.05,0,0,0.05,103.95,0)" xlink:href="#aC"/><use transform="matrix(0.05,0,0,0.05,109.9,0)" xlink:href="#aJ"/><use transform="matrix(0.05,0,0,0.05,115.85000000000001,0)" xlink:href="#aK"/></g><path fill="#333" d="M30-248c118-7 216 8 213 122C240-48 200 0 122 0H30v-248zM63-27c89 8 146-16 146-99s-60-101-146-95v194" id="br"/><g id="D"><use transform="matrix(0.05,0,0,0.05,0,0)" xlink:href="#br"/><use transform="matrix(0.05,0,0,0.05,12.950000000000001,0)" xlink:href="#at"/><use transform="matrix(0.05,0,0,0.05,22.950000000000003,0)" xlink:href="#aw"/><use transform="matrix(0.05,0,0,0.05,32.95,0)" xlink:href="#at"/><use transform="matrix(0.05,0,0,0.05,42.95,0)" xlink:href="#aC"/></g><g id="E"><use transform="matrix(0.05,0,0,0.05,0,0)" xlink:href="#bm"/><use transform="matrix(0.05,0,0,0.05,10.5,0)" xlink:href="#av"/><use transform="matrix(0.05,0,0,0.05,14.449999999999998,0)" xlink:href="#aw"/><use transform="matrix(0.05,0,0,0.05,24.45,0)" xlink:href="#aT"/></g><g id="F"><use transform="matrix(0.05,0,0,0.05,0,0)" xlink:href="#bm"/><use transform="matrix(0.05,0,0,0.05,10.5,0)" xlink:href="#ax"/><use transform="matrix(0.05,0,0,0.05,19.5,0)" xlink:href="#aT"/><use transform="matrix(0.05,0,0,0.05,24.5,0)" xlink:href="#aC"/><use transform="matrix(0.05,0,0,0.05,30.450000000000003,0)" xlink:href="#av"/><use transform="matrix(0.05,0,0,0.05,34.4,0)" xlink:href="#aw"/><use transform="matrix(0.05,0,0,0.05,44.4,0)" xlink:href="#au"/></g><g id="G"><use transform="matrix(0.05,0,0,0.05,0,0)" xlink:href="#aN"/><use transform="matrix(0.05,0,0,0.05,9,0)" xlink:href="#ay"/><use transform="matrix(0.05,0,0,0.05,19,0)" xlink:href="#aE"/><use transform="matrix(0.05,0,0,0.05,29,0)" xlink:href="#aw"/><use transform="matrix(0.05,0,0,0.05,39,0)" xlink:href="#au"/><use transform="matrix(0.05,0,0,0.05,49,0)" xlink:href="#aB"/><use transform="matrix(0.05,0,0,0.05,59,0)" xlink:href="#bl"/><use transform="matrix(0.05,0,0,0.05,68.95,0)" xlink:href="#aR"/><use transform="matrix(0.05,0,0,0.05,77.95,0)" xlink:href="#bj"/><use transform="matrix(0.05,0,0,0.05,87.95,0)" xlink:href="#aB"/><use transform="matrix(0.05,0,0,0.05,97.95,0)" xlink:href="#aJ"/><use transform="matrix(0.05,0,0,0.05,103.9,0)" xlink:href="#aK"/></g><path fill="#333" d="M18-100v-36l175-74v27L42-118l151 64v27" id="bs"/><path fill="#333" d="M141 0L90-78 38 0H4l68-98-65-92h35l48 74 47-74h35l-64 92 68 98h-35" id="bt"/><path fill="#333" d="M18-27v-27l151-64-151-65v-27l175 74v36" id="bu"/><g id="H"><use transform="matrix(0.05,0,0,0.05,0,0)" xlink:href="#bs"/><use transform="matrix(0.05,0,0,0.05,10.5,0)" xlink:href="#bs"/><use transform="matrix(0.05,0,0,0.05,21,0)" xlink:href="#aB"/><use transform="matrix(0.05,0,0,0.05,31,0)" xlink:href="#bt"/><use transform="matrix(0.05,0,0,0.05,40,0)" xlink:href="#aT"/><use transform="matrix(0.05,0,0,0.05,45,0)" xlink:href="#aB"/><use transform="matrix(0.05,0,0,0.05,55,0)" xlink:href="#aw"/><use transform="matrix(0.05,0,0,0.05,65,0)" xlink:href="#aI"/><use transform="matrix(0.05,0,0,0.05,75,0)" xlink:href="#ax"/><use transform="matrix(0.05,0,0,0.05,84,0)" xlink:href="#bu"/><use transform="matrix(0.05,0,0,0.05,94.5,0)" xlink:href="#bu"/></g><g id="I"><use transform="matrix(0.05,0,0,0.05,0,0)" xlink:href="#bs"/><use transform="matrix(0.05,0,0,0.05,10.5,0)" xlink:href="#bs"/><use transform="matrix(0.05,0,0,0.05,21,0)" xlink:href="#bi"/><use transform="matrix(0.05,0,0,0.05,31,0)" xlink:href="#ax"/><use transform="matrix(0.05,0,0,0.05,40,0)" xlink:href="#aB"/><use transform="matrix(0.05,0,0,0.05,50,0)" xlink:href="#ax"/><use transform="matrix(0.05,0,0,0.05,59,0)" xlink:href="#bu"/><use transform="matrix(0.05,0,0,0.05,69.5,0)" xlink:href="#bu"/></g><g id="J"><use transform="matrix(0.05,0,0,0.05,0,0)" xlink:href="#aA"/><use transform="matrix(0.05,0,0,0.05,12.950000000000001,0)" xlink:href="#bj"/><use transform="matrix(0.05,0,0,0.05,22.950000000000003,0)" xlink:href="#aI"/><use transform="matrix(0.05,0,0,0.05,32.95,0)" xlink:href="#aE"/><use transform="matrix(0.05,0,0,0.05,42.95,0)" xlink:href="#aT"/><use transform="matrix(0.05,0,0,0.05,47.95,0)" xlink:href="#aB"/><use transform="matrix(0.05,0,0,0.05,57.95,0)" xlink:href="#bl"/><use transform="matrix(0.05,0,0,0.05,67.9,0)" xlink:href="#aR"/><use transform="matrix(0.05,0,0,0.05,76.9,0)" xlink:href="#bj"/><use transform="matrix(0.05,0,0,0.05,86.9,0)" xlink:href="#aB"/></g><g id="K"><use transform="matrix(0.05,0,0,0.05,0,0)" xlink:href="#bm"/><use transform="matrix(0.05,0,0,0.05,10.5,0)" xlink:href="#ax"/><use transform="matrix(0.05,0,0,0.05,19.5,0)" xlink:href="#aT"/><use transform="matrix(0.05,0,0,0.05,24.5,0)" xlink:href="#aC"/><use transform="matrix(0.05,0,0,0.05,30.450000000000003,0)" xlink:href="#av"/><use transform="matrix(0.05,0,0,0.05,34.4,0)" xlink:href="#aw"/><use transform="matrix(0.05,0,0,0.05,44.4,0)" xlink:href="#au"/></g><g id="L"><use transform="matrix(0.05,0,0,0.05,0,0)" xlink:href="#aN"/><use transform="matrix(0.05,0,0,0.05,9,0)" xlink:href="#ay"/><use transform="matrix(0.05,0,0,0.05,19,0)" xlink:href="#aE"/><use transform="matrix(0.05,0,0,0.05,29,0)" xlink:href="#aw"/><use transform="matrix(0.05,0,0,0.05,39,0)" xlink:href="#au"/><use transform="matrix(0.05,0,0,0.05,49,0)" xlink:href="#aB"/><use transform="matrix(0.05,0,0,0.05,59,0)" xlink:href="#aS"/><use transform="matrix(0.05,0,0,0.05,71.95,0)" xlink:href="#aB"/><use transform="matrix(0.05,0,0,0.05,81.95,0)" xlink:href="#aN"/><use transform="matrix(0.05,0,0,0.05,90.95,0)" xlink:href="#aB"/><use transform="matrix(0.05,0,0,0.05,100.95,0)" xlink:href="#av"/><use transform="matrix(0.05,0,0,0.05,104.9,0)" xlink:href="#aP"/><use transform="matrix(0.05,0,0,0.05,113.9,0)" xlink:href="#aB"/><use transform="matrix(0.05,0,0,0.05,123.9,0)" xlink:href="#aC"/><use transform="matrix(0.05,0,0,0.05,129.85,0)" xlink:href="#bl"/><use transform="matrix(0.05,0,0,0.05,138.79999999999998,0)" xlink:href="#at"/><use transform="matrix(0.05,0,0,0.05,148.79999999999998,0)" xlink:href="#br"/><use transform="matrix(0.05,0,0,0.05,161.74999999999997,0)" xlink:href="#at"/><use transform="matrix(0.05,0,0,0.05,171.74999999999997,0)" xlink:href="#aw"/><use transform="matrix(0.05,0,0,0.05,181.74999999999997,0)" xlink:href="#at"/><use transform="matrix(0.05,0,0,0.05,191.74999999999997,0)" xlink:href="#aC"/><use transform="matrix(0.05,0,0,0.05,197.69999999999996,0)" xlink:href="#aJ"/><use transform="matrix(0.05,0,0,0.05,203.64999999999995,0)" xlink:href="#aK"/></g><g id="M"><use transform="matrix(0.05,0,0,0.05,0,0)" xlink:href="#aN"/><use transform="matrix(0.05,0,0,0.05,9,0)" xlink:href="#ay"/><use transform="matrix(0.05,0,0,0.05,19,0)" xlink:href="#aE"/><use transform="matrix(0.05,0,0,0.05,29,0)" xlink:href="#aw"/><use transform="matrix(0.05,0,0,0.05,39,0)" xlink:href="#au"/><use transform="matrix(0.05,0,0,0.05,49,0)" xlink:href="#aB"/><use transform="matrix(0.05,0,0,0.05,59,0)" xlink:href="#br"/><use transform="matrix(0.05,0,0,0.05,71.95,0)" xlink:href="#at"/><use transform="matrix(0.05,0,0,0.05,81.95,0)" xlink:href="#aw"/><use transform="matrix(0.05,0,0,0.05,91.95,0)" xlink:href="#at"/><use transform="matrix(0.05,0,0,0.05,101.95,0)" xlink:href="#aC"/><use transform="matrix(0.05,0,0,0.05,107.9,0)" xlink:href="#bl"/><use transform="matrix(0.05,0,0,0.05,116.85000000000001,0)" xlink:href="#at"/><use transform="matrix(0.05,0,0,0.05,126.85000000000001,0)" xlink:href="#aS"/><use transform="matrix(0.05,0,0,0.05,139.8,0)" xlink:href="#aB"/><use transform="matrix(0.05,0,0,0.05,149.8,0)" xlink:href="#aN"/><use transform="matrix(0.05,0,0,0.05,158.8,0)" xlink:href="#aB"/><use transform="matrix(0.05,0,0,0.05,168.8,0)" xlink:href="#av"/><use transform="matrix(0.05,0,0,0.05,172.75,0)" xlink:href="#aP"/><use transform="matrix(0.05,0,0,0.05,181.75,0)" xlink:href="#aB"/><use transform="matrix(0.05,0,0,0.05,191.75,0)" xlink:href="#aC"/><use transform="matrix(0.05,0,0,0.05,197.7,0)" xlink:href="#aJ"/><use transform="matrix(0.05,0,0,0.05,203.64999999999998,0)" xlink:href="#aK"/></g><g id="N"><use transform="matrix(0.05,0,0,0.05,0,0)" xlink:href="#bi"/><use transform="matrix(0.05,0,0,0.05,10,0)" xlink:href="#bj"/><use transform="matrix(0.05,0,0,0.05,20,0)" xlink:href="#aI"/><use transform="matrix(0.05,0,0,0.05,30,0)" xlink:href="#aE"/><use transform="matrix(0.05,0,0,0.05,40,0)" xlink:href="#aT"/><use transform="matrix(0.05,0,0,0.05,45,0)" xlink:href="#aB"/><use transform="matrix(0.05,0,0,0.05,55,0)" xlink:href="#bq"/><use transform="matrix(0.05,0,0,0.05,67,0)" xlink:href="#aT"/><use transform="matrix(0.05,0,0,0.05,72,0)" xlink:href="#aE"/><use transform="matrix(0.05,0,0,0.05,82,0)" xlink:href="#aT"/><use transform="matrix(0.05,0,0,0.05,87,0)" xlink:href="#bi"/><use transform="matrix(0.05,0,0,0.05,97,0)" xlink:href="#ax"/><use transform="matrix(0.05,0,0,0.05,106,0)" xlink:href="#aJ"/><use transform="matrix(0.05,0,0,0.05,111.95,0)" xlink:href="#aK"/></g><g id="O"><use transform="matrix(0.05,0,0,0.05,0,0)" xlink:href="#bp"/><use transform="matrix(0.05,0,0,0.05,12,0)" xlink:href="#aH"/><use transform="matrix(0.05,0,0,0.05,15.949999999999998,0)" xlink:href="#at"/><use transform="matrix(0.05,0,0,0.05,25.950000000000003,0)" xlink:href="#at"/><use transform="matrix(0.05,0,0,0.05,35.95,0)" xlink:href="#aI"/></g><path fill="#333" d="M115-194c53 0 69 39 70 98 0 66-23 100-70 100C84 3 66-7 56-30L54 0H23l1-261h32v101c10-23 28-34 59-34zm-8 174c40 0 45-34 45-75 0-40-5-75-45-74-42 0-51 32-51 76 0 43 10 73 51 73" id="bv"/><g id="P"><use transform="matrix(0.05,0,0,0.05,0,0)" xlink:href="#bm"/><use transform="matrix(0.05,0,0,0.05,10.5,0)" xlink:href="#aI"/><use transform="matrix(0.05,0,0,0.05,20.5,0)" xlink:href="#at"/><use transform="matrix(0.05,0,0,0.05,30.5,0)" xlink:href="#bi"/><use transform="matrix(0.05,0,0,0.05,40.5,0)" xlink:href="#bv"/><use transform="matrix(0.05,0,0,0.05,50.5,0)" xlink:href="#aH"/><use transform="matrix(0.05,0,0,0.05,54.45,0)" xlink:href="#aB"/></g><g id="Q"><use transform="matrix(0.05,0,0,0.05,0,0)" xlink:href="#au"/><use transform="matrix(0.05,0,0,0.05,10,0)" xlink:href="#aB"/><use transform="matrix(0.05,0,0,0.05,20,0)" xlink:href="#aT"/><use transform="matrix(0.05,0,0,0.05,25,0)" xlink:href="#aS"/><use transform="matrix(0.05,0,0,0.05,37.95,0)" xlink:href="#aB"/><use transform="matrix(0.05,0,0,0.05,47.95,0)" xlink:href="#bo"/><use transform="matrix(0.05,0,0,0.05,57.95,0)" xlink:href="#bi"/><use transform="matrix(0.05,0,0,0.05,67.95,0)" xlink:href="#aB"/><use transform="matrix(0.05,0,0,0.05,77.95,0)" xlink:href="#ax"/><use transform="matrix(0.05,0,0,0.05,86.95,0)" xlink:href="#aT"/><use transform="matrix(0.05,0,0,0.05,91.95,0)" xlink:href="#aJ"/><use transform="matrix(0.05,0,0,0.05,97.9,0)" xlink:href="#aK"/></g><g id="R"><use transform="matrix(0.05,0,0,0.05,0,0)" xlink:href="#aF"/><use transform="matrix(0.05,0,0,0.05,14.950000000000001,0)" xlink:href="#aE"/><use transform="matrix(0.05,0,0,0.05,24.950000000000003,0)" xlink:href="#aT"/><use transform="matrix(0.05,0,0,0.05,29.950000000000003,0)" xlink:href="#aN"/><use transform="matrix(0.05,0,0,0.05,38.95,0)" xlink:href="#ay"/><use transform="matrix(0.05,0,0,0.05,48.95,0)" xlink:href="#aS"/><use transform="matrix(0.05,0,0,0.05,61.900000000000006,0)" xlink:href="#aB"/><use transform="matrix(0.05,0,0,0.05,71.9,0)" xlink:href="#bo"/><use transform="matrix(0.05,0,0,0.05,81.9,0)" xlink:href="#bi"/><use transform="matrix(0.05,0,0,0.05,91.9,0)" xlink:href="#aB"/><use transform="matrix(0.05,0,0,0.05,101.9,0)" xlink:href="#ax"/><use transform="matrix(0.05,0,0,0.05,110.9,0)" xlink:href="#aT"/><use transform="matrix(0.05,0,0,0.05,115.9,0)" xlink:href="#bp"/><use transform="matrix(0.05,0,0,0.05,127.9,0)" xlink:href="#aH"/><use transform="matrix(0.05,0,0,0.05,131.85,0)" xlink:href="#at"/><use transform="matrix(0.05,0,0,0.05,141.85,0)" xlink:href="#at"/><use transform="matrix(0.05,0,0,0.05,151.85,0)" xlink:href="#aI"/><use transform="matrix(0.05,0,0,0.05,161.85,0)" xlink:href="#aJ"/><use transform="matrix(0.05,0,0,0.05,167.79999999999998,0)" xlink:href="#aK"/></g><g id="S"><use transform="matrix(0.05,0,0,0.05,0,0)" xlink:href="#aC"/><use transform="matrix(0.05,0,0,0.05,5.95,0)" xlink:href="#aB"/><use transform="matrix(0.05,0,0,0.05,15.949999999999998,0)" xlink:href="#aN"/><use transform="matrix(0.05,0,0,0.05,24.95,0)" xlink:href="#at"/><use transform="matrix(0.05,0,0,0.05,34.95,0)" xlink:href="#aF"/><use transform="matrix(0.05,0,0,0.05,49.900000000000006,0)" xlink:href="#aF"/><use transform="matrix(0.05,0,0,0.05,64.85000000000001,0)" xlink:href="#aB"/><use transform="matrix(0.05,0,0,0.05,74.85000000000001,0)" xlink:href="#aw"/><use transform="matrix(0.05,0,0,0.05,84.85000000000001,0)" xlink:href="#aT"/><use transform="matrix(0.05,0,0,0.05,89.85000000000001,0)" xlink:href="#aA"/><use transform="matrix(0.05,0,0,0.05,102.80000000000001,0)" xlink:href="#ax"/><use transform="matrix(0.05,0,0,0.05,111.80000000000001,0)" xlink:href="#aB"/><use transform="matrix(0.05,0,0,0.05,121.80000000000001,0)" xlink:href="#aC"/><use transform="matrix(0.05,0,0,0.05,127.75,0)" xlink:href="#aJ"/><use transform="matrix(0.05,0,0,0.05,133.70000000000002,0)" xlink:href="#aK"/></g><g id="T"><use transform="matrix(0.05,0,0,0.05,0,0)" xlink:href="#au"/><use transform="matrix(0.05,0,0,0.05,10,0)" xlink:href="#aB"/><use transform="matrix(0.05,0,0,0.05,20,0)" xlink:href="#aT"/><use transform="matrix(0.05,0,0,0.05,25,0)" xlink:href="#br"/><use transform="matrix(0.05,0,0,0.05,37.95,0)" xlink:href="#at"/><use transform="matrix(0.05,0,0,0.05,47.95,0)" xlink:href="#aw"/><use transform="matrix(0.05,0,0,0.05,57.95,0)" xlink:href="#at"/><use transform="matrix(0.05,0,0,0.05,67.95,0)" xlink:href="#aT"/><use transform="matrix(0.05,0,0,0.05,72.95,0)" xlink:href="#aU"/><use transform="matrix(0.05,0,0,0.05,77.95,0)" xlink:href="#aw"/><use transform="matrix(0.05,0,0,0.05,87.95,0)" xlink:href="#aQ"/><use transform="matrix(0.05,0,0,0.05,92.95,0)" xlink:href="#at"/><use transform="matrix(0.05,0,0,0.05,102.95,0)" xlink:href="#aJ"/><use transform="matrix(0.05,0,0,0.05,108.9,0)" xlink:href="#aK"/></g><g id="U"><use transform="matrix(0.05,0,0,0.05,0,0)" xlink:href="#au"/><use transform="matrix(0.05,0,0,0.05,10,0)" xlink:href="#aB"/><use transform="matrix(0.05,0,0,0.05,20,0)" xlink:href="#aT"/><use transform="matrix(0.05,0,0,0.05,25,0)" xlink:href="#bp"/><use transform="matrix(0.05,0,0,0.05,37,0)" xlink:href="#aH"/><use transform="matrix(0.05,0,0,0.05,40.95,0)" xlink:href="#at"/><use transform="matrix(0.05,0,0,0.05,50.95,0)" xlink:href="#at"/><use transform="matrix(0.05,0,0,0.05,60.95,0)" xlink:href="#aI"/><use transform="matrix(0.05,0,0,0.05,70.95,0)" xlink:href="#bp"/><use transform="matrix(0.05,0,0,0.05,82.95,0)" xlink:href="#aE"/><use transform="matrix(0.05,0,0,0.05,92.95,0)" xlink:href="#aw"/><use transform="matrix(0.05,0,0,0.05,102.95,0)" xlink:href="#aO"/><use transform="matrix(0.05,0,0,0.05,111.95,0)" xlink:href="#aU"/><use transform="matrix(0.05,0,0,0.05,116.95,0)" xlink:href="#aw"/><use transform="matrix(0.05,0,0,0.05,126.95,0)" xlink:href="#aI"/><use transform="matrix(0.05,0,0,0.05,136.95,0)" xlink:href="#at"/><use transform="matrix(0.05,0,0,0.05,146.95,0)" xlink:href="#aJ"/><use transform="matrix(0.05,0,0,0.05,152.89999999999998,0)" xlink:href="#aK"/></g><g id="V"><use transform="matrix(0.05,0,0,0.05,0,0)" xlink:href="#ax"/><use transform="matrix(0.05,0,0,0.05,9,0)" xlink:href="#aB"/><use transform="matrix(0.05,0,0,0.05,19,0)" xlink:href="#aw"/><use transform="matrix(0.05,0,0,0.05,29,0)" xlink:href="#aI"/><use transform="matrix(0.05,0,0,0.05,39,0)" xlink:href="#aS"/><use transform="matrix(0.05,0,0,0.05,51.95,0)" xlink:href="#aB"/><use transform="matrix(0.05,0,0,0.05,61.95,0)" xlink:href="#ax"/><use transform="matrix(0.05,0,0,0.05,70.95,0)" xlink:href="#bj"/><use transform="matrix(0.05,0,0,0.05,80.95,0)" xlink:href="#at"/><use transform="matrix(0.05,0,0,0.05,90.95,0)" xlink:href="#aw"/><use transform="matrix(0.05,0,0,0.05,100.95,0)" xlink:href="#ax"/><use transform="matrix(0.05,0,0,0.05,109.95,0)" xlink:href="#aB"/><use transform="matrix(0.05,0,0,0.05,119.95,0)" xlink:href="#aJ"/><use transform="matrix(0.05,0,0,0.05,125.9,0)" xlink:href="#aK"/></g><g id="W"><use transform="matrix(0.05,0,0,0.05,0,0)" xlink:href="#bp"/><use transform="matrix(0.05,0,0,0.05,12,0)" xlink:href="#aH"/><use transform="matrix(0.05,0,0,0.05,15.949999999999998,0)" xlink:href="#at"/><use transform="matrix(0.05,0,0,0.05,25.950000000000003,0)" xlink:href="#at"/><use transform="matrix(0.05,0,0,0.05,35.95,0)" xlink:href="#aI"/><use transform="matrix(0.05,0,0,0.05,45.95,0)" xlink:href="#bp"/><use transform="matrix(0.05,0,0,0.05,57.95,0)" xlink:href="#aE"/><use transform="matrix(0.05,0,0,0.05,67.95,0)" xlink:href="#aw"/><use transform="matrix(0.05,0,0,0.05,77.95,0)" xlink:href="#aO"/></g><g id="X"><use transform="matrix(0.05,0,0,0.05,0,0)" xlink:href="#bm"/><use transform="matrix(0.05,0,0,0.05,10.5,0)" xlink:href="#aI"/><use transform="matrix(0.05,0,0,0.05,20.5,0)" xlink:href="#at"/><use transform="matrix(0.05,0,0,0.05,30.5,0)" xlink:href="#bi"/><use transform="matrix(0.05,0,0,0.05,40.5,0)" xlink:href="#bv"/><use transform="matrix(0.05,0,0,0.05,50.5,0)" xlink:href="#aH"/><use transform="matrix(0.05,0,0,0.05,54.45,0)" xlink:href="#aB"/></g><g id="Y"><use transform="matrix(0.05,0,0,0.05,0,0)" xlink:href="#ax"/><use transform="matrix(0.05,0,0,0.05,9,0)" xlink:href="#aB"/><use transform="matrix(0.05,0,0,0.05,19,0)" xlink:href="#aw"/><use transform="matrix(0.05,0,0,0.05,29,0)" xlink:href="#aI"/><use transform="matrix(0.05,0,0,0.05,39,0)" xlink:href="#aU"/><use transform="matrix(0.05,0,0,0.05,44,0)" xlink:href="#aw"/><use transform="matrix(0.05,0,0,0.05,54,0)" xlink:href="#aQ"/><use transform="matrix(0.05,0,0,0.05,59,0)" xlink:href="#at"/><use transform="matrix(0.05,0,0,0.05,69,0)" xlink:href="#aJ"/><use transform="matrix(0.05,0,0,0.05,74.95,0)" xlink:href="#aK"/></g><path fill="#333" d="M197 0v-115H63V0H30v-248h33v105h134v-105h34V0h-34" id="bw"/><g id="Z"><use transform="matrix(0.05,0,0,0.05,0,0)" xlink:href="#bw"/><use transform="matrix(0.05,0,0,0.05,12.950000000000001,0)" xlink:href="#at"/><use transform="matrix(0.05,0,0,0.05,22.950000000000003,0)" xlink:href="#ax"/><use transform="matrix(0.05,0,0,0.05,31.950000000000003,0)" xlink:href="#bj"/><use transform="matrix(0.05,0,0,0.05,41.95,0)" xlink:href="#av"/><use transform="matrix(0.05,0,0,0.05,45.900000000000006,0)" xlink:href="#aT"/><use transform="matrix(0.05,0,0,0.05,50.900000000000006,0)" xlink:href="#aE"/><use transform="matrix(0.05,0,0,0.05,60.900000000000006,0)" xlink:href="#aH"/></g><g id="aa"><use transform="matrix(0.05,0,0,0.05,0,0)" xlink:href="#bm"/><use transform="matrix(0.05,0,0,0.05,10.5,0)" xlink:href="#ax"/><use transform="matrix(0.05,0,0,0.05,19.5,0)" xlink:href="#aT"/><use transform="matrix(0.05,0,0,0.05,24.5,0)" xlink:href="#aC"/><use transform="matrix(0.05,0,0,0.05,30.450000000000003,0)" xlink:href="#aw"/><use transform="matrix(0.05,0,0,0.05,40.45,0)" xlink:href="#au"/></g><g id="ab"><use transform="matrix(0.05,0,0,0.05,0,0)" xlink:href="#ax"/><use transform="matrix(0.05,0,0,0.05,9,0)" xlink:href="#aB"/><use transform="matrix(0.05,0,0,0.05,19,0)" xlink:href="#aw"/><use transform="matrix(0.05,0,0,0.05,29,0)" xlink:href="#aI"/><use transform="matrix(0.05,0,0,0.05,39,0)" xlink:href="#av"/><use transform="matrix(0.05,0,0,0.05,42.95,0)" xlink:href="#aw"/><use transform="matrix(0.05,0,0,0.05,52.95,0)" xlink:href="#aQ"/><use transform="matrix(0.05,0,0,0.05,57.95,0)" xlink:href="#at"/><use transform="matrix(0.05,0,0,0.05,67.95,0)" xlink:href="#aJ"/><use transform="matrix(0.05,0,0,0.05,73.9,0)" xlink:href="#aK"/></g><g id="ac"><use transform="matrix(0.05,0,0,0.05,0,0)" xlink:href="#ax"/><use transform="matrix(0.05,0,0,0.05,9,0)" xlink:href="#ay"/><use transform="matrix(0.05,0,0,0.05,19,0)" xlink:href="#at"/><use transform="matrix(0.05,0,0,0.05,29,0)" xlink:href="#az"/><use transform="matrix(0.05,0,0,0.05,41.95,0)" xlink:href="#aG"/><use transform="matrix(0.05,0,0,0.05,52.900000000000006,0)" xlink:href="#at"/><use transform="matrix(0.05,0,0,0.05,62.900000000000006,0)" xlink:href="#aC"/><use transform="matrix(0.05,0,0,0.05,68.85000000000001,0)" xlink:href="#aF"/><use transform="matrix(0.05,0,0,0.05,83.80000000000001,0)" xlink:href="#aJ"/><use transform="matrix(0.05,0,0,0.05,89.75000000000001,0)" xlink:href="#aK"/></g><g id="ad"><use transform="matrix(0.05,0,0,0.05,0,0)" xlink:href="#aC"/><use transform="matrix(0.05,0,0,0.05,5.95,0)" xlink:href="#aB"/><use transform="matrix(0.05,0,0,0.05,15.949999999999998,0)" xlink:href="#bo"/><use transform="matrix(0.05,0,0,0.05,25.950000000000003,0)" xlink:href="#bi"/><use transform="matrix(0.05,0,0,0.05,35.95,0)" xlink:href="#aB"/><use transform="matrix(0.05,0,0,0.05,45.95,0)" xlink:href="#ax"/><use transform="matrix(0.05,0,0,0.05,54.95,0)" xlink:href="#aT"/><use transform="matrix(0.05,0,0,0.05,59.95,0)" xlink:href="#aJ"/><use transform="matrix(0.05,0,0,0.05,65.9,0)" xlink:href="#aK"/></g><g id="ae"><use transform="matrix(0.05,0,0,0.05,0,0)" xlink:href="#au"/><use transform="matrix(0.05,0,0,0.05,10,0)" xlink:href="#aB"/><use transform="matrix(0.05,0,0,0.05,20,0)" xlink:href="#aT"/><use transform="matrix(0.05,0,0,0.05,25,0)" xlink:href="#aS"/><use transform="matrix(0.05,0,0,0.05,37.95,0)" xlink:href="#aB"/><use transform="matrix(0.05,0,0,0.05,47.95,0)" xlink:href="#ax"/><use transform="matrix(0.05,0,0,0.05,56.95,0)" xlink:href="#bj"/><use transform="matrix(0.05,0,0,0.05,66.95,0)" xlink:href="#at"/><use transform="matrix(0.05,0,0,0.05,76.95,0)" xlink:href="#aw"/><use transform="matrix(0.05,0,0,0.05,86.95,0)" xlink:href="#ax"/><use transform="matrix(0.05,0,0,0.05,95.95,0)" xlink:href="#aB"/><use transform="matrix(0.05,0,0,0.05,105.95,0)" xlink:href="#aJ"/><use transform="matrix(0.05,0,0,0.05,111.9,0)" xlink:href="#aK"/></g><g id="af"><use transform="matrix(0.05,0,0,0.05,0,0)" xlink:href="#bq"/><use transform="matrix(0.05,0,0,0.05,12,0)" xlink:href="#aB"/><use transform="matrix(0.05,0,0,0.05,22,0)" xlink:href="#aE"/><use transform="matrix(0.05,0,0,0.05,32,0)" xlink:href="#aC"/><use transform="matrix(0.05,0,0,0.05,37.95,0)" xlink:href="#aN"/><use transform="matrix(0.05,0,0,0.05,46.95,0)" xlink:href="#ay"/></g><g id="ag"><use transform="matrix(0.05,0,0,0.05,0,0)" xlink:href="#aS"/><use transform="matrix(0.05,0,0,0.05,12.950000000000001,0)" xlink:href="#aB"/><use transform="matrix(0.05,0,0,0.05,22.950000000000003,0)" xlink:href="#aN"/><use transform="matrix(0.05,0,0,0.05,31.950000000000003,0)" xlink:href="#at"/><use transform="matrix(0.05,0,0,0.05,41.95,0)" xlink:href="#aF"/><use transform="matrix(0.05,0,0,0.05,56.900000000000006,0)" xlink:href="#aF"/><use transform="matrix(0.05,0,0,0.05,71.85000000000001,0)" xlink:href="#aB"/><use transform="matrix(0.05,0,0,0.05,81.85000000000001,0)" xlink:href="#aw"/><use transform="matrix(0.05,0,0,0.05,91.85000000000001,0)" xlink:href="#aI"/><use transform="matrix(0.05,0,0,0.05,101.85000000000001,0)" xlink:href="#aE"/><use transform="matrix(0.05,0,0,0.05,111.85000000000001,0)" xlink:href="#aT"/><use transform="matrix(0.05,0,0,0.05,116.85000000000001,0)" xlink:href="#av"/><use transform="matrix(0.05,0,0,0.05,120.80000000000001,0)" xlink:href="#at"/><use transform="matrix(0.05,0,0,0.05,130.8,0)" xlink:href="#aw"/></g><g id="ah"><use transform="matrix(0.05,0,0,0.05,0,0)" xlink:href="#bq"/><use transform="matrix(0.05,0,0,0.05,12,0)" xlink:href="#aR"/><use transform="matrix(0.05,0,0,0.05,21,0)" xlink:href="#ax"/><use transform="matrix(0.05,0,0,0.05,30,0)" xlink:href="#aT"/><use transform="matrix(0.05,0,0,0.05,35,0)" xlink:href="#aB"/><use transform="matrix(0.05,0,0,0.05,45,0)" xlink:href="#aF"/></g><g id="ai"><use transform="matrix(0.05,0,0,0.05,0,0)" xlink:href="#aS"/><use transform="matrix(0.05,0,0,0.05,12.950000000000001,0)" xlink:href="#aB"/><use transform="matrix(0.05,0,0,0.05,22.950000000000003,0)" xlink:href="#au"/><use transform="matrix(0.05,0,0,0.05,32.95,0)" xlink:href="#av"/><use transform="matrix(0.05,0,0,0.05,36.900000000000006,0)" xlink:href="#ax"/><use transform="matrix(0.05,0,0,0.05,45.900000000000006,0)" xlink:href="#aT"/><use transform="matrix(0.05,0,0,0.05,50.900000000000006,0)" xlink:href="#aC"/><use transform="matrix(0.05,0,0,0.05,56.85,0)" xlink:href="#aE"/><use transform="matrix(0.05,0,0,0.05,66.85000000000001,0)" xlink:href="#aT"/><use transform="matrix(0.05,0,0,0.05,71.85000000000001,0)" xlink:href="#av"/><use transform="matrix(0.05,0,0,0.05,75.80000000000001,0)" xlink:href="#at"/><use transform="matrix(0.05,0,0,0.05,85.80000000000001,0)" xlink:href="#aw"/></g><g id="aj"><use transform="matrix(0.05,0,0,0.05,0,0)" xlink:href="#aS"/><use transform="matrix(0.05,0,0,0.05,12.950000000000001,0)" xlink:href="#aB"/><use transform="matrix(0.05,0,0,0.05,22.950000000000003,0)" xlink:href="#au"/><use transform="matrix(0.05,0,0,0.05,32.95,0)" xlink:href="#av"/><use transform="matrix(0.05,0,0,0.05,36.900000000000006,0)" xlink:href="#ax"/><use transform="matrix(0.05,0,0,0.05,45.900000000000006,0)" xlink:href="#aT"/><use transform="matrix(0.05,0,0,0.05,50.900000000000006,0)" xlink:href="#aB"/><use transform="matrix(0.05,0,0,0.05,60.900000000000006,0)" xlink:href="#aC"/><use transform="matrix(0.05,0,0,0.05,66.85000000000001,0)" xlink:href="#aJ"/><use transform="matrix(0.05,0,0,0.05,72.80000000000001,0)" xlink:href="#aK"/></g><path fill="#333" d="M266 0h-40l-56-210L115 0H75L2-248h35L96-30l15-64 43-154h32l59 218 59-218h35" id="bx"/><path fill="#333" d="M140-251c81 0 123 46 123 126C263-46 219 4 140 4 59 4 17-45 17-125s42-126 123-126zm0 227c63 0 89-41 89-101s-29-99-89-99c-61 0-89 39-89 99S79-25 140-24" id="by"/><g id="ak"><use transform="matrix(0.05,0,0,0.05,0,0)" xlink:href="#aS"/><use transform="matrix(0.05,0,0,0.05,12.950000000000001,0)" xlink:href="#aB"/><use transform="matrix(0.05,0,0,0.05,22.950000000000003,0)" xlink:href="#au"/><use transform="matrix(0.05,0,0,0.05,32.95,0)" xlink:href="#av"/><use transform="matrix(0.05,0,0,0.05,36.900000000000006,0)" xlink:href="#ax"/><use transform="matrix(0.05,0,0,0.05,45.900000000000006,0)" xlink:href="#aT"/><use transform="matrix(0.05,0,0,0.05,50.900000000000006,0)" xlink:href="#aB"/><use transform="matrix(0.05,0,0,0.05,60.900000000000006,0)" xlink:href="#aC"/><use transform="matrix(0.05,0,0,0.05,66.85000000000001,0)" xlink:href="#bx"/><use transform="matrix(0.05,0,0,0.05,83.80000000000001,0)" xlink:href="#av"/><use transform="matrix(0.05,0,0,0.05,87.75000000000001,0)" xlink:href="#aT"/><use transform="matrix(0.05,0,0,0.05,92.75000000000001,0)" xlink:href="#ay"/><use transform="matrix(0.05,0,0,0.05,102.75,0)" xlink:href="#by"/><use transform="matrix(0.05,0,0,0.05,116.75,0)" xlink:href="#aT"/><use transform="matrix(0.05,0,0,0.05,121.75,0)" xlink:href="#ay"/><use transform="matrix(0.05,0,0,0.05,131.75,0)" xlink:href="#aB"/><use transform="matrix(0.05,0,0,0.05,141.75,0)" xlink:href="#aC"/><use transform="matrix(0.05,0,0,0.05,147.7,0)" xlink:href="#bk"/><use transform="matrix(0.05,0,0,0.05,159.7,0)" xlink:href="#aN"/><use transform="matrix(0.05,0,0,0.05,168.7,0)" xlink:href="#aN"/><use transform="matrix(0.05,0,0,0.05,177.7,0)" xlink:href="#at"/><use transform="matrix(0.05,0,0,0.05,187.7,0)" xlink:href="#bi"/><use transform="matrix(0.05,0,0,0.05,197.7,0)" xlink:href="#aw"/><use transform="matrix(0.05,0,0,0.05,207.69999999999996,0)" xlink:href="#aT"/><use transform="matrix(0.05,0,0,0.05,212.69999999999996,0)" xlink:href="#aJ"/><use transform="matrix(0.05,0,0,0.05,218.64999999999998,0)" xlink:href="#aK"/></g><g id="al"><use transform="matrix(0.05,0,0,0.05,0,0)" xlink:href="#aA"/><use transform="matrix(0.05,0,0,0.05,12.950000000000001,0)" xlink:href="#ax"/><use transform="matrix(0.05,0,0,0.05,21.950000000000003,0)" xlink:href="#aB"/><use transform="matrix(0.05,0,0,0.05,31.950000000000003,0)" xlink:href="#aC"/></g><g id="am"><use transform="matrix(0.05,0,0,0.05,0,0)" xlink:href="#au"/><use transform="matrix(0.05,0,0,0.05,10,0)" xlink:href="#aB"/><use transform="matrix(0.05,0,0,0.05,20,0)" xlink:href="#aT"/><use transform="matrix(0.05,0,0,0.05,25,0)" xlink:href="#aA"/><use transform="matrix(0.05,0,0,0.05,37.95,0)" xlink:href="#ax"/><use transform="matrix(0.05,0,0,0.05,46.95,0)" xlink:href="#aB"/><use transform="matrix(0.05,0,0,0.05,56.95,0)" xlink:href="#aC"/><use transform="matrix(0.05,0,0,0.05,62.900000000000006,0)" xlink:href="#bl"/><use transform="matrix(0.05,0,0,0.05,72.85000000000001,0)" xlink:href="#aR"/><use transform="matrix(0.05,0,0,0.05,81.85000000000001,0)" xlink:href="#bj"/><use transform="matrix(0.05,0,0,0.05,91.85000000000001,0)" xlink:href="#aB"/><use transform="matrix(0.05,0,0,0.05,101.85000000000001,0)" xlink:href="#aJ"/><use transform="matrix(0.05,0,0,0.05,107.80000000000001,0)" xlink:href="#aK"/></g><g id="an"><use transform="matrix(0.05,0,0,0.05,0,0)" xlink:href="#bq"/><use transform="matrix(0.05,0,0,0.05,12,0)" xlink:href="#bi"/><use transform="matrix(0.05,0,0,0.05,22,0)" xlink:href="#aC"/><use transform="matrix(0.05,0,0,0.05,27.950000000000003,0)" xlink:href="#aP"/><use transform="matrix(0.05,0,0,0.05,36.95,0)" xlink:href="#aB"/><use transform="matrix(0.05,0,0,0.05,46.95,0)" xlink:href="#aR"/></g><g id="ao"><use transform="matrix(0.05,0,0,0.05,0,0)" xlink:href="#au"/><use transform="matrix(0.05,0,0,0.05,10,0)" xlink:href="#aB"/><use transform="matrix(0.05,0,0,0.05,20,0)" xlink:href="#aT"/><use transform="matrix(0.05,0,0,0.05,25,0)" xlink:href="#aA"/><use transform="matrix(0.05,0,0,0.05,37.95,0)" xlink:href="#ax"/><use transform="matrix(0.05,0,0,0.05,46.95,0)" xlink:href="#aB"/><use transform="matrix(0.05,0,0,0.05,56.95,0)" xlink:href="#aC"/><use transform="matrix(0.05,0,0,0.05,62.900000000000006,0)" xlink:href="#bl"/><use transform="matrix(0.05,0,0,0.05,72.85000000000001,0)" xlink:href="#aR"/><use transform="matrix(0.05,0,0,0.05,81.85000000000001,0)" xlink:href="#bj"/><use transform="matrix(0.05,0,0,0.05,91.85000000000001,0)" xlink:href="#aB"/><use transform="matrix(0.05,0,0,0.05,101.85000000000001,0)" xlink:href="#aJ"/><use transform="matrix(0.05,0,0,0.05,107.80000000000001,0)" xlink:href="#aK"/></g><g id="ap"><use transform="matrix(0.05,0,0,0.05,0,0)" xlink:href="#ax"/><use transform="matrix(0.05,0,0,0.05,9,0)" xlink:href="#ay"/><use transform="matrix(0.05,0,0,0.05,19,0)" xlink:href="#at"/><use transform="matrix(0.05,0,0,0.05,29,0)" xlink:href="#az"/><use transform="matrix(0.05,0,0,0.05,41.95,0)" xlink:href="#bq"/><use transform="matrix(0.05,0,0,0.05,53.95,0)" xlink:href="#bi"/><use transform="matrix(0.05,0,0,0.05,63.95,0)" xlink:href="#aC"/><use transform="matrix(0.05,0,0,0.05,69.9,0)" xlink:href="#aP"/><use transform="matrix(0.05,0,0,0.05,78.9,0)" xlink:href="#aB"/><use transform="matrix(0.05,0,0,0.05,88.9,0)" xlink:href="#aR"/><use transform="matrix(0.05,0,0,0.05,97.9,0)" xlink:href="#aG"/><use transform="matrix(0.05,0,0,0.05,108.85000000000001,0)" xlink:href="#at"/><use transform="matrix(0.05,0,0,0.05,118.85000000000001,0)" xlink:href="#aC"/><use transform="matrix(0.05,0,0,0.05,124.80000000000001,0)" xlink:href="#aF"/><use transform="matrix(0.05,0,0,0.05,139.75,0)" xlink:href="#aJ"/><use transform="matrix(0.05,0,0,0.05,145.7,0)" xlink:href="#aK"/></g><g id="aq"><use transform="matrix(0.05,0,0,0.05,0,0)" xlink:href="#au"/><use transform="matrix(0.05,0,0,0.05,10,0)" xlink:href="#av"/><use transform="matrix(0.05,0,0,0.05,13.949999999999998,0)" xlink:href="#aP"/><use transform="matrix(0.05,0,0,0.05,22.95,0)" xlink:href="#aB"/><use transform="matrix(0.05,0,0,0.05,32.95,0)" xlink:href="#aS"/><use transform="matrix(0.05,0,0,0.05,45.900000000000006,0)" xlink:href="#aE"/><use transform="matrix(0.05,0,0,0.05,55.900000000000006,0)" xlink:href="#aT"/><use transform="matrix(0.05,0,0,0.05,60.900000000000006,0)" xlink:href="#av"/><use transform="matrix(0.05,0,0,0.05,64.85000000000001,0)" xlink:href="#aw"/><use transform="matrix(0.05,0,0,0.05,74.85000000000001,0)" xlink:href="#au"/><use transform="matrix(0.05,0,0,0.05,84.85000000000001,0)" xlink:href="#aJ"/><use transform="matrix(0.05,0,0,0.05,90.80000000000001,0)" xlink:href="#aK"/></g><g id="ar"><use transform="matrix(0.05,0,0,0.05,0,0)" xlink:href="#ax"/><use transform="matrix(0.05,0,0,0.05,9,0)" xlink:href="#bi"/><use transform="matrix(0.05,0,0,0.05,19,0)" xlink:href="#au"/><use transform="matrix(0.05,0,0,0.05,29,0)" xlink:href="#au"/><use transform="matrix(0.05,0,0,0.05,39,0)" xlink:href="#aB"/><use transform="matrix(0.05,0,0,0.05,49,0)" xlink:href="#ax"/><use transform="matrix(0.05,0,0,0.05,58,0)" xlink:href="#aT"/><use transform="matrix(0.05,0,0,0.05,63,0)" xlink:href="#av"/><use transform="matrix(0.05,0,0,0.05,66.95,0)" xlink:href="#at"/><use transform="matrix(0.05,0,0,0.05,76.95,0)" xlink:href="#aw"/><use transform="matrix(0.05,0,0,0.05,86.95,0)" xlink:href="#ax"/><use transform="matrix(0.05,0,0,0.05,95.95,0)" xlink:href="#aJ"/><use transform="matrix(0.05,0,0,0.05,101.9,0)" xlink:href="#aK"/></g></defs></g></svg>